G04 #@! TF.GenerationSoftware,KiCad,Pcbnew,(5.0.2)-1*
G04 #@! TF.CreationDate,2020-01-25T18:04:34+01:00*
G04 #@! TF.ProjectId,4.0,342e302e-6b69-4636-9164-5f7063625858,rev?*
G04 #@! TF.SameCoordinates,Original*
G04 #@! TF.FileFunction,Legend,Top*
G04 #@! TF.FilePolarity,Positive*
%FSLAX46Y46*%
G04 Gerber Fmt 4.6, Leading zero omitted, Abs format (unit mm)*
G04 Created by KiCad (PCBNEW (5.0.2)-1) date 01/25/20 18:04:34*
%MOMM*%
%LPD*%
G01*
G04 APERTURE LIST*
%ADD10C,0.150000*%
%ADD11C,0.120000*%
%ADD12C,0.300000*%
%ADD13C,0.100000*%
%ADD14C,0.075000*%
%ADD15C,0.125000*%
G04 APERTURE END LIST*
D10*
G04 #@! TO.C,U2*
X130400000Y-91200000D02*
X130800000Y-91200000D01*
X133600000Y-91200000D02*
X133200000Y-91200000D01*
X133600000Y-91200000D02*
X133600000Y-91600000D01*
X133600000Y-94400000D02*
X133200000Y-94400000D01*
X133600000Y-94400000D02*
X133600000Y-94000000D01*
X130400000Y-94400000D02*
X130800000Y-94400000D01*
X130400000Y-94400000D02*
X130400000Y-94000000D01*
D11*
G04 #@! TO.C,C1*
X117890000Y-95037221D02*
X117890000Y-95362779D01*
X118910000Y-95037221D02*
X118910000Y-95362779D01*
G04 #@! TO.C,C2*
X118200000Y-98835000D02*
X122110000Y-98835000D01*
X122110000Y-98835000D02*
X122110000Y-96965000D01*
X122110000Y-96965000D02*
X118200000Y-96965000D01*
G04 #@! TO.C,R1*
X130362779Y-88310000D02*
X130037221Y-88310000D01*
X130362779Y-87290000D02*
X130037221Y-87290000D01*
G04 #@! TO.C,C3*
X119562779Y-89290000D02*
X119237221Y-89290000D01*
X119562779Y-90310000D02*
X119237221Y-90310000D01*
G04 #@! TO.C,C4*
X120762779Y-95610000D02*
X120437221Y-95610000D01*
X120762779Y-94590000D02*
X120437221Y-94590000D01*
G04 #@! TO.C,C5*
X133890000Y-95437221D02*
X133890000Y-95762779D01*
X134910000Y-95437221D02*
X134910000Y-95762779D01*
G04 #@! TO.C,C6*
X133662779Y-88910000D02*
X133337221Y-88910000D01*
X133662779Y-87890000D02*
X133337221Y-87890000D01*
G04 #@! TO.C,C7*
X133437221Y-97190000D02*
X133762779Y-97190000D01*
X133437221Y-98210000D02*
X133762779Y-98210000D01*
D12*
G04 #@! TO.C,IC1*
X118800000Y-91000000D02*
G75*
G03X118800000Y-91000000I-100000J0D01*
G01*
D11*
G04 #@! TO.C,L1*
X122510000Y-88437221D02*
X122510000Y-88762779D01*
X121490000Y-88437221D02*
X121490000Y-88762779D01*
G04 #@! TO.C,U1*
X127735000Y-90590000D02*
X128210000Y-90590000D01*
X128210000Y-90590000D02*
X128210000Y-91065000D01*
X123465000Y-95810000D02*
X122990000Y-95810000D01*
X122990000Y-95810000D02*
X122990000Y-95335000D01*
X127735000Y-95810000D02*
X128210000Y-95810000D01*
X128210000Y-95810000D02*
X128210000Y-95335000D01*
X123465000Y-90590000D02*
X122990000Y-90590000D01*
G04 #@! TO.C,U2*
D13*
X131695238Y-95380952D02*
X131695238Y-95704761D01*
X131714285Y-95742857D01*
X131733333Y-95761904D01*
X131771428Y-95780952D01*
X131847619Y-95780952D01*
X131885714Y-95761904D01*
X131904761Y-95742857D01*
X131923809Y-95704761D01*
X131923809Y-95380952D01*
X132095238Y-95419047D02*
X132114285Y-95400000D01*
X132152380Y-95380952D01*
X132247619Y-95380952D01*
X132285714Y-95400000D01*
X132304761Y-95419047D01*
X132323809Y-95457142D01*
X132323809Y-95495238D01*
X132304761Y-95552380D01*
X132076190Y-95780952D01*
X132323809Y-95780952D01*
G04 #@! TO.C,C1*
D14*
X119607142Y-96150000D02*
X119621428Y-96164285D01*
X119635714Y-96207142D01*
X119635714Y-96235714D01*
X119621428Y-96278571D01*
X119592857Y-96307142D01*
X119564285Y-96321428D01*
X119507142Y-96335714D01*
X119464285Y-96335714D01*
X119407142Y-96321428D01*
X119378571Y-96307142D01*
X119350000Y-96278571D01*
X119335714Y-96235714D01*
X119335714Y-96207142D01*
X119350000Y-96164285D01*
X119364285Y-96150000D01*
X119635714Y-95864285D02*
X119635714Y-96035714D01*
X119635714Y-95950000D02*
X119335714Y-95950000D01*
X119378571Y-95978571D01*
X119407142Y-96007142D01*
X119421428Y-96035714D01*
G04 #@! TO.C,C2*
D15*
X122616666Y-97678571D02*
X122592857Y-97702380D01*
X122521428Y-97726190D01*
X122473809Y-97726190D01*
X122402380Y-97702380D01*
X122354761Y-97654761D01*
X122330952Y-97607142D01*
X122307142Y-97511904D01*
X122307142Y-97440476D01*
X122330952Y-97345238D01*
X122354761Y-97297619D01*
X122402380Y-97250000D01*
X122473809Y-97226190D01*
X122521428Y-97226190D01*
X122592857Y-97250000D01*
X122616666Y-97273809D01*
X122807142Y-97273809D02*
X122830952Y-97250000D01*
X122878571Y-97226190D01*
X122997619Y-97226190D01*
X123045238Y-97250000D01*
X123069047Y-97273809D01*
X123092857Y-97321428D01*
X123092857Y-97369047D01*
X123069047Y-97440476D01*
X122783333Y-97726190D01*
X123092857Y-97726190D01*
G04 #@! TO.C,TX/RX/RST*
D13*
X123942857Y-89280952D02*
X124171428Y-89280952D01*
X124057142Y-89680952D02*
X124057142Y-89280952D01*
X124266666Y-89280952D02*
X124533333Y-89680952D01*
X124533333Y-89280952D02*
X124266666Y-89680952D01*
X124971428Y-89261904D02*
X124628571Y-89776190D01*
X125333333Y-89680952D02*
X125200000Y-89490476D01*
X125104761Y-89680952D02*
X125104761Y-89280952D01*
X125257142Y-89280952D01*
X125295238Y-89300000D01*
X125314285Y-89319047D01*
X125333333Y-89357142D01*
X125333333Y-89414285D01*
X125314285Y-89452380D01*
X125295238Y-89471428D01*
X125257142Y-89490476D01*
X125104761Y-89490476D01*
X125466666Y-89280952D02*
X125733333Y-89680952D01*
X125733333Y-89280952D02*
X125466666Y-89680952D01*
X126171428Y-89261904D02*
X125828571Y-89776190D01*
X126533333Y-89680952D02*
X126400000Y-89490476D01*
X126304761Y-89680952D02*
X126304761Y-89280952D01*
X126457142Y-89280952D01*
X126495238Y-89300000D01*
X126514285Y-89319047D01*
X126533333Y-89357142D01*
X126533333Y-89414285D01*
X126514285Y-89452380D01*
X126495238Y-89471428D01*
X126457142Y-89490476D01*
X126304761Y-89490476D01*
X126685714Y-89661904D02*
X126742857Y-89680952D01*
X126838095Y-89680952D01*
X126876190Y-89661904D01*
X126895238Y-89642857D01*
X126914285Y-89604761D01*
X126914285Y-89566666D01*
X126895238Y-89528571D01*
X126876190Y-89509523D01*
X126838095Y-89490476D01*
X126761904Y-89471428D01*
X126723809Y-89452380D01*
X126704761Y-89433333D01*
X126685714Y-89395238D01*
X126685714Y-89357142D01*
X126704761Y-89319047D01*
X126723809Y-89300000D01*
X126761904Y-89280952D01*
X126857142Y-89280952D01*
X126914285Y-89300000D01*
X127028571Y-89280952D02*
X127257142Y-89280952D01*
X127142857Y-89680952D02*
X127142857Y-89280952D01*
G04 #@! TO.C,GND*
D14*
X117550000Y-89728571D02*
X117535714Y-89757142D01*
X117535714Y-89800000D01*
X117550000Y-89842857D01*
X117578571Y-89871428D01*
X117607142Y-89885714D01*
X117664285Y-89900000D01*
X117707142Y-89900000D01*
X117764285Y-89885714D01*
X117792857Y-89871428D01*
X117821428Y-89842857D01*
X117835714Y-89800000D01*
X117835714Y-89771428D01*
X117821428Y-89728571D01*
X117807142Y-89714285D01*
X117707142Y-89714285D01*
X117707142Y-89771428D01*
X117835714Y-89585714D02*
X117535714Y-89585714D01*
X117835714Y-89414285D01*
X117535714Y-89414285D01*
X117835714Y-89271428D02*
X117535714Y-89271428D01*
X117535714Y-89200000D01*
X117550000Y-89157142D01*
X117578571Y-89128571D01*
X117607142Y-89114285D01*
X117664285Y-89100000D01*
X117707142Y-89100000D01*
X117764285Y-89114285D01*
X117792857Y-89128571D01*
X117821428Y-89157142D01*
X117835714Y-89200000D01*
X117835714Y-89271428D01*
G04 #@! TO.C,R1*
D13*
X129133333Y-89080952D02*
X129000000Y-88890476D01*
X128904761Y-89080952D02*
X128904761Y-88680952D01*
X129057142Y-88680952D01*
X129095238Y-88700000D01*
X129114285Y-88719047D01*
X129133333Y-88757142D01*
X129133333Y-88814285D01*
X129114285Y-88852380D01*
X129095238Y-88871428D01*
X129057142Y-88890476D01*
X128904761Y-88890476D01*
X129514285Y-89080952D02*
X129285714Y-89080952D01*
X129400000Y-89080952D02*
X129400000Y-88680952D01*
X129361904Y-88738095D01*
X129323809Y-88776190D01*
X129285714Y-88795238D01*
G04 #@! TO.C,C3*
X121333333Y-90642857D02*
X121314285Y-90661904D01*
X121257142Y-90680952D01*
X121219047Y-90680952D01*
X121161904Y-90661904D01*
X121123809Y-90623809D01*
X121104761Y-90585714D01*
X121085714Y-90509523D01*
X121085714Y-90452380D01*
X121104761Y-90376190D01*
X121123809Y-90338095D01*
X121161904Y-90300000D01*
X121219047Y-90280952D01*
X121257142Y-90280952D01*
X121314285Y-90300000D01*
X121333333Y-90319047D01*
X121466666Y-90280952D02*
X121714285Y-90280952D01*
X121580952Y-90433333D01*
X121638095Y-90433333D01*
X121676190Y-90452380D01*
X121695238Y-90471428D01*
X121714285Y-90509523D01*
X121714285Y-90604761D01*
X121695238Y-90642857D01*
X121676190Y-90661904D01*
X121638095Y-90680952D01*
X121523809Y-90680952D01*
X121485714Y-90661904D01*
X121466666Y-90642857D01*
G04 #@! TO.C,C4*
X121333333Y-96242857D02*
X121314285Y-96261904D01*
X121257142Y-96280952D01*
X121219047Y-96280952D01*
X121161904Y-96261904D01*
X121123809Y-96223809D01*
X121104761Y-96185714D01*
X121085714Y-96109523D01*
X121085714Y-96052380D01*
X121104761Y-95976190D01*
X121123809Y-95938095D01*
X121161904Y-95900000D01*
X121219047Y-95880952D01*
X121257142Y-95880952D01*
X121314285Y-95900000D01*
X121333333Y-95919047D01*
X121676190Y-96014285D02*
X121676190Y-96280952D01*
X121580952Y-95861904D02*
X121485714Y-96147619D01*
X121733333Y-96147619D01*
G04 #@! TO.C,C5*
X133442857Y-95666666D02*
X133461904Y-95685714D01*
X133480952Y-95742857D01*
X133480952Y-95780952D01*
X133461904Y-95838095D01*
X133423809Y-95876190D01*
X133385714Y-95895238D01*
X133309523Y-95914285D01*
X133252380Y-95914285D01*
X133176190Y-95895238D01*
X133138095Y-95876190D01*
X133100000Y-95838095D01*
X133080952Y-95780952D01*
X133080952Y-95742857D01*
X133100000Y-95685714D01*
X133119047Y-95666666D01*
X133080952Y-95304761D02*
X133080952Y-95495238D01*
X133271428Y-95514285D01*
X133252380Y-95495238D01*
X133233333Y-95457142D01*
X133233333Y-95361904D01*
X133252380Y-95323809D01*
X133271428Y-95304761D01*
X133309523Y-95285714D01*
X133404761Y-95285714D01*
X133442857Y-95304761D01*
X133461904Y-95323809D01*
X133480952Y-95361904D01*
X133480952Y-95457142D01*
X133461904Y-95495238D01*
X133442857Y-95514285D01*
G04 #@! TO.C,C6*
X133433333Y-89642857D02*
X133414285Y-89661904D01*
X133357142Y-89680952D01*
X133319047Y-89680952D01*
X133261904Y-89661904D01*
X133223809Y-89623809D01*
X133204761Y-89585714D01*
X133185714Y-89509523D01*
X133185714Y-89452380D01*
X133204761Y-89376190D01*
X133223809Y-89338095D01*
X133261904Y-89300000D01*
X133319047Y-89280952D01*
X133357142Y-89280952D01*
X133414285Y-89300000D01*
X133433333Y-89319047D01*
X133776190Y-89280952D02*
X133700000Y-89280952D01*
X133661904Y-89300000D01*
X133642857Y-89319047D01*
X133604761Y-89376190D01*
X133585714Y-89452380D01*
X133585714Y-89604761D01*
X133604761Y-89642857D01*
X133623809Y-89661904D01*
X133661904Y-89680952D01*
X133738095Y-89680952D01*
X133776190Y-89661904D01*
X133795238Y-89642857D01*
X133814285Y-89604761D01*
X133814285Y-89509523D01*
X133795238Y-89471428D01*
X133776190Y-89452380D01*
X133738095Y-89433333D01*
X133661904Y-89433333D01*
X133623809Y-89452380D01*
X133604761Y-89471428D01*
X133585714Y-89509523D01*
G04 #@! TO.C,C7*
X131633333Y-97942857D02*
X131614285Y-97961904D01*
X131557142Y-97980952D01*
X131519047Y-97980952D01*
X131461904Y-97961904D01*
X131423809Y-97923809D01*
X131404761Y-97885714D01*
X131385714Y-97809523D01*
X131385714Y-97752380D01*
X131404761Y-97676190D01*
X131423809Y-97638095D01*
X131461904Y-97600000D01*
X131519047Y-97580952D01*
X131557142Y-97580952D01*
X131614285Y-97600000D01*
X131633333Y-97619047D01*
X131766666Y-97580952D02*
X132033333Y-97580952D01*
X131861904Y-97980952D01*
G04 #@! TO.C,IC1*
X119309523Y-93980952D02*
X119309523Y-93580952D01*
X119728571Y-93942857D02*
X119709523Y-93961904D01*
X119652380Y-93980952D01*
X119614285Y-93980952D01*
X119557142Y-93961904D01*
X119519047Y-93923809D01*
X119500000Y-93885714D01*
X119480952Y-93809523D01*
X119480952Y-93752380D01*
X119500000Y-93676190D01*
X119519047Y-93638095D01*
X119557142Y-93600000D01*
X119614285Y-93580952D01*
X119652380Y-93580952D01*
X119709523Y-93600000D01*
X119728571Y-93619047D01*
X120109523Y-93980952D02*
X119880952Y-93980952D01*
X119995238Y-93980952D02*
X119995238Y-93580952D01*
X119957142Y-93638095D01*
X119919047Y-93676190D01*
X119880952Y-93695238D01*
G04 #@! TO.C,L1*
X123280952Y-89666666D02*
X123280952Y-89857142D01*
X122880952Y-89857142D01*
X123280952Y-89323809D02*
X123280952Y-89552380D01*
X123280952Y-89438095D02*
X122880952Y-89438095D01*
X122938095Y-89476190D01*
X122976190Y-89514285D01*
X122995238Y-89552380D01*
G04 #@! TO.C,U1*
X125295238Y-96980952D02*
X125295238Y-97304761D01*
X125314285Y-97342857D01*
X125333333Y-97361904D01*
X125371428Y-97380952D01*
X125447619Y-97380952D01*
X125485714Y-97361904D01*
X125504761Y-97342857D01*
X125523809Y-97304761D01*
X125523809Y-96980952D01*
X125923809Y-97380952D02*
X125695238Y-97380952D01*
X125809523Y-97380952D02*
X125809523Y-96980952D01*
X125771428Y-97038095D01*
X125733333Y-97076190D01*
X125695238Y-97095238D01*
G04 #@! TD*
M02*
