G04 #@! TF.GenerationSoftware,KiCad,Pcbnew,(5.0.2)-1*
G04 #@! TF.CreationDate,2020-01-25T18:04:34+01:00*
G04 #@! TF.ProjectId,4.0,342e302e-6b69-4636-9164-5f7063625858,rev?*
G04 #@! TF.SameCoordinates,Original*
G04 #@! TF.FileFunction,Copper,L1,Top*
G04 #@! TF.FilePolarity,Positive*
%FSLAX46Y46*%
G04 Gerber Fmt 4.6, Leading zero omitted, Abs format (unit mm)*
G04 Created by KiCad (PCBNEW (5.0.2)-1) date 01/25/20 18:04:34*
%MOMM*%
%LPD*%
G01*
G04 APERTURE LIST*
G04 #@! TA.AperFunction,SMDPad,CuDef*
%ADD10R,0.200000X0.750000*%
G04 #@! TD*
G04 #@! TA.AperFunction,SMDPad,CuDef*
%ADD11R,0.750000X0.200000*%
G04 #@! TD*
G04 #@! TA.AperFunction,Conductor*
%ADD12C,0.100000*%
G04 #@! TD*
G04 #@! TA.AperFunction,SMDPad,CuDef*
%ADD13C,0.875000*%
G04 #@! TD*
G04 #@! TA.AperFunction,SMDPad,CuDef*
%ADD14C,1.350000*%
G04 #@! TD*
G04 #@! TA.AperFunction,SMDPad,CuDef*
%ADD15R,1.200000X1.500000*%
G04 #@! TD*
G04 #@! TA.AperFunction,SMDPad,CuDef*
%ADD16R,0.950000X0.450000*%
G04 #@! TD*
G04 #@! TA.AperFunction,SMDPad,CuDef*
%ADD17C,3.100000*%
G04 #@! TD*
G04 #@! TA.AperFunction,SMDPad,CuDef*
%ADD18C,0.250000*%
G04 #@! TD*
G04 #@! TA.AperFunction,ViaPad*
%ADD19C,0.800000*%
G04 #@! TD*
G04 #@! TA.AperFunction,Conductor*
%ADD20C,0.250000*%
G04 #@! TD*
G04 #@! TA.AperFunction,Conductor*
%ADD21C,0.500000*%
G04 #@! TD*
G04 #@! TA.AperFunction,Conductor*
%ADD22C,0.200000*%
G04 #@! TD*
G04 #@! TA.AperFunction,Conductor*
%ADD23C,0.400000*%
G04 #@! TD*
G04 #@! TA.AperFunction,Conductor*
%ADD24C,0.300000*%
G04 #@! TD*
G04 APERTURE END LIST*
D10*
G04 #@! TO.P,U2,24*
G04 #@! TO.N,/MOSI*
X131000000Y-91200000D03*
G04 #@! TO.P,U2,23*
G04 #@! TO.N,/SCK*
X131400000Y-91200000D03*
G04 #@! TO.P,U2,22*
G04 #@! TO.N,/CE_I*
X131800000Y-91200000D03*
G04 #@! TO.P,U2,21*
G04 #@! TO.N,N/C*
X132200000Y-91200000D03*
G04 #@! TO.P,U2,20*
G04 #@! TO.N,Earth*
X132600000Y-91200000D03*
G04 #@! TO.P,U2,19*
G04 #@! TO.N,N/C*
X133000000Y-91200000D03*
D11*
G04 #@! TO.P,U2,18*
G04 #@! TO.N,Earth*
X133600000Y-91800000D03*
G04 #@! TO.P,U2,17*
G04 #@! TO.N,N/C*
X133600000Y-92200000D03*
G04 #@! TO.P,U2,16*
X133600000Y-92600000D03*
G04 #@! TO.P,U2,15*
X133600000Y-93000000D03*
G04 #@! TO.P,U2,14*
X133600000Y-93400000D03*
G04 #@! TO.P,U2,13*
G04 #@! TO.N,+3V3*
X133600000Y-93800000D03*
D10*
G04 #@! TO.P,U2,12*
G04 #@! TO.N,INT*
X133000000Y-94400000D03*
G04 #@! TO.P,U2,11*
G04 #@! TO.N,Earth*
X132600000Y-94400000D03*
G04 #@! TO.P,U2,10*
G04 #@! TO.N,Net-(C7-Pad1)*
X132200000Y-94400000D03*
G04 #@! TO.P,U2,9*
G04 #@! TO.N,/MISO*
X131800000Y-94400000D03*
G04 #@! TO.P,U2,8*
G04 #@! TO.N,+3V3*
X131400000Y-94400000D03*
G04 #@! TO.P,U2,7*
G04 #@! TO.N,N/C*
X131000000Y-94400000D03*
D11*
G04 #@! TO.P,U2,6*
X130400000Y-93800000D03*
G04 #@! TO.P,U2,5*
X130400000Y-93400000D03*
G04 #@! TO.P,U2,4*
X130400000Y-93000000D03*
G04 #@! TO.P,U2,3*
X130400000Y-92600000D03*
G04 #@! TO.P,U2,2*
X130400000Y-92200000D03*
G04 #@! TO.P,U2,1*
G04 #@! TO.N,+3V3*
X130400000Y-91800000D03*
G04 #@! TD*
D12*
G04 #@! TO.N,Earth*
G04 #@! TO.C,C1*
G36*
X118677691Y-95551053D02*
X118698926Y-95554203D01*
X118719750Y-95559419D01*
X118739962Y-95566651D01*
X118759368Y-95575830D01*
X118777781Y-95586866D01*
X118795024Y-95599654D01*
X118810930Y-95614070D01*
X118825346Y-95629976D01*
X118838134Y-95647219D01*
X118849170Y-95665632D01*
X118858349Y-95685038D01*
X118865581Y-95705250D01*
X118870797Y-95726074D01*
X118873947Y-95747309D01*
X118875000Y-95768750D01*
X118875000Y-96206250D01*
X118873947Y-96227691D01*
X118870797Y-96248926D01*
X118865581Y-96269750D01*
X118858349Y-96289962D01*
X118849170Y-96309368D01*
X118838134Y-96327781D01*
X118825346Y-96345024D01*
X118810930Y-96360930D01*
X118795024Y-96375346D01*
X118777781Y-96388134D01*
X118759368Y-96399170D01*
X118739962Y-96408349D01*
X118719750Y-96415581D01*
X118698926Y-96420797D01*
X118677691Y-96423947D01*
X118656250Y-96425000D01*
X118143750Y-96425000D01*
X118122309Y-96423947D01*
X118101074Y-96420797D01*
X118080250Y-96415581D01*
X118060038Y-96408349D01*
X118040632Y-96399170D01*
X118022219Y-96388134D01*
X118004976Y-96375346D01*
X117989070Y-96360930D01*
X117974654Y-96345024D01*
X117961866Y-96327781D01*
X117950830Y-96309368D01*
X117941651Y-96289962D01*
X117934419Y-96269750D01*
X117929203Y-96248926D01*
X117926053Y-96227691D01*
X117925000Y-96206250D01*
X117925000Y-95768750D01*
X117926053Y-95747309D01*
X117929203Y-95726074D01*
X117934419Y-95705250D01*
X117941651Y-95685038D01*
X117950830Y-95665632D01*
X117961866Y-95647219D01*
X117974654Y-95629976D01*
X117989070Y-95614070D01*
X118004976Y-95599654D01*
X118022219Y-95586866D01*
X118040632Y-95575830D01*
X118060038Y-95566651D01*
X118080250Y-95559419D01*
X118101074Y-95554203D01*
X118122309Y-95551053D01*
X118143750Y-95550000D01*
X118656250Y-95550000D01*
X118677691Y-95551053D01*
X118677691Y-95551053D01*
G37*
D13*
G04 #@! TD*
G04 #@! TO.P,C1,2*
G04 #@! TO.N,Earth*
X118400000Y-95987500D03*
D12*
G04 #@! TO.N,+3V3*
G04 #@! TO.C,C1*
G36*
X118677691Y-93976053D02*
X118698926Y-93979203D01*
X118719750Y-93984419D01*
X118739962Y-93991651D01*
X118759368Y-94000830D01*
X118777781Y-94011866D01*
X118795024Y-94024654D01*
X118810930Y-94039070D01*
X118825346Y-94054976D01*
X118838134Y-94072219D01*
X118849170Y-94090632D01*
X118858349Y-94110038D01*
X118865581Y-94130250D01*
X118870797Y-94151074D01*
X118873947Y-94172309D01*
X118875000Y-94193750D01*
X118875000Y-94631250D01*
X118873947Y-94652691D01*
X118870797Y-94673926D01*
X118865581Y-94694750D01*
X118858349Y-94714962D01*
X118849170Y-94734368D01*
X118838134Y-94752781D01*
X118825346Y-94770024D01*
X118810930Y-94785930D01*
X118795024Y-94800346D01*
X118777781Y-94813134D01*
X118759368Y-94824170D01*
X118739962Y-94833349D01*
X118719750Y-94840581D01*
X118698926Y-94845797D01*
X118677691Y-94848947D01*
X118656250Y-94850000D01*
X118143750Y-94850000D01*
X118122309Y-94848947D01*
X118101074Y-94845797D01*
X118080250Y-94840581D01*
X118060038Y-94833349D01*
X118040632Y-94824170D01*
X118022219Y-94813134D01*
X118004976Y-94800346D01*
X117989070Y-94785930D01*
X117974654Y-94770024D01*
X117961866Y-94752781D01*
X117950830Y-94734368D01*
X117941651Y-94714962D01*
X117934419Y-94694750D01*
X117929203Y-94673926D01*
X117926053Y-94652691D01*
X117925000Y-94631250D01*
X117925000Y-94193750D01*
X117926053Y-94172309D01*
X117929203Y-94151074D01*
X117934419Y-94130250D01*
X117941651Y-94110038D01*
X117950830Y-94090632D01*
X117961866Y-94072219D01*
X117974654Y-94054976D01*
X117989070Y-94039070D01*
X118004976Y-94024654D01*
X118022219Y-94011866D01*
X118040632Y-94000830D01*
X118060038Y-93991651D01*
X118080250Y-93984419D01*
X118101074Y-93979203D01*
X118122309Y-93976053D01*
X118143750Y-93975000D01*
X118656250Y-93975000D01*
X118677691Y-93976053D01*
X118677691Y-93976053D01*
G37*
D13*
G04 #@! TD*
G04 #@! TO.P,C1,1*
G04 #@! TO.N,+3V3*
X118400000Y-94412500D03*
D12*
G04 #@! TO.N,+3V3*
G04 #@! TO.C,C2*
G36*
X121624505Y-97226204D02*
X121648773Y-97229804D01*
X121672572Y-97235765D01*
X121695671Y-97244030D01*
X121717850Y-97254520D01*
X121738893Y-97267132D01*
X121758599Y-97281747D01*
X121776777Y-97298223D01*
X121793253Y-97316401D01*
X121807868Y-97336107D01*
X121820480Y-97357150D01*
X121830970Y-97379329D01*
X121839235Y-97402428D01*
X121845196Y-97426227D01*
X121848796Y-97450495D01*
X121850000Y-97474999D01*
X121850000Y-98325001D01*
X121848796Y-98349505D01*
X121845196Y-98373773D01*
X121839235Y-98397572D01*
X121830970Y-98420671D01*
X121820480Y-98442850D01*
X121807868Y-98463893D01*
X121793253Y-98483599D01*
X121776777Y-98501777D01*
X121758599Y-98518253D01*
X121738893Y-98532868D01*
X121717850Y-98545480D01*
X121695671Y-98555970D01*
X121672572Y-98564235D01*
X121648773Y-98570196D01*
X121624505Y-98573796D01*
X121600001Y-98575000D01*
X120699999Y-98575000D01*
X120675495Y-98573796D01*
X120651227Y-98570196D01*
X120627428Y-98564235D01*
X120604329Y-98555970D01*
X120582150Y-98545480D01*
X120561107Y-98532868D01*
X120541401Y-98518253D01*
X120523223Y-98501777D01*
X120506747Y-98483599D01*
X120492132Y-98463893D01*
X120479520Y-98442850D01*
X120469030Y-98420671D01*
X120460765Y-98397572D01*
X120454804Y-98373773D01*
X120451204Y-98349505D01*
X120450000Y-98325001D01*
X120450000Y-97474999D01*
X120451204Y-97450495D01*
X120454804Y-97426227D01*
X120460765Y-97402428D01*
X120469030Y-97379329D01*
X120479520Y-97357150D01*
X120492132Y-97336107D01*
X120506747Y-97316401D01*
X120523223Y-97298223D01*
X120541401Y-97281747D01*
X120561107Y-97267132D01*
X120582150Y-97254520D01*
X120604329Y-97244030D01*
X120627428Y-97235765D01*
X120651227Y-97229804D01*
X120675495Y-97226204D01*
X120699999Y-97225000D01*
X121600001Y-97225000D01*
X121624505Y-97226204D01*
X121624505Y-97226204D01*
G37*
D14*
G04 #@! TD*
G04 #@! TO.P,C2,1*
G04 #@! TO.N,+3V3*
X121150000Y-97900000D03*
D12*
G04 #@! TO.N,Earth*
G04 #@! TO.C,C2*
G36*
X118924505Y-97226204D02*
X118948773Y-97229804D01*
X118972572Y-97235765D01*
X118995671Y-97244030D01*
X119017850Y-97254520D01*
X119038893Y-97267132D01*
X119058599Y-97281747D01*
X119076777Y-97298223D01*
X119093253Y-97316401D01*
X119107868Y-97336107D01*
X119120480Y-97357150D01*
X119130970Y-97379329D01*
X119139235Y-97402428D01*
X119145196Y-97426227D01*
X119148796Y-97450495D01*
X119150000Y-97474999D01*
X119150000Y-98325001D01*
X119148796Y-98349505D01*
X119145196Y-98373773D01*
X119139235Y-98397572D01*
X119130970Y-98420671D01*
X119120480Y-98442850D01*
X119107868Y-98463893D01*
X119093253Y-98483599D01*
X119076777Y-98501777D01*
X119058599Y-98518253D01*
X119038893Y-98532868D01*
X119017850Y-98545480D01*
X118995671Y-98555970D01*
X118972572Y-98564235D01*
X118948773Y-98570196D01*
X118924505Y-98573796D01*
X118900001Y-98575000D01*
X117999999Y-98575000D01*
X117975495Y-98573796D01*
X117951227Y-98570196D01*
X117927428Y-98564235D01*
X117904329Y-98555970D01*
X117882150Y-98545480D01*
X117861107Y-98532868D01*
X117841401Y-98518253D01*
X117823223Y-98501777D01*
X117806747Y-98483599D01*
X117792132Y-98463893D01*
X117779520Y-98442850D01*
X117769030Y-98420671D01*
X117760765Y-98397572D01*
X117754804Y-98373773D01*
X117751204Y-98349505D01*
X117750000Y-98325001D01*
X117750000Y-97474999D01*
X117751204Y-97450495D01*
X117754804Y-97426227D01*
X117760765Y-97402428D01*
X117769030Y-97379329D01*
X117779520Y-97357150D01*
X117792132Y-97336107D01*
X117806747Y-97316401D01*
X117823223Y-97298223D01*
X117841401Y-97281747D01*
X117861107Y-97267132D01*
X117882150Y-97254520D01*
X117904329Y-97244030D01*
X117927428Y-97235765D01*
X117951227Y-97229804D01*
X117975495Y-97226204D01*
X117999999Y-97225000D01*
X118900001Y-97225000D01*
X118924505Y-97226204D01*
X118924505Y-97226204D01*
G37*
D14*
G04 #@! TD*
G04 #@! TO.P,C2,2*
G04 #@! TO.N,Earth*
X118450000Y-97900000D03*
D15*
G04 #@! TO.P,TX/RX/RST,2*
G04 #@! TO.N,RX*
X125700000Y-88100000D03*
G04 #@! TO.P,TX/RX/RST,1*
G04 #@! TO.N,TX*
X123900000Y-88100000D03*
G04 #@! TO.P,TX/RX/RST,3*
G04 #@! TO.N,RES*
X127500000Y-88100000D03*
G04 #@! TD*
G04 #@! TO.P,GND,2*
G04 #@! TO.N,Earth*
X118300000Y-88000000D03*
G04 #@! TO.P,GND,1*
G04 #@! TO.N,VCC*
X120100000Y-88000000D03*
G04 #@! TD*
D12*
G04 #@! TO.N,+3V3*
G04 #@! TO.C,R1*
G36*
X131227691Y-87326053D02*
X131248926Y-87329203D01*
X131269750Y-87334419D01*
X131289962Y-87341651D01*
X131309368Y-87350830D01*
X131327781Y-87361866D01*
X131345024Y-87374654D01*
X131360930Y-87389070D01*
X131375346Y-87404976D01*
X131388134Y-87422219D01*
X131399170Y-87440632D01*
X131408349Y-87460038D01*
X131415581Y-87480250D01*
X131420797Y-87501074D01*
X131423947Y-87522309D01*
X131425000Y-87543750D01*
X131425000Y-88056250D01*
X131423947Y-88077691D01*
X131420797Y-88098926D01*
X131415581Y-88119750D01*
X131408349Y-88139962D01*
X131399170Y-88159368D01*
X131388134Y-88177781D01*
X131375346Y-88195024D01*
X131360930Y-88210930D01*
X131345024Y-88225346D01*
X131327781Y-88238134D01*
X131309368Y-88249170D01*
X131289962Y-88258349D01*
X131269750Y-88265581D01*
X131248926Y-88270797D01*
X131227691Y-88273947D01*
X131206250Y-88275000D01*
X130768750Y-88275000D01*
X130747309Y-88273947D01*
X130726074Y-88270797D01*
X130705250Y-88265581D01*
X130685038Y-88258349D01*
X130665632Y-88249170D01*
X130647219Y-88238134D01*
X130629976Y-88225346D01*
X130614070Y-88210930D01*
X130599654Y-88195024D01*
X130586866Y-88177781D01*
X130575830Y-88159368D01*
X130566651Y-88139962D01*
X130559419Y-88119750D01*
X130554203Y-88098926D01*
X130551053Y-88077691D01*
X130550000Y-88056250D01*
X130550000Y-87543750D01*
X130551053Y-87522309D01*
X130554203Y-87501074D01*
X130559419Y-87480250D01*
X130566651Y-87460038D01*
X130575830Y-87440632D01*
X130586866Y-87422219D01*
X130599654Y-87404976D01*
X130614070Y-87389070D01*
X130629976Y-87374654D01*
X130647219Y-87361866D01*
X130665632Y-87350830D01*
X130685038Y-87341651D01*
X130705250Y-87334419D01*
X130726074Y-87329203D01*
X130747309Y-87326053D01*
X130768750Y-87325000D01*
X131206250Y-87325000D01*
X131227691Y-87326053D01*
X131227691Y-87326053D01*
G37*
D13*
G04 #@! TD*
G04 #@! TO.P,R1,1*
G04 #@! TO.N,+3V3*
X130987500Y-87800000D03*
D12*
G04 #@! TO.N,RES*
G04 #@! TO.C,R1*
G36*
X129652691Y-87326053D02*
X129673926Y-87329203D01*
X129694750Y-87334419D01*
X129714962Y-87341651D01*
X129734368Y-87350830D01*
X129752781Y-87361866D01*
X129770024Y-87374654D01*
X129785930Y-87389070D01*
X129800346Y-87404976D01*
X129813134Y-87422219D01*
X129824170Y-87440632D01*
X129833349Y-87460038D01*
X129840581Y-87480250D01*
X129845797Y-87501074D01*
X129848947Y-87522309D01*
X129850000Y-87543750D01*
X129850000Y-88056250D01*
X129848947Y-88077691D01*
X129845797Y-88098926D01*
X129840581Y-88119750D01*
X129833349Y-88139962D01*
X129824170Y-88159368D01*
X129813134Y-88177781D01*
X129800346Y-88195024D01*
X129785930Y-88210930D01*
X129770024Y-88225346D01*
X129752781Y-88238134D01*
X129734368Y-88249170D01*
X129714962Y-88258349D01*
X129694750Y-88265581D01*
X129673926Y-88270797D01*
X129652691Y-88273947D01*
X129631250Y-88275000D01*
X129193750Y-88275000D01*
X129172309Y-88273947D01*
X129151074Y-88270797D01*
X129130250Y-88265581D01*
X129110038Y-88258349D01*
X129090632Y-88249170D01*
X129072219Y-88238134D01*
X129054976Y-88225346D01*
X129039070Y-88210930D01*
X129024654Y-88195024D01*
X129011866Y-88177781D01*
X129000830Y-88159368D01*
X128991651Y-88139962D01*
X128984419Y-88119750D01*
X128979203Y-88098926D01*
X128976053Y-88077691D01*
X128975000Y-88056250D01*
X128975000Y-87543750D01*
X128976053Y-87522309D01*
X128979203Y-87501074D01*
X128984419Y-87480250D01*
X128991651Y-87460038D01*
X129000830Y-87440632D01*
X129011866Y-87422219D01*
X129024654Y-87404976D01*
X129039070Y-87389070D01*
X129054976Y-87374654D01*
X129072219Y-87361866D01*
X129090632Y-87350830D01*
X129110038Y-87341651D01*
X129130250Y-87334419D01*
X129151074Y-87329203D01*
X129172309Y-87326053D01*
X129193750Y-87325000D01*
X129631250Y-87325000D01*
X129652691Y-87326053D01*
X129652691Y-87326053D01*
G37*
D13*
G04 #@! TD*
G04 #@! TO.P,R1,2*
G04 #@! TO.N,RES*
X129412500Y-87800000D03*
D12*
G04 #@! TO.N,Earth*
G04 #@! TO.C,C3*
G36*
X118852691Y-89326053D02*
X118873926Y-89329203D01*
X118894750Y-89334419D01*
X118914962Y-89341651D01*
X118934368Y-89350830D01*
X118952781Y-89361866D01*
X118970024Y-89374654D01*
X118985930Y-89389070D01*
X119000346Y-89404976D01*
X119013134Y-89422219D01*
X119024170Y-89440632D01*
X119033349Y-89460038D01*
X119040581Y-89480250D01*
X119045797Y-89501074D01*
X119048947Y-89522309D01*
X119050000Y-89543750D01*
X119050000Y-90056250D01*
X119048947Y-90077691D01*
X119045797Y-90098926D01*
X119040581Y-90119750D01*
X119033349Y-90139962D01*
X119024170Y-90159368D01*
X119013134Y-90177781D01*
X119000346Y-90195024D01*
X118985930Y-90210930D01*
X118970024Y-90225346D01*
X118952781Y-90238134D01*
X118934368Y-90249170D01*
X118914962Y-90258349D01*
X118894750Y-90265581D01*
X118873926Y-90270797D01*
X118852691Y-90273947D01*
X118831250Y-90275000D01*
X118393750Y-90275000D01*
X118372309Y-90273947D01*
X118351074Y-90270797D01*
X118330250Y-90265581D01*
X118310038Y-90258349D01*
X118290632Y-90249170D01*
X118272219Y-90238134D01*
X118254976Y-90225346D01*
X118239070Y-90210930D01*
X118224654Y-90195024D01*
X118211866Y-90177781D01*
X118200830Y-90159368D01*
X118191651Y-90139962D01*
X118184419Y-90119750D01*
X118179203Y-90098926D01*
X118176053Y-90077691D01*
X118175000Y-90056250D01*
X118175000Y-89543750D01*
X118176053Y-89522309D01*
X118179203Y-89501074D01*
X118184419Y-89480250D01*
X118191651Y-89460038D01*
X118200830Y-89440632D01*
X118211866Y-89422219D01*
X118224654Y-89404976D01*
X118239070Y-89389070D01*
X118254976Y-89374654D01*
X118272219Y-89361866D01*
X118290632Y-89350830D01*
X118310038Y-89341651D01*
X118330250Y-89334419D01*
X118351074Y-89329203D01*
X118372309Y-89326053D01*
X118393750Y-89325000D01*
X118831250Y-89325000D01*
X118852691Y-89326053D01*
X118852691Y-89326053D01*
G37*
D13*
G04 #@! TD*
G04 #@! TO.P,C3,2*
G04 #@! TO.N,Earth*
X118612500Y-89800000D03*
D12*
G04 #@! TO.N,VCC*
G04 #@! TO.C,C3*
G36*
X120427691Y-89326053D02*
X120448926Y-89329203D01*
X120469750Y-89334419D01*
X120489962Y-89341651D01*
X120509368Y-89350830D01*
X120527781Y-89361866D01*
X120545024Y-89374654D01*
X120560930Y-89389070D01*
X120575346Y-89404976D01*
X120588134Y-89422219D01*
X120599170Y-89440632D01*
X120608349Y-89460038D01*
X120615581Y-89480250D01*
X120620797Y-89501074D01*
X120623947Y-89522309D01*
X120625000Y-89543750D01*
X120625000Y-90056250D01*
X120623947Y-90077691D01*
X120620797Y-90098926D01*
X120615581Y-90119750D01*
X120608349Y-90139962D01*
X120599170Y-90159368D01*
X120588134Y-90177781D01*
X120575346Y-90195024D01*
X120560930Y-90210930D01*
X120545024Y-90225346D01*
X120527781Y-90238134D01*
X120509368Y-90249170D01*
X120489962Y-90258349D01*
X120469750Y-90265581D01*
X120448926Y-90270797D01*
X120427691Y-90273947D01*
X120406250Y-90275000D01*
X119968750Y-90275000D01*
X119947309Y-90273947D01*
X119926074Y-90270797D01*
X119905250Y-90265581D01*
X119885038Y-90258349D01*
X119865632Y-90249170D01*
X119847219Y-90238134D01*
X119829976Y-90225346D01*
X119814070Y-90210930D01*
X119799654Y-90195024D01*
X119786866Y-90177781D01*
X119775830Y-90159368D01*
X119766651Y-90139962D01*
X119759419Y-90119750D01*
X119754203Y-90098926D01*
X119751053Y-90077691D01*
X119750000Y-90056250D01*
X119750000Y-89543750D01*
X119751053Y-89522309D01*
X119754203Y-89501074D01*
X119759419Y-89480250D01*
X119766651Y-89460038D01*
X119775830Y-89440632D01*
X119786866Y-89422219D01*
X119799654Y-89404976D01*
X119814070Y-89389070D01*
X119829976Y-89374654D01*
X119847219Y-89361866D01*
X119865632Y-89350830D01*
X119885038Y-89341651D01*
X119905250Y-89334419D01*
X119926074Y-89329203D01*
X119947309Y-89326053D01*
X119968750Y-89325000D01*
X120406250Y-89325000D01*
X120427691Y-89326053D01*
X120427691Y-89326053D01*
G37*
D13*
G04 #@! TD*
G04 #@! TO.P,C3,1*
G04 #@! TO.N,VCC*
X120187500Y-89800000D03*
D12*
G04 #@! TO.N,+3V3*
G04 #@! TO.C,C4*
G36*
X121627691Y-94626053D02*
X121648926Y-94629203D01*
X121669750Y-94634419D01*
X121689962Y-94641651D01*
X121709368Y-94650830D01*
X121727781Y-94661866D01*
X121745024Y-94674654D01*
X121760930Y-94689070D01*
X121775346Y-94704976D01*
X121788134Y-94722219D01*
X121799170Y-94740632D01*
X121808349Y-94760038D01*
X121815581Y-94780250D01*
X121820797Y-94801074D01*
X121823947Y-94822309D01*
X121825000Y-94843750D01*
X121825000Y-95356250D01*
X121823947Y-95377691D01*
X121820797Y-95398926D01*
X121815581Y-95419750D01*
X121808349Y-95439962D01*
X121799170Y-95459368D01*
X121788134Y-95477781D01*
X121775346Y-95495024D01*
X121760930Y-95510930D01*
X121745024Y-95525346D01*
X121727781Y-95538134D01*
X121709368Y-95549170D01*
X121689962Y-95558349D01*
X121669750Y-95565581D01*
X121648926Y-95570797D01*
X121627691Y-95573947D01*
X121606250Y-95575000D01*
X121168750Y-95575000D01*
X121147309Y-95573947D01*
X121126074Y-95570797D01*
X121105250Y-95565581D01*
X121085038Y-95558349D01*
X121065632Y-95549170D01*
X121047219Y-95538134D01*
X121029976Y-95525346D01*
X121014070Y-95510930D01*
X120999654Y-95495024D01*
X120986866Y-95477781D01*
X120975830Y-95459368D01*
X120966651Y-95439962D01*
X120959419Y-95419750D01*
X120954203Y-95398926D01*
X120951053Y-95377691D01*
X120950000Y-95356250D01*
X120950000Y-94843750D01*
X120951053Y-94822309D01*
X120954203Y-94801074D01*
X120959419Y-94780250D01*
X120966651Y-94760038D01*
X120975830Y-94740632D01*
X120986866Y-94722219D01*
X120999654Y-94704976D01*
X121014070Y-94689070D01*
X121029976Y-94674654D01*
X121047219Y-94661866D01*
X121065632Y-94650830D01*
X121085038Y-94641651D01*
X121105250Y-94634419D01*
X121126074Y-94629203D01*
X121147309Y-94626053D01*
X121168750Y-94625000D01*
X121606250Y-94625000D01*
X121627691Y-94626053D01*
X121627691Y-94626053D01*
G37*
D13*
G04 #@! TD*
G04 #@! TO.P,C4,1*
G04 #@! TO.N,+3V3*
X121387500Y-95100000D03*
D12*
G04 #@! TO.N,Earth*
G04 #@! TO.C,C4*
G36*
X120052691Y-94626053D02*
X120073926Y-94629203D01*
X120094750Y-94634419D01*
X120114962Y-94641651D01*
X120134368Y-94650830D01*
X120152781Y-94661866D01*
X120170024Y-94674654D01*
X120185930Y-94689070D01*
X120200346Y-94704976D01*
X120213134Y-94722219D01*
X120224170Y-94740632D01*
X120233349Y-94760038D01*
X120240581Y-94780250D01*
X120245797Y-94801074D01*
X120248947Y-94822309D01*
X120250000Y-94843750D01*
X120250000Y-95356250D01*
X120248947Y-95377691D01*
X120245797Y-95398926D01*
X120240581Y-95419750D01*
X120233349Y-95439962D01*
X120224170Y-95459368D01*
X120213134Y-95477781D01*
X120200346Y-95495024D01*
X120185930Y-95510930D01*
X120170024Y-95525346D01*
X120152781Y-95538134D01*
X120134368Y-95549170D01*
X120114962Y-95558349D01*
X120094750Y-95565581D01*
X120073926Y-95570797D01*
X120052691Y-95573947D01*
X120031250Y-95575000D01*
X119593750Y-95575000D01*
X119572309Y-95573947D01*
X119551074Y-95570797D01*
X119530250Y-95565581D01*
X119510038Y-95558349D01*
X119490632Y-95549170D01*
X119472219Y-95538134D01*
X119454976Y-95525346D01*
X119439070Y-95510930D01*
X119424654Y-95495024D01*
X119411866Y-95477781D01*
X119400830Y-95459368D01*
X119391651Y-95439962D01*
X119384419Y-95419750D01*
X119379203Y-95398926D01*
X119376053Y-95377691D01*
X119375000Y-95356250D01*
X119375000Y-94843750D01*
X119376053Y-94822309D01*
X119379203Y-94801074D01*
X119384419Y-94780250D01*
X119391651Y-94760038D01*
X119400830Y-94740632D01*
X119411866Y-94722219D01*
X119424654Y-94704976D01*
X119439070Y-94689070D01*
X119454976Y-94674654D01*
X119472219Y-94661866D01*
X119490632Y-94650830D01*
X119510038Y-94641651D01*
X119530250Y-94634419D01*
X119551074Y-94629203D01*
X119572309Y-94626053D01*
X119593750Y-94625000D01*
X120031250Y-94625000D01*
X120052691Y-94626053D01*
X120052691Y-94626053D01*
G37*
D13*
G04 #@! TD*
G04 #@! TO.P,C4,2*
G04 #@! TO.N,Earth*
X119812500Y-95100000D03*
D12*
G04 #@! TO.N,Earth*
G04 #@! TO.C,C5*
G36*
X134677691Y-95951053D02*
X134698926Y-95954203D01*
X134719750Y-95959419D01*
X134739962Y-95966651D01*
X134759368Y-95975830D01*
X134777781Y-95986866D01*
X134795024Y-95999654D01*
X134810930Y-96014070D01*
X134825346Y-96029976D01*
X134838134Y-96047219D01*
X134849170Y-96065632D01*
X134858349Y-96085038D01*
X134865581Y-96105250D01*
X134870797Y-96126074D01*
X134873947Y-96147309D01*
X134875000Y-96168750D01*
X134875000Y-96606250D01*
X134873947Y-96627691D01*
X134870797Y-96648926D01*
X134865581Y-96669750D01*
X134858349Y-96689962D01*
X134849170Y-96709368D01*
X134838134Y-96727781D01*
X134825346Y-96745024D01*
X134810930Y-96760930D01*
X134795024Y-96775346D01*
X134777781Y-96788134D01*
X134759368Y-96799170D01*
X134739962Y-96808349D01*
X134719750Y-96815581D01*
X134698926Y-96820797D01*
X134677691Y-96823947D01*
X134656250Y-96825000D01*
X134143750Y-96825000D01*
X134122309Y-96823947D01*
X134101074Y-96820797D01*
X134080250Y-96815581D01*
X134060038Y-96808349D01*
X134040632Y-96799170D01*
X134022219Y-96788134D01*
X134004976Y-96775346D01*
X133989070Y-96760930D01*
X133974654Y-96745024D01*
X133961866Y-96727781D01*
X133950830Y-96709368D01*
X133941651Y-96689962D01*
X133934419Y-96669750D01*
X133929203Y-96648926D01*
X133926053Y-96627691D01*
X133925000Y-96606250D01*
X133925000Y-96168750D01*
X133926053Y-96147309D01*
X133929203Y-96126074D01*
X133934419Y-96105250D01*
X133941651Y-96085038D01*
X133950830Y-96065632D01*
X133961866Y-96047219D01*
X133974654Y-96029976D01*
X133989070Y-96014070D01*
X134004976Y-95999654D01*
X134022219Y-95986866D01*
X134040632Y-95975830D01*
X134060038Y-95966651D01*
X134080250Y-95959419D01*
X134101074Y-95954203D01*
X134122309Y-95951053D01*
X134143750Y-95950000D01*
X134656250Y-95950000D01*
X134677691Y-95951053D01*
X134677691Y-95951053D01*
G37*
D13*
G04 #@! TD*
G04 #@! TO.P,C5,2*
G04 #@! TO.N,Earth*
X134400000Y-96387500D03*
D12*
G04 #@! TO.N,+3V3*
G04 #@! TO.C,C5*
G36*
X134677691Y-94376053D02*
X134698926Y-94379203D01*
X134719750Y-94384419D01*
X134739962Y-94391651D01*
X134759368Y-94400830D01*
X134777781Y-94411866D01*
X134795024Y-94424654D01*
X134810930Y-94439070D01*
X134825346Y-94454976D01*
X134838134Y-94472219D01*
X134849170Y-94490632D01*
X134858349Y-94510038D01*
X134865581Y-94530250D01*
X134870797Y-94551074D01*
X134873947Y-94572309D01*
X134875000Y-94593750D01*
X134875000Y-95031250D01*
X134873947Y-95052691D01*
X134870797Y-95073926D01*
X134865581Y-95094750D01*
X134858349Y-95114962D01*
X134849170Y-95134368D01*
X134838134Y-95152781D01*
X134825346Y-95170024D01*
X134810930Y-95185930D01*
X134795024Y-95200346D01*
X134777781Y-95213134D01*
X134759368Y-95224170D01*
X134739962Y-95233349D01*
X134719750Y-95240581D01*
X134698926Y-95245797D01*
X134677691Y-95248947D01*
X134656250Y-95250000D01*
X134143750Y-95250000D01*
X134122309Y-95248947D01*
X134101074Y-95245797D01*
X134080250Y-95240581D01*
X134060038Y-95233349D01*
X134040632Y-95224170D01*
X134022219Y-95213134D01*
X134004976Y-95200346D01*
X133989070Y-95185930D01*
X133974654Y-95170024D01*
X133961866Y-95152781D01*
X133950830Y-95134368D01*
X133941651Y-95114962D01*
X133934419Y-95094750D01*
X133929203Y-95073926D01*
X133926053Y-95052691D01*
X133925000Y-95031250D01*
X133925000Y-94593750D01*
X133926053Y-94572309D01*
X133929203Y-94551074D01*
X133934419Y-94530250D01*
X133941651Y-94510038D01*
X133950830Y-94490632D01*
X133961866Y-94472219D01*
X133974654Y-94454976D01*
X133989070Y-94439070D01*
X134004976Y-94424654D01*
X134022219Y-94411866D01*
X134040632Y-94400830D01*
X134060038Y-94391651D01*
X134080250Y-94384419D01*
X134101074Y-94379203D01*
X134122309Y-94376053D01*
X134143750Y-94375000D01*
X134656250Y-94375000D01*
X134677691Y-94376053D01*
X134677691Y-94376053D01*
G37*
D13*
G04 #@! TD*
G04 #@! TO.P,C5,1*
G04 #@! TO.N,+3V3*
X134400000Y-94812500D03*
D12*
G04 #@! TO.N,+3V3*
G04 #@! TO.C,C6*
G36*
X134527691Y-87926053D02*
X134548926Y-87929203D01*
X134569750Y-87934419D01*
X134589962Y-87941651D01*
X134609368Y-87950830D01*
X134627781Y-87961866D01*
X134645024Y-87974654D01*
X134660930Y-87989070D01*
X134675346Y-88004976D01*
X134688134Y-88022219D01*
X134699170Y-88040632D01*
X134708349Y-88060038D01*
X134715581Y-88080250D01*
X134720797Y-88101074D01*
X134723947Y-88122309D01*
X134725000Y-88143750D01*
X134725000Y-88656250D01*
X134723947Y-88677691D01*
X134720797Y-88698926D01*
X134715581Y-88719750D01*
X134708349Y-88739962D01*
X134699170Y-88759368D01*
X134688134Y-88777781D01*
X134675346Y-88795024D01*
X134660930Y-88810930D01*
X134645024Y-88825346D01*
X134627781Y-88838134D01*
X134609368Y-88849170D01*
X134589962Y-88858349D01*
X134569750Y-88865581D01*
X134548926Y-88870797D01*
X134527691Y-88873947D01*
X134506250Y-88875000D01*
X134068750Y-88875000D01*
X134047309Y-88873947D01*
X134026074Y-88870797D01*
X134005250Y-88865581D01*
X133985038Y-88858349D01*
X133965632Y-88849170D01*
X133947219Y-88838134D01*
X133929976Y-88825346D01*
X133914070Y-88810930D01*
X133899654Y-88795024D01*
X133886866Y-88777781D01*
X133875830Y-88759368D01*
X133866651Y-88739962D01*
X133859419Y-88719750D01*
X133854203Y-88698926D01*
X133851053Y-88677691D01*
X133850000Y-88656250D01*
X133850000Y-88143750D01*
X133851053Y-88122309D01*
X133854203Y-88101074D01*
X133859419Y-88080250D01*
X133866651Y-88060038D01*
X133875830Y-88040632D01*
X133886866Y-88022219D01*
X133899654Y-88004976D01*
X133914070Y-87989070D01*
X133929976Y-87974654D01*
X133947219Y-87961866D01*
X133965632Y-87950830D01*
X133985038Y-87941651D01*
X134005250Y-87934419D01*
X134026074Y-87929203D01*
X134047309Y-87926053D01*
X134068750Y-87925000D01*
X134506250Y-87925000D01*
X134527691Y-87926053D01*
X134527691Y-87926053D01*
G37*
D13*
G04 #@! TD*
G04 #@! TO.P,C6,1*
G04 #@! TO.N,+3V3*
X134287500Y-88400000D03*
D12*
G04 #@! TO.N,Earth*
G04 #@! TO.C,C6*
G36*
X132952691Y-87926053D02*
X132973926Y-87929203D01*
X132994750Y-87934419D01*
X133014962Y-87941651D01*
X133034368Y-87950830D01*
X133052781Y-87961866D01*
X133070024Y-87974654D01*
X133085930Y-87989070D01*
X133100346Y-88004976D01*
X133113134Y-88022219D01*
X133124170Y-88040632D01*
X133133349Y-88060038D01*
X133140581Y-88080250D01*
X133145797Y-88101074D01*
X133148947Y-88122309D01*
X133150000Y-88143750D01*
X133150000Y-88656250D01*
X133148947Y-88677691D01*
X133145797Y-88698926D01*
X133140581Y-88719750D01*
X133133349Y-88739962D01*
X133124170Y-88759368D01*
X133113134Y-88777781D01*
X133100346Y-88795024D01*
X133085930Y-88810930D01*
X133070024Y-88825346D01*
X133052781Y-88838134D01*
X133034368Y-88849170D01*
X133014962Y-88858349D01*
X132994750Y-88865581D01*
X132973926Y-88870797D01*
X132952691Y-88873947D01*
X132931250Y-88875000D01*
X132493750Y-88875000D01*
X132472309Y-88873947D01*
X132451074Y-88870797D01*
X132430250Y-88865581D01*
X132410038Y-88858349D01*
X132390632Y-88849170D01*
X132372219Y-88838134D01*
X132354976Y-88825346D01*
X132339070Y-88810930D01*
X132324654Y-88795024D01*
X132311866Y-88777781D01*
X132300830Y-88759368D01*
X132291651Y-88739962D01*
X132284419Y-88719750D01*
X132279203Y-88698926D01*
X132276053Y-88677691D01*
X132275000Y-88656250D01*
X132275000Y-88143750D01*
X132276053Y-88122309D01*
X132279203Y-88101074D01*
X132284419Y-88080250D01*
X132291651Y-88060038D01*
X132300830Y-88040632D01*
X132311866Y-88022219D01*
X132324654Y-88004976D01*
X132339070Y-87989070D01*
X132354976Y-87974654D01*
X132372219Y-87961866D01*
X132390632Y-87950830D01*
X132410038Y-87941651D01*
X132430250Y-87934419D01*
X132451074Y-87929203D01*
X132472309Y-87926053D01*
X132493750Y-87925000D01*
X132931250Y-87925000D01*
X132952691Y-87926053D01*
X132952691Y-87926053D01*
G37*
D13*
G04 #@! TD*
G04 #@! TO.P,C6,2*
G04 #@! TO.N,Earth*
X132712500Y-88400000D03*
D12*
G04 #@! TO.N,Net-(C7-Pad1)*
G04 #@! TO.C,C7*
G36*
X133052691Y-97226053D02*
X133073926Y-97229203D01*
X133094750Y-97234419D01*
X133114962Y-97241651D01*
X133134368Y-97250830D01*
X133152781Y-97261866D01*
X133170024Y-97274654D01*
X133185930Y-97289070D01*
X133200346Y-97304976D01*
X133213134Y-97322219D01*
X133224170Y-97340632D01*
X133233349Y-97360038D01*
X133240581Y-97380250D01*
X133245797Y-97401074D01*
X133248947Y-97422309D01*
X133250000Y-97443750D01*
X133250000Y-97956250D01*
X133248947Y-97977691D01*
X133245797Y-97998926D01*
X133240581Y-98019750D01*
X133233349Y-98039962D01*
X133224170Y-98059368D01*
X133213134Y-98077781D01*
X133200346Y-98095024D01*
X133185930Y-98110930D01*
X133170024Y-98125346D01*
X133152781Y-98138134D01*
X133134368Y-98149170D01*
X133114962Y-98158349D01*
X133094750Y-98165581D01*
X133073926Y-98170797D01*
X133052691Y-98173947D01*
X133031250Y-98175000D01*
X132593750Y-98175000D01*
X132572309Y-98173947D01*
X132551074Y-98170797D01*
X132530250Y-98165581D01*
X132510038Y-98158349D01*
X132490632Y-98149170D01*
X132472219Y-98138134D01*
X132454976Y-98125346D01*
X132439070Y-98110930D01*
X132424654Y-98095024D01*
X132411866Y-98077781D01*
X132400830Y-98059368D01*
X132391651Y-98039962D01*
X132384419Y-98019750D01*
X132379203Y-97998926D01*
X132376053Y-97977691D01*
X132375000Y-97956250D01*
X132375000Y-97443750D01*
X132376053Y-97422309D01*
X132379203Y-97401074D01*
X132384419Y-97380250D01*
X132391651Y-97360038D01*
X132400830Y-97340632D01*
X132411866Y-97322219D01*
X132424654Y-97304976D01*
X132439070Y-97289070D01*
X132454976Y-97274654D01*
X132472219Y-97261866D01*
X132490632Y-97250830D01*
X132510038Y-97241651D01*
X132530250Y-97234419D01*
X132551074Y-97229203D01*
X132572309Y-97226053D01*
X132593750Y-97225000D01*
X133031250Y-97225000D01*
X133052691Y-97226053D01*
X133052691Y-97226053D01*
G37*
D13*
G04 #@! TD*
G04 #@! TO.P,C7,1*
G04 #@! TO.N,Net-(C7-Pad1)*
X132812500Y-97700000D03*
D12*
G04 #@! TO.N,Earth*
G04 #@! TO.C,C7*
G36*
X134627691Y-97226053D02*
X134648926Y-97229203D01*
X134669750Y-97234419D01*
X134689962Y-97241651D01*
X134709368Y-97250830D01*
X134727781Y-97261866D01*
X134745024Y-97274654D01*
X134760930Y-97289070D01*
X134775346Y-97304976D01*
X134788134Y-97322219D01*
X134799170Y-97340632D01*
X134808349Y-97360038D01*
X134815581Y-97380250D01*
X134820797Y-97401074D01*
X134823947Y-97422309D01*
X134825000Y-97443750D01*
X134825000Y-97956250D01*
X134823947Y-97977691D01*
X134820797Y-97998926D01*
X134815581Y-98019750D01*
X134808349Y-98039962D01*
X134799170Y-98059368D01*
X134788134Y-98077781D01*
X134775346Y-98095024D01*
X134760930Y-98110930D01*
X134745024Y-98125346D01*
X134727781Y-98138134D01*
X134709368Y-98149170D01*
X134689962Y-98158349D01*
X134669750Y-98165581D01*
X134648926Y-98170797D01*
X134627691Y-98173947D01*
X134606250Y-98175000D01*
X134168750Y-98175000D01*
X134147309Y-98173947D01*
X134126074Y-98170797D01*
X134105250Y-98165581D01*
X134085038Y-98158349D01*
X134065632Y-98149170D01*
X134047219Y-98138134D01*
X134029976Y-98125346D01*
X134014070Y-98110930D01*
X133999654Y-98095024D01*
X133986866Y-98077781D01*
X133975830Y-98059368D01*
X133966651Y-98039962D01*
X133959419Y-98019750D01*
X133954203Y-97998926D01*
X133951053Y-97977691D01*
X133950000Y-97956250D01*
X133950000Y-97443750D01*
X133951053Y-97422309D01*
X133954203Y-97401074D01*
X133959419Y-97380250D01*
X133966651Y-97360038D01*
X133975830Y-97340632D01*
X133986866Y-97322219D01*
X133999654Y-97304976D01*
X134014070Y-97289070D01*
X134029976Y-97274654D01*
X134047219Y-97261866D01*
X134065632Y-97250830D01*
X134085038Y-97241651D01*
X134105250Y-97234419D01*
X134126074Y-97229203D01*
X134147309Y-97226053D01*
X134168750Y-97225000D01*
X134606250Y-97225000D01*
X134627691Y-97226053D01*
X134627691Y-97226053D01*
G37*
D13*
G04 #@! TD*
G04 #@! TO.P,C7,2*
G04 #@! TO.N,Earth*
X134387500Y-97700000D03*
D16*
G04 #@! TO.P,IC1,1*
G04 #@! TO.N,VCC*
X118500000Y-91750000D03*
G04 #@! TO.P,IC1,2*
G04 #@! TO.N,+3V3*
X118500000Y-92400000D03*
G04 #@! TO.P,IC1,3*
G04 #@! TO.N,Earth*
X118500000Y-93050000D03*
G04 #@! TO.P,IC1,6*
G04 #@! TO.N,VCC*
X120700000Y-91750000D03*
G04 #@! TO.P,IC1,5*
G04 #@! TO.N,Net-(IC1-Pad5)*
X120700000Y-92400000D03*
G04 #@! TO.P,IC1,4*
G04 #@! TO.N,+3V3*
X120700000Y-93050000D03*
G04 #@! TD*
D12*
G04 #@! TO.N,VCC*
G04 #@! TO.C,L1*
G36*
X122277691Y-87376053D02*
X122298926Y-87379203D01*
X122319750Y-87384419D01*
X122339962Y-87391651D01*
X122359368Y-87400830D01*
X122377781Y-87411866D01*
X122395024Y-87424654D01*
X122410930Y-87439070D01*
X122425346Y-87454976D01*
X122438134Y-87472219D01*
X122449170Y-87490632D01*
X122458349Y-87510038D01*
X122465581Y-87530250D01*
X122470797Y-87551074D01*
X122473947Y-87572309D01*
X122475000Y-87593750D01*
X122475000Y-88031250D01*
X122473947Y-88052691D01*
X122470797Y-88073926D01*
X122465581Y-88094750D01*
X122458349Y-88114962D01*
X122449170Y-88134368D01*
X122438134Y-88152781D01*
X122425346Y-88170024D01*
X122410930Y-88185930D01*
X122395024Y-88200346D01*
X122377781Y-88213134D01*
X122359368Y-88224170D01*
X122339962Y-88233349D01*
X122319750Y-88240581D01*
X122298926Y-88245797D01*
X122277691Y-88248947D01*
X122256250Y-88250000D01*
X121743750Y-88250000D01*
X121722309Y-88248947D01*
X121701074Y-88245797D01*
X121680250Y-88240581D01*
X121660038Y-88233349D01*
X121640632Y-88224170D01*
X121622219Y-88213134D01*
X121604976Y-88200346D01*
X121589070Y-88185930D01*
X121574654Y-88170024D01*
X121561866Y-88152781D01*
X121550830Y-88134368D01*
X121541651Y-88114962D01*
X121534419Y-88094750D01*
X121529203Y-88073926D01*
X121526053Y-88052691D01*
X121525000Y-88031250D01*
X121525000Y-87593750D01*
X121526053Y-87572309D01*
X121529203Y-87551074D01*
X121534419Y-87530250D01*
X121541651Y-87510038D01*
X121550830Y-87490632D01*
X121561866Y-87472219D01*
X121574654Y-87454976D01*
X121589070Y-87439070D01*
X121604976Y-87424654D01*
X121622219Y-87411866D01*
X121640632Y-87400830D01*
X121660038Y-87391651D01*
X121680250Y-87384419D01*
X121701074Y-87379203D01*
X121722309Y-87376053D01*
X121743750Y-87375000D01*
X122256250Y-87375000D01*
X122277691Y-87376053D01*
X122277691Y-87376053D01*
G37*
D13*
G04 #@! TD*
G04 #@! TO.P,L1,1*
G04 #@! TO.N,VCC*
X122000000Y-87812500D03*
D12*
G04 #@! TO.N,Net-(IC1-Pad5)*
G04 #@! TO.C,L1*
G36*
X122277691Y-88951053D02*
X122298926Y-88954203D01*
X122319750Y-88959419D01*
X122339962Y-88966651D01*
X122359368Y-88975830D01*
X122377781Y-88986866D01*
X122395024Y-88999654D01*
X122410930Y-89014070D01*
X122425346Y-89029976D01*
X122438134Y-89047219D01*
X122449170Y-89065632D01*
X122458349Y-89085038D01*
X122465581Y-89105250D01*
X122470797Y-89126074D01*
X122473947Y-89147309D01*
X122475000Y-89168750D01*
X122475000Y-89606250D01*
X122473947Y-89627691D01*
X122470797Y-89648926D01*
X122465581Y-89669750D01*
X122458349Y-89689962D01*
X122449170Y-89709368D01*
X122438134Y-89727781D01*
X122425346Y-89745024D01*
X122410930Y-89760930D01*
X122395024Y-89775346D01*
X122377781Y-89788134D01*
X122359368Y-89799170D01*
X122339962Y-89808349D01*
X122319750Y-89815581D01*
X122298926Y-89820797D01*
X122277691Y-89823947D01*
X122256250Y-89825000D01*
X121743750Y-89825000D01*
X121722309Y-89823947D01*
X121701074Y-89820797D01*
X121680250Y-89815581D01*
X121660038Y-89808349D01*
X121640632Y-89799170D01*
X121622219Y-89788134D01*
X121604976Y-89775346D01*
X121589070Y-89760930D01*
X121574654Y-89745024D01*
X121561866Y-89727781D01*
X121550830Y-89709368D01*
X121541651Y-89689962D01*
X121534419Y-89669750D01*
X121529203Y-89648926D01*
X121526053Y-89627691D01*
X121525000Y-89606250D01*
X121525000Y-89168750D01*
X121526053Y-89147309D01*
X121529203Y-89126074D01*
X121534419Y-89105250D01*
X121541651Y-89085038D01*
X121550830Y-89065632D01*
X121561866Y-89047219D01*
X121574654Y-89029976D01*
X121589070Y-89014070D01*
X121604976Y-88999654D01*
X121622219Y-88986866D01*
X121640632Y-88975830D01*
X121660038Y-88966651D01*
X121680250Y-88959419D01*
X121701074Y-88954203D01*
X121722309Y-88951053D01*
X121743750Y-88950000D01*
X122256250Y-88950000D01*
X122277691Y-88951053D01*
X122277691Y-88951053D01*
G37*
D13*
G04 #@! TD*
G04 #@! TO.P,L1,2*
G04 #@! TO.N,Net-(IC1-Pad5)*
X122000000Y-89387500D03*
D12*
G04 #@! TO.N,Earth*
G04 #@! TO.C,U1*
G36*
X126924505Y-91651204D02*
X126948773Y-91654804D01*
X126972572Y-91660765D01*
X126995671Y-91669030D01*
X127017850Y-91679520D01*
X127038893Y-91692132D01*
X127058599Y-91706747D01*
X127076777Y-91723223D01*
X127093253Y-91741401D01*
X127107868Y-91761107D01*
X127120480Y-91782150D01*
X127130970Y-91804329D01*
X127139235Y-91827428D01*
X127145196Y-91851227D01*
X127148796Y-91875495D01*
X127150000Y-91899999D01*
X127150000Y-94500001D01*
X127148796Y-94524505D01*
X127145196Y-94548773D01*
X127139235Y-94572572D01*
X127130970Y-94595671D01*
X127120480Y-94617850D01*
X127107868Y-94638893D01*
X127093253Y-94658599D01*
X127076777Y-94676777D01*
X127058599Y-94693253D01*
X127038893Y-94707868D01*
X127017850Y-94720480D01*
X126995671Y-94730970D01*
X126972572Y-94739235D01*
X126948773Y-94745196D01*
X126924505Y-94748796D01*
X126900001Y-94750000D01*
X124299999Y-94750000D01*
X124275495Y-94748796D01*
X124251227Y-94745196D01*
X124227428Y-94739235D01*
X124204329Y-94730970D01*
X124182150Y-94720480D01*
X124161107Y-94707868D01*
X124141401Y-94693253D01*
X124123223Y-94676777D01*
X124106747Y-94658599D01*
X124092132Y-94638893D01*
X124079520Y-94617850D01*
X124069030Y-94595671D01*
X124060765Y-94572572D01*
X124054804Y-94548773D01*
X124051204Y-94524505D01*
X124050000Y-94500001D01*
X124050000Y-91899999D01*
X124051204Y-91875495D01*
X124054804Y-91851227D01*
X124060765Y-91827428D01*
X124069030Y-91804329D01*
X124079520Y-91782150D01*
X124092132Y-91761107D01*
X124106747Y-91741401D01*
X124123223Y-91723223D01*
X124141401Y-91706747D01*
X124161107Y-91692132D01*
X124182150Y-91679520D01*
X124204329Y-91669030D01*
X124227428Y-91660765D01*
X124251227Y-91654804D01*
X124275495Y-91651204D01*
X124299999Y-91650000D01*
X126900001Y-91650000D01*
X126924505Y-91651204D01*
X126924505Y-91651204D01*
G37*
D17*
G04 #@! TD*
G04 #@! TO.P,U1,33*
G04 #@! TO.N,Earth*
X125600000Y-93200000D03*
D12*
G04 #@! TO.N,N/C*
G04 #@! TO.C,U1*
G36*
X123543626Y-91325301D02*
X123549693Y-91326201D01*
X123555643Y-91327691D01*
X123561418Y-91329758D01*
X123566962Y-91332380D01*
X123572223Y-91335533D01*
X123577150Y-91339187D01*
X123581694Y-91343306D01*
X123585813Y-91347850D01*
X123589467Y-91352777D01*
X123592620Y-91358038D01*
X123595242Y-91363582D01*
X123597309Y-91369357D01*
X123598799Y-91375307D01*
X123599699Y-91381374D01*
X123600000Y-91387500D01*
X123600000Y-91512500D01*
X123599699Y-91518626D01*
X123598799Y-91524693D01*
X123597309Y-91530643D01*
X123595242Y-91536418D01*
X123592620Y-91541962D01*
X123589467Y-91547223D01*
X123585813Y-91552150D01*
X123581694Y-91556694D01*
X123577150Y-91560813D01*
X123572223Y-91564467D01*
X123566962Y-91567620D01*
X123561418Y-91570242D01*
X123555643Y-91572309D01*
X123549693Y-91573799D01*
X123543626Y-91574699D01*
X123537500Y-91575000D01*
X122787500Y-91575000D01*
X122781374Y-91574699D01*
X122775307Y-91573799D01*
X122769357Y-91572309D01*
X122763582Y-91570242D01*
X122758038Y-91567620D01*
X122752777Y-91564467D01*
X122747850Y-91560813D01*
X122743306Y-91556694D01*
X122739187Y-91552150D01*
X122735533Y-91547223D01*
X122732380Y-91541962D01*
X122729758Y-91536418D01*
X122727691Y-91530643D01*
X122726201Y-91524693D01*
X122725301Y-91518626D01*
X122725000Y-91512500D01*
X122725000Y-91387500D01*
X122725301Y-91381374D01*
X122726201Y-91375307D01*
X122727691Y-91369357D01*
X122729758Y-91363582D01*
X122732380Y-91358038D01*
X122735533Y-91352777D01*
X122739187Y-91347850D01*
X122743306Y-91343306D01*
X122747850Y-91339187D01*
X122752777Y-91335533D01*
X122758038Y-91332380D01*
X122763582Y-91329758D01*
X122769357Y-91327691D01*
X122775307Y-91326201D01*
X122781374Y-91325301D01*
X122787500Y-91325000D01*
X123537500Y-91325000D01*
X123543626Y-91325301D01*
X123543626Y-91325301D01*
G37*
D18*
G04 #@! TD*
G04 #@! TO.P,U1,1*
G04 #@! TO.N,N/C*
X123162500Y-91450000D03*
D12*
G04 #@! TO.N,N/C*
G04 #@! TO.C,U1*
G36*
X123543626Y-91825301D02*
X123549693Y-91826201D01*
X123555643Y-91827691D01*
X123561418Y-91829758D01*
X123566962Y-91832380D01*
X123572223Y-91835533D01*
X123577150Y-91839187D01*
X123581694Y-91843306D01*
X123585813Y-91847850D01*
X123589467Y-91852777D01*
X123592620Y-91858038D01*
X123595242Y-91863582D01*
X123597309Y-91869357D01*
X123598799Y-91875307D01*
X123599699Y-91881374D01*
X123600000Y-91887500D01*
X123600000Y-92012500D01*
X123599699Y-92018626D01*
X123598799Y-92024693D01*
X123597309Y-92030643D01*
X123595242Y-92036418D01*
X123592620Y-92041962D01*
X123589467Y-92047223D01*
X123585813Y-92052150D01*
X123581694Y-92056694D01*
X123577150Y-92060813D01*
X123572223Y-92064467D01*
X123566962Y-92067620D01*
X123561418Y-92070242D01*
X123555643Y-92072309D01*
X123549693Y-92073799D01*
X123543626Y-92074699D01*
X123537500Y-92075000D01*
X122787500Y-92075000D01*
X122781374Y-92074699D01*
X122775307Y-92073799D01*
X122769357Y-92072309D01*
X122763582Y-92070242D01*
X122758038Y-92067620D01*
X122752777Y-92064467D01*
X122747850Y-92060813D01*
X122743306Y-92056694D01*
X122739187Y-92052150D01*
X122735533Y-92047223D01*
X122732380Y-92041962D01*
X122729758Y-92036418D01*
X122727691Y-92030643D01*
X122726201Y-92024693D01*
X122725301Y-92018626D01*
X122725000Y-92012500D01*
X122725000Y-91887500D01*
X122725301Y-91881374D01*
X122726201Y-91875307D01*
X122727691Y-91869357D01*
X122729758Y-91863582D01*
X122732380Y-91858038D01*
X122735533Y-91852777D01*
X122739187Y-91847850D01*
X122743306Y-91843306D01*
X122747850Y-91839187D01*
X122752777Y-91835533D01*
X122758038Y-91832380D01*
X122763582Y-91829758D01*
X122769357Y-91827691D01*
X122775307Y-91826201D01*
X122781374Y-91825301D01*
X122787500Y-91825000D01*
X123537500Y-91825000D01*
X123543626Y-91825301D01*
X123543626Y-91825301D01*
G37*
D18*
G04 #@! TD*
G04 #@! TO.P,U1,2*
G04 #@! TO.N,N/C*
X123162500Y-91950000D03*
D12*
G04 #@! TO.N,Earth*
G04 #@! TO.C,U1*
G36*
X123543626Y-92325301D02*
X123549693Y-92326201D01*
X123555643Y-92327691D01*
X123561418Y-92329758D01*
X123566962Y-92332380D01*
X123572223Y-92335533D01*
X123577150Y-92339187D01*
X123581694Y-92343306D01*
X123585813Y-92347850D01*
X123589467Y-92352777D01*
X123592620Y-92358038D01*
X123595242Y-92363582D01*
X123597309Y-92369357D01*
X123598799Y-92375307D01*
X123599699Y-92381374D01*
X123600000Y-92387500D01*
X123600000Y-92512500D01*
X123599699Y-92518626D01*
X123598799Y-92524693D01*
X123597309Y-92530643D01*
X123595242Y-92536418D01*
X123592620Y-92541962D01*
X123589467Y-92547223D01*
X123585813Y-92552150D01*
X123581694Y-92556694D01*
X123577150Y-92560813D01*
X123572223Y-92564467D01*
X123566962Y-92567620D01*
X123561418Y-92570242D01*
X123555643Y-92572309D01*
X123549693Y-92573799D01*
X123543626Y-92574699D01*
X123537500Y-92575000D01*
X122787500Y-92575000D01*
X122781374Y-92574699D01*
X122775307Y-92573799D01*
X122769357Y-92572309D01*
X122763582Y-92570242D01*
X122758038Y-92567620D01*
X122752777Y-92564467D01*
X122747850Y-92560813D01*
X122743306Y-92556694D01*
X122739187Y-92552150D01*
X122735533Y-92547223D01*
X122732380Y-92541962D01*
X122729758Y-92536418D01*
X122727691Y-92530643D01*
X122726201Y-92524693D01*
X122725301Y-92518626D01*
X122725000Y-92512500D01*
X122725000Y-92387500D01*
X122725301Y-92381374D01*
X122726201Y-92375307D01*
X122727691Y-92369357D01*
X122729758Y-92363582D01*
X122732380Y-92358038D01*
X122735533Y-92352777D01*
X122739187Y-92347850D01*
X122743306Y-92343306D01*
X122747850Y-92339187D01*
X122752777Y-92335533D01*
X122758038Y-92332380D01*
X122763582Y-92329758D01*
X122769357Y-92327691D01*
X122775307Y-92326201D01*
X122781374Y-92325301D01*
X122787500Y-92325000D01*
X123537500Y-92325000D01*
X123543626Y-92325301D01*
X123543626Y-92325301D01*
G37*
D18*
G04 #@! TD*
G04 #@! TO.P,U1,3*
G04 #@! TO.N,Earth*
X123162500Y-92450000D03*
D12*
G04 #@! TO.N,+3V3*
G04 #@! TO.C,U1*
G36*
X123543626Y-92825301D02*
X123549693Y-92826201D01*
X123555643Y-92827691D01*
X123561418Y-92829758D01*
X123566962Y-92832380D01*
X123572223Y-92835533D01*
X123577150Y-92839187D01*
X123581694Y-92843306D01*
X123585813Y-92847850D01*
X123589467Y-92852777D01*
X123592620Y-92858038D01*
X123595242Y-92863582D01*
X123597309Y-92869357D01*
X123598799Y-92875307D01*
X123599699Y-92881374D01*
X123600000Y-92887500D01*
X123600000Y-93012500D01*
X123599699Y-93018626D01*
X123598799Y-93024693D01*
X123597309Y-93030643D01*
X123595242Y-93036418D01*
X123592620Y-93041962D01*
X123589467Y-93047223D01*
X123585813Y-93052150D01*
X123581694Y-93056694D01*
X123577150Y-93060813D01*
X123572223Y-93064467D01*
X123566962Y-93067620D01*
X123561418Y-93070242D01*
X123555643Y-93072309D01*
X123549693Y-93073799D01*
X123543626Y-93074699D01*
X123537500Y-93075000D01*
X122787500Y-93075000D01*
X122781374Y-93074699D01*
X122775307Y-93073799D01*
X122769357Y-93072309D01*
X122763582Y-93070242D01*
X122758038Y-93067620D01*
X122752777Y-93064467D01*
X122747850Y-93060813D01*
X122743306Y-93056694D01*
X122739187Y-93052150D01*
X122735533Y-93047223D01*
X122732380Y-93041962D01*
X122729758Y-93036418D01*
X122727691Y-93030643D01*
X122726201Y-93024693D01*
X122725301Y-93018626D01*
X122725000Y-93012500D01*
X122725000Y-92887500D01*
X122725301Y-92881374D01*
X122726201Y-92875307D01*
X122727691Y-92869357D01*
X122729758Y-92863582D01*
X122732380Y-92858038D01*
X122735533Y-92852777D01*
X122739187Y-92847850D01*
X122743306Y-92843306D01*
X122747850Y-92839187D01*
X122752777Y-92835533D01*
X122758038Y-92832380D01*
X122763582Y-92829758D01*
X122769357Y-92827691D01*
X122775307Y-92826201D01*
X122781374Y-92825301D01*
X122787500Y-92825000D01*
X123537500Y-92825000D01*
X123543626Y-92825301D01*
X123543626Y-92825301D01*
G37*
D18*
G04 #@! TD*
G04 #@! TO.P,U1,4*
G04 #@! TO.N,+3V3*
X123162500Y-92950000D03*
D12*
G04 #@! TO.N,Earth*
G04 #@! TO.C,U1*
G36*
X123543626Y-93325301D02*
X123549693Y-93326201D01*
X123555643Y-93327691D01*
X123561418Y-93329758D01*
X123566962Y-93332380D01*
X123572223Y-93335533D01*
X123577150Y-93339187D01*
X123581694Y-93343306D01*
X123585813Y-93347850D01*
X123589467Y-93352777D01*
X123592620Y-93358038D01*
X123595242Y-93363582D01*
X123597309Y-93369357D01*
X123598799Y-93375307D01*
X123599699Y-93381374D01*
X123600000Y-93387500D01*
X123600000Y-93512500D01*
X123599699Y-93518626D01*
X123598799Y-93524693D01*
X123597309Y-93530643D01*
X123595242Y-93536418D01*
X123592620Y-93541962D01*
X123589467Y-93547223D01*
X123585813Y-93552150D01*
X123581694Y-93556694D01*
X123577150Y-93560813D01*
X123572223Y-93564467D01*
X123566962Y-93567620D01*
X123561418Y-93570242D01*
X123555643Y-93572309D01*
X123549693Y-93573799D01*
X123543626Y-93574699D01*
X123537500Y-93575000D01*
X122787500Y-93575000D01*
X122781374Y-93574699D01*
X122775307Y-93573799D01*
X122769357Y-93572309D01*
X122763582Y-93570242D01*
X122758038Y-93567620D01*
X122752777Y-93564467D01*
X122747850Y-93560813D01*
X122743306Y-93556694D01*
X122739187Y-93552150D01*
X122735533Y-93547223D01*
X122732380Y-93541962D01*
X122729758Y-93536418D01*
X122727691Y-93530643D01*
X122726201Y-93524693D01*
X122725301Y-93518626D01*
X122725000Y-93512500D01*
X122725000Y-93387500D01*
X122725301Y-93381374D01*
X122726201Y-93375307D01*
X122727691Y-93369357D01*
X122729758Y-93363582D01*
X122732380Y-93358038D01*
X122735533Y-93352777D01*
X122739187Y-93347850D01*
X122743306Y-93343306D01*
X122747850Y-93339187D01*
X122752777Y-93335533D01*
X122758038Y-93332380D01*
X122763582Y-93329758D01*
X122769357Y-93327691D01*
X122775307Y-93326201D01*
X122781374Y-93325301D01*
X122787500Y-93325000D01*
X123537500Y-93325000D01*
X123543626Y-93325301D01*
X123543626Y-93325301D01*
G37*
D18*
G04 #@! TD*
G04 #@! TO.P,U1,5*
G04 #@! TO.N,Earth*
X123162500Y-93450000D03*
D12*
G04 #@! TO.N,+3V3*
G04 #@! TO.C,U1*
G36*
X123543626Y-93825301D02*
X123549693Y-93826201D01*
X123555643Y-93827691D01*
X123561418Y-93829758D01*
X123566962Y-93832380D01*
X123572223Y-93835533D01*
X123577150Y-93839187D01*
X123581694Y-93843306D01*
X123585813Y-93847850D01*
X123589467Y-93852777D01*
X123592620Y-93858038D01*
X123595242Y-93863582D01*
X123597309Y-93869357D01*
X123598799Y-93875307D01*
X123599699Y-93881374D01*
X123600000Y-93887500D01*
X123600000Y-94012500D01*
X123599699Y-94018626D01*
X123598799Y-94024693D01*
X123597309Y-94030643D01*
X123595242Y-94036418D01*
X123592620Y-94041962D01*
X123589467Y-94047223D01*
X123585813Y-94052150D01*
X123581694Y-94056694D01*
X123577150Y-94060813D01*
X123572223Y-94064467D01*
X123566962Y-94067620D01*
X123561418Y-94070242D01*
X123555643Y-94072309D01*
X123549693Y-94073799D01*
X123543626Y-94074699D01*
X123537500Y-94075000D01*
X122787500Y-94075000D01*
X122781374Y-94074699D01*
X122775307Y-94073799D01*
X122769357Y-94072309D01*
X122763582Y-94070242D01*
X122758038Y-94067620D01*
X122752777Y-94064467D01*
X122747850Y-94060813D01*
X122743306Y-94056694D01*
X122739187Y-94052150D01*
X122735533Y-94047223D01*
X122732380Y-94041962D01*
X122729758Y-94036418D01*
X122727691Y-94030643D01*
X122726201Y-94024693D01*
X122725301Y-94018626D01*
X122725000Y-94012500D01*
X122725000Y-93887500D01*
X122725301Y-93881374D01*
X122726201Y-93875307D01*
X122727691Y-93869357D01*
X122729758Y-93863582D01*
X122732380Y-93858038D01*
X122735533Y-93852777D01*
X122739187Y-93847850D01*
X122743306Y-93843306D01*
X122747850Y-93839187D01*
X122752777Y-93835533D01*
X122758038Y-93832380D01*
X122763582Y-93829758D01*
X122769357Y-93827691D01*
X122775307Y-93826201D01*
X122781374Y-93825301D01*
X122787500Y-93825000D01*
X123537500Y-93825000D01*
X123543626Y-93825301D01*
X123543626Y-93825301D01*
G37*
D18*
G04 #@! TD*
G04 #@! TO.P,U1,6*
G04 #@! TO.N,+3V3*
X123162500Y-93950000D03*
D12*
G04 #@! TO.N,N/C*
G04 #@! TO.C,U1*
G36*
X123543626Y-94325301D02*
X123549693Y-94326201D01*
X123555643Y-94327691D01*
X123561418Y-94329758D01*
X123566962Y-94332380D01*
X123572223Y-94335533D01*
X123577150Y-94339187D01*
X123581694Y-94343306D01*
X123585813Y-94347850D01*
X123589467Y-94352777D01*
X123592620Y-94358038D01*
X123595242Y-94363582D01*
X123597309Y-94369357D01*
X123598799Y-94375307D01*
X123599699Y-94381374D01*
X123600000Y-94387500D01*
X123600000Y-94512500D01*
X123599699Y-94518626D01*
X123598799Y-94524693D01*
X123597309Y-94530643D01*
X123595242Y-94536418D01*
X123592620Y-94541962D01*
X123589467Y-94547223D01*
X123585813Y-94552150D01*
X123581694Y-94556694D01*
X123577150Y-94560813D01*
X123572223Y-94564467D01*
X123566962Y-94567620D01*
X123561418Y-94570242D01*
X123555643Y-94572309D01*
X123549693Y-94573799D01*
X123543626Y-94574699D01*
X123537500Y-94575000D01*
X122787500Y-94575000D01*
X122781374Y-94574699D01*
X122775307Y-94573799D01*
X122769357Y-94572309D01*
X122763582Y-94570242D01*
X122758038Y-94567620D01*
X122752777Y-94564467D01*
X122747850Y-94560813D01*
X122743306Y-94556694D01*
X122739187Y-94552150D01*
X122735533Y-94547223D01*
X122732380Y-94541962D01*
X122729758Y-94536418D01*
X122727691Y-94530643D01*
X122726201Y-94524693D01*
X122725301Y-94518626D01*
X122725000Y-94512500D01*
X122725000Y-94387500D01*
X122725301Y-94381374D01*
X122726201Y-94375307D01*
X122727691Y-94369357D01*
X122729758Y-94363582D01*
X122732380Y-94358038D01*
X122735533Y-94352777D01*
X122739187Y-94347850D01*
X122743306Y-94343306D01*
X122747850Y-94339187D01*
X122752777Y-94335533D01*
X122758038Y-94332380D01*
X122763582Y-94329758D01*
X122769357Y-94327691D01*
X122775307Y-94326201D01*
X122781374Y-94325301D01*
X122787500Y-94325000D01*
X123537500Y-94325000D01*
X123543626Y-94325301D01*
X123543626Y-94325301D01*
G37*
D18*
G04 #@! TD*
G04 #@! TO.P,U1,7*
G04 #@! TO.N,N/C*
X123162500Y-94450000D03*
D12*
G04 #@! TO.N,N/C*
G04 #@! TO.C,U1*
G36*
X123543626Y-94825301D02*
X123549693Y-94826201D01*
X123555643Y-94827691D01*
X123561418Y-94829758D01*
X123566962Y-94832380D01*
X123572223Y-94835533D01*
X123577150Y-94839187D01*
X123581694Y-94843306D01*
X123585813Y-94847850D01*
X123589467Y-94852777D01*
X123592620Y-94858038D01*
X123595242Y-94863582D01*
X123597309Y-94869357D01*
X123598799Y-94875307D01*
X123599699Y-94881374D01*
X123600000Y-94887500D01*
X123600000Y-95012500D01*
X123599699Y-95018626D01*
X123598799Y-95024693D01*
X123597309Y-95030643D01*
X123595242Y-95036418D01*
X123592620Y-95041962D01*
X123589467Y-95047223D01*
X123585813Y-95052150D01*
X123581694Y-95056694D01*
X123577150Y-95060813D01*
X123572223Y-95064467D01*
X123566962Y-95067620D01*
X123561418Y-95070242D01*
X123555643Y-95072309D01*
X123549693Y-95073799D01*
X123543626Y-95074699D01*
X123537500Y-95075000D01*
X122787500Y-95075000D01*
X122781374Y-95074699D01*
X122775307Y-95073799D01*
X122769357Y-95072309D01*
X122763582Y-95070242D01*
X122758038Y-95067620D01*
X122752777Y-95064467D01*
X122747850Y-95060813D01*
X122743306Y-95056694D01*
X122739187Y-95052150D01*
X122735533Y-95047223D01*
X122732380Y-95041962D01*
X122729758Y-95036418D01*
X122727691Y-95030643D01*
X122726201Y-95024693D01*
X122725301Y-95018626D01*
X122725000Y-95012500D01*
X122725000Y-94887500D01*
X122725301Y-94881374D01*
X122726201Y-94875307D01*
X122727691Y-94869357D01*
X122729758Y-94863582D01*
X122732380Y-94858038D01*
X122735533Y-94852777D01*
X122739187Y-94847850D01*
X122743306Y-94843306D01*
X122747850Y-94839187D01*
X122752777Y-94835533D01*
X122758038Y-94832380D01*
X122763582Y-94829758D01*
X122769357Y-94827691D01*
X122775307Y-94826201D01*
X122781374Y-94825301D01*
X122787500Y-94825000D01*
X123537500Y-94825000D01*
X123543626Y-94825301D01*
X123543626Y-94825301D01*
G37*
D18*
G04 #@! TD*
G04 #@! TO.P,U1,8*
G04 #@! TO.N,N/C*
X123162500Y-94950000D03*
D12*
G04 #@! TO.N,/CE_I*
G04 #@! TO.C,U1*
G36*
X123918626Y-95200301D02*
X123924693Y-95201201D01*
X123930643Y-95202691D01*
X123936418Y-95204758D01*
X123941962Y-95207380D01*
X123947223Y-95210533D01*
X123952150Y-95214187D01*
X123956694Y-95218306D01*
X123960813Y-95222850D01*
X123964467Y-95227777D01*
X123967620Y-95233038D01*
X123970242Y-95238582D01*
X123972309Y-95244357D01*
X123973799Y-95250307D01*
X123974699Y-95256374D01*
X123975000Y-95262500D01*
X123975000Y-96012500D01*
X123974699Y-96018626D01*
X123973799Y-96024693D01*
X123972309Y-96030643D01*
X123970242Y-96036418D01*
X123967620Y-96041962D01*
X123964467Y-96047223D01*
X123960813Y-96052150D01*
X123956694Y-96056694D01*
X123952150Y-96060813D01*
X123947223Y-96064467D01*
X123941962Y-96067620D01*
X123936418Y-96070242D01*
X123930643Y-96072309D01*
X123924693Y-96073799D01*
X123918626Y-96074699D01*
X123912500Y-96075000D01*
X123787500Y-96075000D01*
X123781374Y-96074699D01*
X123775307Y-96073799D01*
X123769357Y-96072309D01*
X123763582Y-96070242D01*
X123758038Y-96067620D01*
X123752777Y-96064467D01*
X123747850Y-96060813D01*
X123743306Y-96056694D01*
X123739187Y-96052150D01*
X123735533Y-96047223D01*
X123732380Y-96041962D01*
X123729758Y-96036418D01*
X123727691Y-96030643D01*
X123726201Y-96024693D01*
X123725301Y-96018626D01*
X123725000Y-96012500D01*
X123725000Y-95262500D01*
X123725301Y-95256374D01*
X123726201Y-95250307D01*
X123727691Y-95244357D01*
X123729758Y-95238582D01*
X123732380Y-95233038D01*
X123735533Y-95227777D01*
X123739187Y-95222850D01*
X123743306Y-95218306D01*
X123747850Y-95214187D01*
X123752777Y-95210533D01*
X123758038Y-95207380D01*
X123763582Y-95204758D01*
X123769357Y-95202691D01*
X123775307Y-95201201D01*
X123781374Y-95200301D01*
X123787500Y-95200000D01*
X123912500Y-95200000D01*
X123918626Y-95200301D01*
X123918626Y-95200301D01*
G37*
D18*
G04 #@! TD*
G04 #@! TO.P,U1,9*
G04 #@! TO.N,/CE_I*
X123850000Y-95637500D03*
D12*
G04 #@! TO.N,INT*
G04 #@! TO.C,U1*
G36*
X124418626Y-95200301D02*
X124424693Y-95201201D01*
X124430643Y-95202691D01*
X124436418Y-95204758D01*
X124441962Y-95207380D01*
X124447223Y-95210533D01*
X124452150Y-95214187D01*
X124456694Y-95218306D01*
X124460813Y-95222850D01*
X124464467Y-95227777D01*
X124467620Y-95233038D01*
X124470242Y-95238582D01*
X124472309Y-95244357D01*
X124473799Y-95250307D01*
X124474699Y-95256374D01*
X124475000Y-95262500D01*
X124475000Y-96012500D01*
X124474699Y-96018626D01*
X124473799Y-96024693D01*
X124472309Y-96030643D01*
X124470242Y-96036418D01*
X124467620Y-96041962D01*
X124464467Y-96047223D01*
X124460813Y-96052150D01*
X124456694Y-96056694D01*
X124452150Y-96060813D01*
X124447223Y-96064467D01*
X124441962Y-96067620D01*
X124436418Y-96070242D01*
X124430643Y-96072309D01*
X124424693Y-96073799D01*
X124418626Y-96074699D01*
X124412500Y-96075000D01*
X124287500Y-96075000D01*
X124281374Y-96074699D01*
X124275307Y-96073799D01*
X124269357Y-96072309D01*
X124263582Y-96070242D01*
X124258038Y-96067620D01*
X124252777Y-96064467D01*
X124247850Y-96060813D01*
X124243306Y-96056694D01*
X124239187Y-96052150D01*
X124235533Y-96047223D01*
X124232380Y-96041962D01*
X124229758Y-96036418D01*
X124227691Y-96030643D01*
X124226201Y-96024693D01*
X124225301Y-96018626D01*
X124225000Y-96012500D01*
X124225000Y-95262500D01*
X124225301Y-95256374D01*
X124226201Y-95250307D01*
X124227691Y-95244357D01*
X124229758Y-95238582D01*
X124232380Y-95233038D01*
X124235533Y-95227777D01*
X124239187Y-95222850D01*
X124243306Y-95218306D01*
X124247850Y-95214187D01*
X124252777Y-95210533D01*
X124258038Y-95207380D01*
X124263582Y-95204758D01*
X124269357Y-95202691D01*
X124275307Y-95201201D01*
X124281374Y-95200301D01*
X124287500Y-95200000D01*
X124412500Y-95200000D01*
X124418626Y-95200301D01*
X124418626Y-95200301D01*
G37*
D18*
G04 #@! TD*
G04 #@! TO.P,U1,10*
G04 #@! TO.N,INT*
X124350000Y-95637500D03*
D12*
G04 #@! TO.N,N/C*
G04 #@! TO.C,U1*
G36*
X124918626Y-95200301D02*
X124924693Y-95201201D01*
X124930643Y-95202691D01*
X124936418Y-95204758D01*
X124941962Y-95207380D01*
X124947223Y-95210533D01*
X124952150Y-95214187D01*
X124956694Y-95218306D01*
X124960813Y-95222850D01*
X124964467Y-95227777D01*
X124967620Y-95233038D01*
X124970242Y-95238582D01*
X124972309Y-95244357D01*
X124973799Y-95250307D01*
X124974699Y-95256374D01*
X124975000Y-95262500D01*
X124975000Y-96012500D01*
X124974699Y-96018626D01*
X124973799Y-96024693D01*
X124972309Y-96030643D01*
X124970242Y-96036418D01*
X124967620Y-96041962D01*
X124964467Y-96047223D01*
X124960813Y-96052150D01*
X124956694Y-96056694D01*
X124952150Y-96060813D01*
X124947223Y-96064467D01*
X124941962Y-96067620D01*
X124936418Y-96070242D01*
X124930643Y-96072309D01*
X124924693Y-96073799D01*
X124918626Y-96074699D01*
X124912500Y-96075000D01*
X124787500Y-96075000D01*
X124781374Y-96074699D01*
X124775307Y-96073799D01*
X124769357Y-96072309D01*
X124763582Y-96070242D01*
X124758038Y-96067620D01*
X124752777Y-96064467D01*
X124747850Y-96060813D01*
X124743306Y-96056694D01*
X124739187Y-96052150D01*
X124735533Y-96047223D01*
X124732380Y-96041962D01*
X124729758Y-96036418D01*
X124727691Y-96030643D01*
X124726201Y-96024693D01*
X124725301Y-96018626D01*
X124725000Y-96012500D01*
X124725000Y-95262500D01*
X124725301Y-95256374D01*
X124726201Y-95250307D01*
X124727691Y-95244357D01*
X124729758Y-95238582D01*
X124732380Y-95233038D01*
X124735533Y-95227777D01*
X124739187Y-95222850D01*
X124743306Y-95218306D01*
X124747850Y-95214187D01*
X124752777Y-95210533D01*
X124758038Y-95207380D01*
X124763582Y-95204758D01*
X124769357Y-95202691D01*
X124775307Y-95201201D01*
X124781374Y-95200301D01*
X124787500Y-95200000D01*
X124912500Y-95200000D01*
X124918626Y-95200301D01*
X124918626Y-95200301D01*
G37*
D18*
G04 #@! TD*
G04 #@! TO.P,U1,11*
G04 #@! TO.N,N/C*
X124850000Y-95637500D03*
D12*
G04 #@! TO.N,/CSN*
G04 #@! TO.C,U1*
G36*
X125418626Y-95200301D02*
X125424693Y-95201201D01*
X125430643Y-95202691D01*
X125436418Y-95204758D01*
X125441962Y-95207380D01*
X125447223Y-95210533D01*
X125452150Y-95214187D01*
X125456694Y-95218306D01*
X125460813Y-95222850D01*
X125464467Y-95227777D01*
X125467620Y-95233038D01*
X125470242Y-95238582D01*
X125472309Y-95244357D01*
X125473799Y-95250307D01*
X125474699Y-95256374D01*
X125475000Y-95262500D01*
X125475000Y-96012500D01*
X125474699Y-96018626D01*
X125473799Y-96024693D01*
X125472309Y-96030643D01*
X125470242Y-96036418D01*
X125467620Y-96041962D01*
X125464467Y-96047223D01*
X125460813Y-96052150D01*
X125456694Y-96056694D01*
X125452150Y-96060813D01*
X125447223Y-96064467D01*
X125441962Y-96067620D01*
X125436418Y-96070242D01*
X125430643Y-96072309D01*
X125424693Y-96073799D01*
X125418626Y-96074699D01*
X125412500Y-96075000D01*
X125287500Y-96075000D01*
X125281374Y-96074699D01*
X125275307Y-96073799D01*
X125269357Y-96072309D01*
X125263582Y-96070242D01*
X125258038Y-96067620D01*
X125252777Y-96064467D01*
X125247850Y-96060813D01*
X125243306Y-96056694D01*
X125239187Y-96052150D01*
X125235533Y-96047223D01*
X125232380Y-96041962D01*
X125229758Y-96036418D01*
X125227691Y-96030643D01*
X125226201Y-96024693D01*
X125225301Y-96018626D01*
X125225000Y-96012500D01*
X125225000Y-95262500D01*
X125225301Y-95256374D01*
X125226201Y-95250307D01*
X125227691Y-95244357D01*
X125229758Y-95238582D01*
X125232380Y-95233038D01*
X125235533Y-95227777D01*
X125239187Y-95222850D01*
X125243306Y-95218306D01*
X125247850Y-95214187D01*
X125252777Y-95210533D01*
X125258038Y-95207380D01*
X125263582Y-95204758D01*
X125269357Y-95202691D01*
X125275307Y-95201201D01*
X125281374Y-95200301D01*
X125287500Y-95200000D01*
X125412500Y-95200000D01*
X125418626Y-95200301D01*
X125418626Y-95200301D01*
G37*
D18*
G04 #@! TD*
G04 #@! TO.P,U1,12*
G04 #@! TO.N,/CSN*
X125350000Y-95637500D03*
D12*
G04 #@! TO.N,/CE_R*
G04 #@! TO.C,U1*
G36*
X125918626Y-95200301D02*
X125924693Y-95201201D01*
X125930643Y-95202691D01*
X125936418Y-95204758D01*
X125941962Y-95207380D01*
X125947223Y-95210533D01*
X125952150Y-95214187D01*
X125956694Y-95218306D01*
X125960813Y-95222850D01*
X125964467Y-95227777D01*
X125967620Y-95233038D01*
X125970242Y-95238582D01*
X125972309Y-95244357D01*
X125973799Y-95250307D01*
X125974699Y-95256374D01*
X125975000Y-95262500D01*
X125975000Y-96012500D01*
X125974699Y-96018626D01*
X125973799Y-96024693D01*
X125972309Y-96030643D01*
X125970242Y-96036418D01*
X125967620Y-96041962D01*
X125964467Y-96047223D01*
X125960813Y-96052150D01*
X125956694Y-96056694D01*
X125952150Y-96060813D01*
X125947223Y-96064467D01*
X125941962Y-96067620D01*
X125936418Y-96070242D01*
X125930643Y-96072309D01*
X125924693Y-96073799D01*
X125918626Y-96074699D01*
X125912500Y-96075000D01*
X125787500Y-96075000D01*
X125781374Y-96074699D01*
X125775307Y-96073799D01*
X125769357Y-96072309D01*
X125763582Y-96070242D01*
X125758038Y-96067620D01*
X125752777Y-96064467D01*
X125747850Y-96060813D01*
X125743306Y-96056694D01*
X125739187Y-96052150D01*
X125735533Y-96047223D01*
X125732380Y-96041962D01*
X125729758Y-96036418D01*
X125727691Y-96030643D01*
X125726201Y-96024693D01*
X125725301Y-96018626D01*
X125725000Y-96012500D01*
X125725000Y-95262500D01*
X125725301Y-95256374D01*
X125726201Y-95250307D01*
X125727691Y-95244357D01*
X125729758Y-95238582D01*
X125732380Y-95233038D01*
X125735533Y-95227777D01*
X125739187Y-95222850D01*
X125743306Y-95218306D01*
X125747850Y-95214187D01*
X125752777Y-95210533D01*
X125758038Y-95207380D01*
X125763582Y-95204758D01*
X125769357Y-95202691D01*
X125775307Y-95201201D01*
X125781374Y-95200301D01*
X125787500Y-95200000D01*
X125912500Y-95200000D01*
X125918626Y-95200301D01*
X125918626Y-95200301D01*
G37*
D18*
G04 #@! TD*
G04 #@! TO.P,U1,13*
G04 #@! TO.N,/CE_R*
X125850000Y-95637500D03*
D12*
G04 #@! TO.N,N/C*
G04 #@! TO.C,U1*
G36*
X126418626Y-95200301D02*
X126424693Y-95201201D01*
X126430643Y-95202691D01*
X126436418Y-95204758D01*
X126441962Y-95207380D01*
X126447223Y-95210533D01*
X126452150Y-95214187D01*
X126456694Y-95218306D01*
X126460813Y-95222850D01*
X126464467Y-95227777D01*
X126467620Y-95233038D01*
X126470242Y-95238582D01*
X126472309Y-95244357D01*
X126473799Y-95250307D01*
X126474699Y-95256374D01*
X126475000Y-95262500D01*
X126475000Y-96012500D01*
X126474699Y-96018626D01*
X126473799Y-96024693D01*
X126472309Y-96030643D01*
X126470242Y-96036418D01*
X126467620Y-96041962D01*
X126464467Y-96047223D01*
X126460813Y-96052150D01*
X126456694Y-96056694D01*
X126452150Y-96060813D01*
X126447223Y-96064467D01*
X126441962Y-96067620D01*
X126436418Y-96070242D01*
X126430643Y-96072309D01*
X126424693Y-96073799D01*
X126418626Y-96074699D01*
X126412500Y-96075000D01*
X126287500Y-96075000D01*
X126281374Y-96074699D01*
X126275307Y-96073799D01*
X126269357Y-96072309D01*
X126263582Y-96070242D01*
X126258038Y-96067620D01*
X126252777Y-96064467D01*
X126247850Y-96060813D01*
X126243306Y-96056694D01*
X126239187Y-96052150D01*
X126235533Y-96047223D01*
X126232380Y-96041962D01*
X126229758Y-96036418D01*
X126227691Y-96030643D01*
X126226201Y-96024693D01*
X126225301Y-96018626D01*
X126225000Y-96012500D01*
X126225000Y-95262500D01*
X126225301Y-95256374D01*
X126226201Y-95250307D01*
X126227691Y-95244357D01*
X126229758Y-95238582D01*
X126232380Y-95233038D01*
X126235533Y-95227777D01*
X126239187Y-95222850D01*
X126243306Y-95218306D01*
X126247850Y-95214187D01*
X126252777Y-95210533D01*
X126258038Y-95207380D01*
X126263582Y-95204758D01*
X126269357Y-95202691D01*
X126275307Y-95201201D01*
X126281374Y-95200301D01*
X126287500Y-95200000D01*
X126412500Y-95200000D01*
X126418626Y-95200301D01*
X126418626Y-95200301D01*
G37*
D18*
G04 #@! TD*
G04 #@! TO.P,U1,14*
G04 #@! TO.N,N/C*
X126350000Y-95637500D03*
D12*
G04 #@! TO.N,/MOSI*
G04 #@! TO.C,U1*
G36*
X126918626Y-95200301D02*
X126924693Y-95201201D01*
X126930643Y-95202691D01*
X126936418Y-95204758D01*
X126941962Y-95207380D01*
X126947223Y-95210533D01*
X126952150Y-95214187D01*
X126956694Y-95218306D01*
X126960813Y-95222850D01*
X126964467Y-95227777D01*
X126967620Y-95233038D01*
X126970242Y-95238582D01*
X126972309Y-95244357D01*
X126973799Y-95250307D01*
X126974699Y-95256374D01*
X126975000Y-95262500D01*
X126975000Y-96012500D01*
X126974699Y-96018626D01*
X126973799Y-96024693D01*
X126972309Y-96030643D01*
X126970242Y-96036418D01*
X126967620Y-96041962D01*
X126964467Y-96047223D01*
X126960813Y-96052150D01*
X126956694Y-96056694D01*
X126952150Y-96060813D01*
X126947223Y-96064467D01*
X126941962Y-96067620D01*
X126936418Y-96070242D01*
X126930643Y-96072309D01*
X126924693Y-96073799D01*
X126918626Y-96074699D01*
X126912500Y-96075000D01*
X126787500Y-96075000D01*
X126781374Y-96074699D01*
X126775307Y-96073799D01*
X126769357Y-96072309D01*
X126763582Y-96070242D01*
X126758038Y-96067620D01*
X126752777Y-96064467D01*
X126747850Y-96060813D01*
X126743306Y-96056694D01*
X126739187Y-96052150D01*
X126735533Y-96047223D01*
X126732380Y-96041962D01*
X126729758Y-96036418D01*
X126727691Y-96030643D01*
X126726201Y-96024693D01*
X126725301Y-96018626D01*
X126725000Y-96012500D01*
X126725000Y-95262500D01*
X126725301Y-95256374D01*
X126726201Y-95250307D01*
X126727691Y-95244357D01*
X126729758Y-95238582D01*
X126732380Y-95233038D01*
X126735533Y-95227777D01*
X126739187Y-95222850D01*
X126743306Y-95218306D01*
X126747850Y-95214187D01*
X126752777Y-95210533D01*
X126758038Y-95207380D01*
X126763582Y-95204758D01*
X126769357Y-95202691D01*
X126775307Y-95201201D01*
X126781374Y-95200301D01*
X126787500Y-95200000D01*
X126912500Y-95200000D01*
X126918626Y-95200301D01*
X126918626Y-95200301D01*
G37*
D18*
G04 #@! TD*
G04 #@! TO.P,U1,15*
G04 #@! TO.N,/MOSI*
X126850000Y-95637500D03*
D12*
G04 #@! TO.N,/MISO*
G04 #@! TO.C,U1*
G36*
X127418626Y-95200301D02*
X127424693Y-95201201D01*
X127430643Y-95202691D01*
X127436418Y-95204758D01*
X127441962Y-95207380D01*
X127447223Y-95210533D01*
X127452150Y-95214187D01*
X127456694Y-95218306D01*
X127460813Y-95222850D01*
X127464467Y-95227777D01*
X127467620Y-95233038D01*
X127470242Y-95238582D01*
X127472309Y-95244357D01*
X127473799Y-95250307D01*
X127474699Y-95256374D01*
X127475000Y-95262500D01*
X127475000Y-96012500D01*
X127474699Y-96018626D01*
X127473799Y-96024693D01*
X127472309Y-96030643D01*
X127470242Y-96036418D01*
X127467620Y-96041962D01*
X127464467Y-96047223D01*
X127460813Y-96052150D01*
X127456694Y-96056694D01*
X127452150Y-96060813D01*
X127447223Y-96064467D01*
X127441962Y-96067620D01*
X127436418Y-96070242D01*
X127430643Y-96072309D01*
X127424693Y-96073799D01*
X127418626Y-96074699D01*
X127412500Y-96075000D01*
X127287500Y-96075000D01*
X127281374Y-96074699D01*
X127275307Y-96073799D01*
X127269357Y-96072309D01*
X127263582Y-96070242D01*
X127258038Y-96067620D01*
X127252777Y-96064467D01*
X127247850Y-96060813D01*
X127243306Y-96056694D01*
X127239187Y-96052150D01*
X127235533Y-96047223D01*
X127232380Y-96041962D01*
X127229758Y-96036418D01*
X127227691Y-96030643D01*
X127226201Y-96024693D01*
X127225301Y-96018626D01*
X127225000Y-96012500D01*
X127225000Y-95262500D01*
X127225301Y-95256374D01*
X127226201Y-95250307D01*
X127227691Y-95244357D01*
X127229758Y-95238582D01*
X127232380Y-95233038D01*
X127235533Y-95227777D01*
X127239187Y-95222850D01*
X127243306Y-95218306D01*
X127247850Y-95214187D01*
X127252777Y-95210533D01*
X127258038Y-95207380D01*
X127263582Y-95204758D01*
X127269357Y-95202691D01*
X127275307Y-95201201D01*
X127281374Y-95200301D01*
X127287500Y-95200000D01*
X127412500Y-95200000D01*
X127418626Y-95200301D01*
X127418626Y-95200301D01*
G37*
D18*
G04 #@! TD*
G04 #@! TO.P,U1,16*
G04 #@! TO.N,/MISO*
X127350000Y-95637500D03*
D12*
G04 #@! TO.N,/SCK*
G04 #@! TO.C,U1*
G36*
X128418626Y-94825301D02*
X128424693Y-94826201D01*
X128430643Y-94827691D01*
X128436418Y-94829758D01*
X128441962Y-94832380D01*
X128447223Y-94835533D01*
X128452150Y-94839187D01*
X128456694Y-94843306D01*
X128460813Y-94847850D01*
X128464467Y-94852777D01*
X128467620Y-94858038D01*
X128470242Y-94863582D01*
X128472309Y-94869357D01*
X128473799Y-94875307D01*
X128474699Y-94881374D01*
X128475000Y-94887500D01*
X128475000Y-95012500D01*
X128474699Y-95018626D01*
X128473799Y-95024693D01*
X128472309Y-95030643D01*
X128470242Y-95036418D01*
X128467620Y-95041962D01*
X128464467Y-95047223D01*
X128460813Y-95052150D01*
X128456694Y-95056694D01*
X128452150Y-95060813D01*
X128447223Y-95064467D01*
X128441962Y-95067620D01*
X128436418Y-95070242D01*
X128430643Y-95072309D01*
X128424693Y-95073799D01*
X128418626Y-95074699D01*
X128412500Y-95075000D01*
X127662500Y-95075000D01*
X127656374Y-95074699D01*
X127650307Y-95073799D01*
X127644357Y-95072309D01*
X127638582Y-95070242D01*
X127633038Y-95067620D01*
X127627777Y-95064467D01*
X127622850Y-95060813D01*
X127618306Y-95056694D01*
X127614187Y-95052150D01*
X127610533Y-95047223D01*
X127607380Y-95041962D01*
X127604758Y-95036418D01*
X127602691Y-95030643D01*
X127601201Y-95024693D01*
X127600301Y-95018626D01*
X127600000Y-95012500D01*
X127600000Y-94887500D01*
X127600301Y-94881374D01*
X127601201Y-94875307D01*
X127602691Y-94869357D01*
X127604758Y-94863582D01*
X127607380Y-94858038D01*
X127610533Y-94852777D01*
X127614187Y-94847850D01*
X127618306Y-94843306D01*
X127622850Y-94839187D01*
X127627777Y-94835533D01*
X127633038Y-94832380D01*
X127638582Y-94829758D01*
X127644357Y-94827691D01*
X127650307Y-94826201D01*
X127656374Y-94825301D01*
X127662500Y-94825000D01*
X128412500Y-94825000D01*
X128418626Y-94825301D01*
X128418626Y-94825301D01*
G37*
D18*
G04 #@! TD*
G04 #@! TO.P,U1,17*
G04 #@! TO.N,/SCK*
X128037500Y-94950000D03*
D12*
G04 #@! TO.N,+3V3*
G04 #@! TO.C,U1*
G36*
X128418626Y-94325301D02*
X128424693Y-94326201D01*
X128430643Y-94327691D01*
X128436418Y-94329758D01*
X128441962Y-94332380D01*
X128447223Y-94335533D01*
X128452150Y-94339187D01*
X128456694Y-94343306D01*
X128460813Y-94347850D01*
X128464467Y-94352777D01*
X128467620Y-94358038D01*
X128470242Y-94363582D01*
X128472309Y-94369357D01*
X128473799Y-94375307D01*
X128474699Y-94381374D01*
X128475000Y-94387500D01*
X128475000Y-94512500D01*
X128474699Y-94518626D01*
X128473799Y-94524693D01*
X128472309Y-94530643D01*
X128470242Y-94536418D01*
X128467620Y-94541962D01*
X128464467Y-94547223D01*
X128460813Y-94552150D01*
X128456694Y-94556694D01*
X128452150Y-94560813D01*
X128447223Y-94564467D01*
X128441962Y-94567620D01*
X128436418Y-94570242D01*
X128430643Y-94572309D01*
X128424693Y-94573799D01*
X128418626Y-94574699D01*
X128412500Y-94575000D01*
X127662500Y-94575000D01*
X127656374Y-94574699D01*
X127650307Y-94573799D01*
X127644357Y-94572309D01*
X127638582Y-94570242D01*
X127633038Y-94567620D01*
X127627777Y-94564467D01*
X127622850Y-94560813D01*
X127618306Y-94556694D01*
X127614187Y-94552150D01*
X127610533Y-94547223D01*
X127607380Y-94541962D01*
X127604758Y-94536418D01*
X127602691Y-94530643D01*
X127601201Y-94524693D01*
X127600301Y-94518626D01*
X127600000Y-94512500D01*
X127600000Y-94387500D01*
X127600301Y-94381374D01*
X127601201Y-94375307D01*
X127602691Y-94369357D01*
X127604758Y-94363582D01*
X127607380Y-94358038D01*
X127610533Y-94352777D01*
X127614187Y-94347850D01*
X127618306Y-94343306D01*
X127622850Y-94339187D01*
X127627777Y-94335533D01*
X127633038Y-94332380D01*
X127638582Y-94329758D01*
X127644357Y-94327691D01*
X127650307Y-94326201D01*
X127656374Y-94325301D01*
X127662500Y-94325000D01*
X128412500Y-94325000D01*
X128418626Y-94325301D01*
X128418626Y-94325301D01*
G37*
D18*
G04 #@! TD*
G04 #@! TO.P,U1,18*
G04 #@! TO.N,+3V3*
X128037500Y-94450000D03*
D12*
G04 #@! TO.N,N/C*
G04 #@! TO.C,U1*
G36*
X128418626Y-93825301D02*
X128424693Y-93826201D01*
X128430643Y-93827691D01*
X128436418Y-93829758D01*
X128441962Y-93832380D01*
X128447223Y-93835533D01*
X128452150Y-93839187D01*
X128456694Y-93843306D01*
X128460813Y-93847850D01*
X128464467Y-93852777D01*
X128467620Y-93858038D01*
X128470242Y-93863582D01*
X128472309Y-93869357D01*
X128473799Y-93875307D01*
X128474699Y-93881374D01*
X128475000Y-93887500D01*
X128475000Y-94012500D01*
X128474699Y-94018626D01*
X128473799Y-94024693D01*
X128472309Y-94030643D01*
X128470242Y-94036418D01*
X128467620Y-94041962D01*
X128464467Y-94047223D01*
X128460813Y-94052150D01*
X128456694Y-94056694D01*
X128452150Y-94060813D01*
X128447223Y-94064467D01*
X128441962Y-94067620D01*
X128436418Y-94070242D01*
X128430643Y-94072309D01*
X128424693Y-94073799D01*
X128418626Y-94074699D01*
X128412500Y-94075000D01*
X127662500Y-94075000D01*
X127656374Y-94074699D01*
X127650307Y-94073799D01*
X127644357Y-94072309D01*
X127638582Y-94070242D01*
X127633038Y-94067620D01*
X127627777Y-94064467D01*
X127622850Y-94060813D01*
X127618306Y-94056694D01*
X127614187Y-94052150D01*
X127610533Y-94047223D01*
X127607380Y-94041962D01*
X127604758Y-94036418D01*
X127602691Y-94030643D01*
X127601201Y-94024693D01*
X127600301Y-94018626D01*
X127600000Y-94012500D01*
X127600000Y-93887500D01*
X127600301Y-93881374D01*
X127601201Y-93875307D01*
X127602691Y-93869357D01*
X127604758Y-93863582D01*
X127607380Y-93858038D01*
X127610533Y-93852777D01*
X127614187Y-93847850D01*
X127618306Y-93843306D01*
X127622850Y-93839187D01*
X127627777Y-93835533D01*
X127633038Y-93832380D01*
X127638582Y-93829758D01*
X127644357Y-93827691D01*
X127650307Y-93826201D01*
X127656374Y-93825301D01*
X127662500Y-93825000D01*
X128412500Y-93825000D01*
X128418626Y-93825301D01*
X128418626Y-93825301D01*
G37*
D18*
G04 #@! TD*
G04 #@! TO.P,U1,19*
G04 #@! TO.N,N/C*
X128037500Y-93950000D03*
D12*
G04 #@! TO.N,N/C*
G04 #@! TO.C,U1*
G36*
X128418626Y-93325301D02*
X128424693Y-93326201D01*
X128430643Y-93327691D01*
X128436418Y-93329758D01*
X128441962Y-93332380D01*
X128447223Y-93335533D01*
X128452150Y-93339187D01*
X128456694Y-93343306D01*
X128460813Y-93347850D01*
X128464467Y-93352777D01*
X128467620Y-93358038D01*
X128470242Y-93363582D01*
X128472309Y-93369357D01*
X128473799Y-93375307D01*
X128474699Y-93381374D01*
X128475000Y-93387500D01*
X128475000Y-93512500D01*
X128474699Y-93518626D01*
X128473799Y-93524693D01*
X128472309Y-93530643D01*
X128470242Y-93536418D01*
X128467620Y-93541962D01*
X128464467Y-93547223D01*
X128460813Y-93552150D01*
X128456694Y-93556694D01*
X128452150Y-93560813D01*
X128447223Y-93564467D01*
X128441962Y-93567620D01*
X128436418Y-93570242D01*
X128430643Y-93572309D01*
X128424693Y-93573799D01*
X128418626Y-93574699D01*
X128412500Y-93575000D01*
X127662500Y-93575000D01*
X127656374Y-93574699D01*
X127650307Y-93573799D01*
X127644357Y-93572309D01*
X127638582Y-93570242D01*
X127633038Y-93567620D01*
X127627777Y-93564467D01*
X127622850Y-93560813D01*
X127618306Y-93556694D01*
X127614187Y-93552150D01*
X127610533Y-93547223D01*
X127607380Y-93541962D01*
X127604758Y-93536418D01*
X127602691Y-93530643D01*
X127601201Y-93524693D01*
X127600301Y-93518626D01*
X127600000Y-93512500D01*
X127600000Y-93387500D01*
X127600301Y-93381374D01*
X127601201Y-93375307D01*
X127602691Y-93369357D01*
X127604758Y-93363582D01*
X127607380Y-93358038D01*
X127610533Y-93352777D01*
X127614187Y-93347850D01*
X127618306Y-93343306D01*
X127622850Y-93339187D01*
X127627777Y-93335533D01*
X127633038Y-93332380D01*
X127638582Y-93329758D01*
X127644357Y-93327691D01*
X127650307Y-93326201D01*
X127656374Y-93325301D01*
X127662500Y-93325000D01*
X128412500Y-93325000D01*
X128418626Y-93325301D01*
X128418626Y-93325301D01*
G37*
D18*
G04 #@! TD*
G04 #@! TO.P,U1,20*
G04 #@! TO.N,N/C*
X128037500Y-93450000D03*
D12*
G04 #@! TO.N,Earth*
G04 #@! TO.C,U1*
G36*
X128418626Y-92825301D02*
X128424693Y-92826201D01*
X128430643Y-92827691D01*
X128436418Y-92829758D01*
X128441962Y-92832380D01*
X128447223Y-92835533D01*
X128452150Y-92839187D01*
X128456694Y-92843306D01*
X128460813Y-92847850D01*
X128464467Y-92852777D01*
X128467620Y-92858038D01*
X128470242Y-92863582D01*
X128472309Y-92869357D01*
X128473799Y-92875307D01*
X128474699Y-92881374D01*
X128475000Y-92887500D01*
X128475000Y-93012500D01*
X128474699Y-93018626D01*
X128473799Y-93024693D01*
X128472309Y-93030643D01*
X128470242Y-93036418D01*
X128467620Y-93041962D01*
X128464467Y-93047223D01*
X128460813Y-93052150D01*
X128456694Y-93056694D01*
X128452150Y-93060813D01*
X128447223Y-93064467D01*
X128441962Y-93067620D01*
X128436418Y-93070242D01*
X128430643Y-93072309D01*
X128424693Y-93073799D01*
X128418626Y-93074699D01*
X128412500Y-93075000D01*
X127662500Y-93075000D01*
X127656374Y-93074699D01*
X127650307Y-93073799D01*
X127644357Y-93072309D01*
X127638582Y-93070242D01*
X127633038Y-93067620D01*
X127627777Y-93064467D01*
X127622850Y-93060813D01*
X127618306Y-93056694D01*
X127614187Y-93052150D01*
X127610533Y-93047223D01*
X127607380Y-93041962D01*
X127604758Y-93036418D01*
X127602691Y-93030643D01*
X127601201Y-93024693D01*
X127600301Y-93018626D01*
X127600000Y-93012500D01*
X127600000Y-92887500D01*
X127600301Y-92881374D01*
X127601201Y-92875307D01*
X127602691Y-92869357D01*
X127604758Y-92863582D01*
X127607380Y-92858038D01*
X127610533Y-92852777D01*
X127614187Y-92847850D01*
X127618306Y-92843306D01*
X127622850Y-92839187D01*
X127627777Y-92835533D01*
X127633038Y-92832380D01*
X127638582Y-92829758D01*
X127644357Y-92827691D01*
X127650307Y-92826201D01*
X127656374Y-92825301D01*
X127662500Y-92825000D01*
X128412500Y-92825000D01*
X128418626Y-92825301D01*
X128418626Y-92825301D01*
G37*
D18*
G04 #@! TD*
G04 #@! TO.P,U1,21*
G04 #@! TO.N,Earth*
X128037500Y-92950000D03*
D12*
G04 #@! TO.N,N/C*
G04 #@! TO.C,U1*
G36*
X128418626Y-92325301D02*
X128424693Y-92326201D01*
X128430643Y-92327691D01*
X128436418Y-92329758D01*
X128441962Y-92332380D01*
X128447223Y-92335533D01*
X128452150Y-92339187D01*
X128456694Y-92343306D01*
X128460813Y-92347850D01*
X128464467Y-92352777D01*
X128467620Y-92358038D01*
X128470242Y-92363582D01*
X128472309Y-92369357D01*
X128473799Y-92375307D01*
X128474699Y-92381374D01*
X128475000Y-92387500D01*
X128475000Y-92512500D01*
X128474699Y-92518626D01*
X128473799Y-92524693D01*
X128472309Y-92530643D01*
X128470242Y-92536418D01*
X128467620Y-92541962D01*
X128464467Y-92547223D01*
X128460813Y-92552150D01*
X128456694Y-92556694D01*
X128452150Y-92560813D01*
X128447223Y-92564467D01*
X128441962Y-92567620D01*
X128436418Y-92570242D01*
X128430643Y-92572309D01*
X128424693Y-92573799D01*
X128418626Y-92574699D01*
X128412500Y-92575000D01*
X127662500Y-92575000D01*
X127656374Y-92574699D01*
X127650307Y-92573799D01*
X127644357Y-92572309D01*
X127638582Y-92570242D01*
X127633038Y-92567620D01*
X127627777Y-92564467D01*
X127622850Y-92560813D01*
X127618306Y-92556694D01*
X127614187Y-92552150D01*
X127610533Y-92547223D01*
X127607380Y-92541962D01*
X127604758Y-92536418D01*
X127602691Y-92530643D01*
X127601201Y-92524693D01*
X127600301Y-92518626D01*
X127600000Y-92512500D01*
X127600000Y-92387500D01*
X127600301Y-92381374D01*
X127601201Y-92375307D01*
X127602691Y-92369357D01*
X127604758Y-92363582D01*
X127607380Y-92358038D01*
X127610533Y-92352777D01*
X127614187Y-92347850D01*
X127618306Y-92343306D01*
X127622850Y-92339187D01*
X127627777Y-92335533D01*
X127633038Y-92332380D01*
X127638582Y-92329758D01*
X127644357Y-92327691D01*
X127650307Y-92326201D01*
X127656374Y-92325301D01*
X127662500Y-92325000D01*
X128412500Y-92325000D01*
X128418626Y-92325301D01*
X128418626Y-92325301D01*
G37*
D18*
G04 #@! TD*
G04 #@! TO.P,U1,22*
G04 #@! TO.N,N/C*
X128037500Y-92450000D03*
D12*
G04 #@! TO.N,N/C*
G04 #@! TO.C,U1*
G36*
X128418626Y-91825301D02*
X128424693Y-91826201D01*
X128430643Y-91827691D01*
X128436418Y-91829758D01*
X128441962Y-91832380D01*
X128447223Y-91835533D01*
X128452150Y-91839187D01*
X128456694Y-91843306D01*
X128460813Y-91847850D01*
X128464467Y-91852777D01*
X128467620Y-91858038D01*
X128470242Y-91863582D01*
X128472309Y-91869357D01*
X128473799Y-91875307D01*
X128474699Y-91881374D01*
X128475000Y-91887500D01*
X128475000Y-92012500D01*
X128474699Y-92018626D01*
X128473799Y-92024693D01*
X128472309Y-92030643D01*
X128470242Y-92036418D01*
X128467620Y-92041962D01*
X128464467Y-92047223D01*
X128460813Y-92052150D01*
X128456694Y-92056694D01*
X128452150Y-92060813D01*
X128447223Y-92064467D01*
X128441962Y-92067620D01*
X128436418Y-92070242D01*
X128430643Y-92072309D01*
X128424693Y-92073799D01*
X128418626Y-92074699D01*
X128412500Y-92075000D01*
X127662500Y-92075000D01*
X127656374Y-92074699D01*
X127650307Y-92073799D01*
X127644357Y-92072309D01*
X127638582Y-92070242D01*
X127633038Y-92067620D01*
X127627777Y-92064467D01*
X127622850Y-92060813D01*
X127618306Y-92056694D01*
X127614187Y-92052150D01*
X127610533Y-92047223D01*
X127607380Y-92041962D01*
X127604758Y-92036418D01*
X127602691Y-92030643D01*
X127601201Y-92024693D01*
X127600301Y-92018626D01*
X127600000Y-92012500D01*
X127600000Y-91887500D01*
X127600301Y-91881374D01*
X127601201Y-91875307D01*
X127602691Y-91869357D01*
X127604758Y-91863582D01*
X127607380Y-91858038D01*
X127610533Y-91852777D01*
X127614187Y-91847850D01*
X127618306Y-91843306D01*
X127622850Y-91839187D01*
X127627777Y-91835533D01*
X127633038Y-91832380D01*
X127638582Y-91829758D01*
X127644357Y-91827691D01*
X127650307Y-91826201D01*
X127656374Y-91825301D01*
X127662500Y-91825000D01*
X128412500Y-91825000D01*
X128418626Y-91825301D01*
X128418626Y-91825301D01*
G37*
D18*
G04 #@! TD*
G04 #@! TO.P,U1,23*
G04 #@! TO.N,N/C*
X128037500Y-91950000D03*
D12*
G04 #@! TO.N,N/C*
G04 #@! TO.C,U1*
G36*
X128418626Y-91325301D02*
X128424693Y-91326201D01*
X128430643Y-91327691D01*
X128436418Y-91329758D01*
X128441962Y-91332380D01*
X128447223Y-91335533D01*
X128452150Y-91339187D01*
X128456694Y-91343306D01*
X128460813Y-91347850D01*
X128464467Y-91352777D01*
X128467620Y-91358038D01*
X128470242Y-91363582D01*
X128472309Y-91369357D01*
X128473799Y-91375307D01*
X128474699Y-91381374D01*
X128475000Y-91387500D01*
X128475000Y-91512500D01*
X128474699Y-91518626D01*
X128473799Y-91524693D01*
X128472309Y-91530643D01*
X128470242Y-91536418D01*
X128467620Y-91541962D01*
X128464467Y-91547223D01*
X128460813Y-91552150D01*
X128456694Y-91556694D01*
X128452150Y-91560813D01*
X128447223Y-91564467D01*
X128441962Y-91567620D01*
X128436418Y-91570242D01*
X128430643Y-91572309D01*
X128424693Y-91573799D01*
X128418626Y-91574699D01*
X128412500Y-91575000D01*
X127662500Y-91575000D01*
X127656374Y-91574699D01*
X127650307Y-91573799D01*
X127644357Y-91572309D01*
X127638582Y-91570242D01*
X127633038Y-91567620D01*
X127627777Y-91564467D01*
X127622850Y-91560813D01*
X127618306Y-91556694D01*
X127614187Y-91552150D01*
X127610533Y-91547223D01*
X127607380Y-91541962D01*
X127604758Y-91536418D01*
X127602691Y-91530643D01*
X127601201Y-91524693D01*
X127600301Y-91518626D01*
X127600000Y-91512500D01*
X127600000Y-91387500D01*
X127600301Y-91381374D01*
X127601201Y-91375307D01*
X127602691Y-91369357D01*
X127604758Y-91363582D01*
X127607380Y-91358038D01*
X127610533Y-91352777D01*
X127614187Y-91347850D01*
X127618306Y-91343306D01*
X127622850Y-91339187D01*
X127627777Y-91335533D01*
X127633038Y-91332380D01*
X127638582Y-91329758D01*
X127644357Y-91327691D01*
X127650307Y-91326201D01*
X127656374Y-91325301D01*
X127662500Y-91325000D01*
X128412500Y-91325000D01*
X128418626Y-91325301D01*
X128418626Y-91325301D01*
G37*
D18*
G04 #@! TD*
G04 #@! TO.P,U1,24*
G04 #@! TO.N,N/C*
X128037500Y-91450000D03*
D12*
G04 #@! TO.N,N/C*
G04 #@! TO.C,U1*
G36*
X127418626Y-90325301D02*
X127424693Y-90326201D01*
X127430643Y-90327691D01*
X127436418Y-90329758D01*
X127441962Y-90332380D01*
X127447223Y-90335533D01*
X127452150Y-90339187D01*
X127456694Y-90343306D01*
X127460813Y-90347850D01*
X127464467Y-90352777D01*
X127467620Y-90358038D01*
X127470242Y-90363582D01*
X127472309Y-90369357D01*
X127473799Y-90375307D01*
X127474699Y-90381374D01*
X127475000Y-90387500D01*
X127475000Y-91137500D01*
X127474699Y-91143626D01*
X127473799Y-91149693D01*
X127472309Y-91155643D01*
X127470242Y-91161418D01*
X127467620Y-91166962D01*
X127464467Y-91172223D01*
X127460813Y-91177150D01*
X127456694Y-91181694D01*
X127452150Y-91185813D01*
X127447223Y-91189467D01*
X127441962Y-91192620D01*
X127436418Y-91195242D01*
X127430643Y-91197309D01*
X127424693Y-91198799D01*
X127418626Y-91199699D01*
X127412500Y-91200000D01*
X127287500Y-91200000D01*
X127281374Y-91199699D01*
X127275307Y-91198799D01*
X127269357Y-91197309D01*
X127263582Y-91195242D01*
X127258038Y-91192620D01*
X127252777Y-91189467D01*
X127247850Y-91185813D01*
X127243306Y-91181694D01*
X127239187Y-91177150D01*
X127235533Y-91172223D01*
X127232380Y-91166962D01*
X127229758Y-91161418D01*
X127227691Y-91155643D01*
X127226201Y-91149693D01*
X127225301Y-91143626D01*
X127225000Y-91137500D01*
X127225000Y-90387500D01*
X127225301Y-90381374D01*
X127226201Y-90375307D01*
X127227691Y-90369357D01*
X127229758Y-90363582D01*
X127232380Y-90358038D01*
X127235533Y-90352777D01*
X127239187Y-90347850D01*
X127243306Y-90343306D01*
X127247850Y-90339187D01*
X127252777Y-90335533D01*
X127258038Y-90332380D01*
X127263582Y-90329758D01*
X127269357Y-90327691D01*
X127275307Y-90326201D01*
X127281374Y-90325301D01*
X127287500Y-90325000D01*
X127412500Y-90325000D01*
X127418626Y-90325301D01*
X127418626Y-90325301D01*
G37*
D18*
G04 #@! TD*
G04 #@! TO.P,U1,25*
G04 #@! TO.N,N/C*
X127350000Y-90762500D03*
D12*
G04 #@! TO.N,N/C*
G04 #@! TO.C,U1*
G36*
X126918626Y-90325301D02*
X126924693Y-90326201D01*
X126930643Y-90327691D01*
X126936418Y-90329758D01*
X126941962Y-90332380D01*
X126947223Y-90335533D01*
X126952150Y-90339187D01*
X126956694Y-90343306D01*
X126960813Y-90347850D01*
X126964467Y-90352777D01*
X126967620Y-90358038D01*
X126970242Y-90363582D01*
X126972309Y-90369357D01*
X126973799Y-90375307D01*
X126974699Y-90381374D01*
X126975000Y-90387500D01*
X126975000Y-91137500D01*
X126974699Y-91143626D01*
X126973799Y-91149693D01*
X126972309Y-91155643D01*
X126970242Y-91161418D01*
X126967620Y-91166962D01*
X126964467Y-91172223D01*
X126960813Y-91177150D01*
X126956694Y-91181694D01*
X126952150Y-91185813D01*
X126947223Y-91189467D01*
X126941962Y-91192620D01*
X126936418Y-91195242D01*
X126930643Y-91197309D01*
X126924693Y-91198799D01*
X126918626Y-91199699D01*
X126912500Y-91200000D01*
X126787500Y-91200000D01*
X126781374Y-91199699D01*
X126775307Y-91198799D01*
X126769357Y-91197309D01*
X126763582Y-91195242D01*
X126758038Y-91192620D01*
X126752777Y-91189467D01*
X126747850Y-91185813D01*
X126743306Y-91181694D01*
X126739187Y-91177150D01*
X126735533Y-91172223D01*
X126732380Y-91166962D01*
X126729758Y-91161418D01*
X126727691Y-91155643D01*
X126726201Y-91149693D01*
X126725301Y-91143626D01*
X126725000Y-91137500D01*
X126725000Y-90387500D01*
X126725301Y-90381374D01*
X126726201Y-90375307D01*
X126727691Y-90369357D01*
X126729758Y-90363582D01*
X126732380Y-90358038D01*
X126735533Y-90352777D01*
X126739187Y-90347850D01*
X126743306Y-90343306D01*
X126747850Y-90339187D01*
X126752777Y-90335533D01*
X126758038Y-90332380D01*
X126763582Y-90329758D01*
X126769357Y-90327691D01*
X126775307Y-90326201D01*
X126781374Y-90325301D01*
X126787500Y-90325000D01*
X126912500Y-90325000D01*
X126918626Y-90325301D01*
X126918626Y-90325301D01*
G37*
D18*
G04 #@! TD*
G04 #@! TO.P,U1,26*
G04 #@! TO.N,N/C*
X126850000Y-90762500D03*
D12*
G04 #@! TO.N,N/C*
G04 #@! TO.C,U1*
G36*
X126418626Y-90325301D02*
X126424693Y-90326201D01*
X126430643Y-90327691D01*
X126436418Y-90329758D01*
X126441962Y-90332380D01*
X126447223Y-90335533D01*
X126452150Y-90339187D01*
X126456694Y-90343306D01*
X126460813Y-90347850D01*
X126464467Y-90352777D01*
X126467620Y-90358038D01*
X126470242Y-90363582D01*
X126472309Y-90369357D01*
X126473799Y-90375307D01*
X126474699Y-90381374D01*
X126475000Y-90387500D01*
X126475000Y-91137500D01*
X126474699Y-91143626D01*
X126473799Y-91149693D01*
X126472309Y-91155643D01*
X126470242Y-91161418D01*
X126467620Y-91166962D01*
X126464467Y-91172223D01*
X126460813Y-91177150D01*
X126456694Y-91181694D01*
X126452150Y-91185813D01*
X126447223Y-91189467D01*
X126441962Y-91192620D01*
X126436418Y-91195242D01*
X126430643Y-91197309D01*
X126424693Y-91198799D01*
X126418626Y-91199699D01*
X126412500Y-91200000D01*
X126287500Y-91200000D01*
X126281374Y-91199699D01*
X126275307Y-91198799D01*
X126269357Y-91197309D01*
X126263582Y-91195242D01*
X126258038Y-91192620D01*
X126252777Y-91189467D01*
X126247850Y-91185813D01*
X126243306Y-91181694D01*
X126239187Y-91177150D01*
X126235533Y-91172223D01*
X126232380Y-91166962D01*
X126229758Y-91161418D01*
X126227691Y-91155643D01*
X126226201Y-91149693D01*
X126225301Y-91143626D01*
X126225000Y-91137500D01*
X126225000Y-90387500D01*
X126225301Y-90381374D01*
X126226201Y-90375307D01*
X126227691Y-90369357D01*
X126229758Y-90363582D01*
X126232380Y-90358038D01*
X126235533Y-90352777D01*
X126239187Y-90347850D01*
X126243306Y-90343306D01*
X126247850Y-90339187D01*
X126252777Y-90335533D01*
X126258038Y-90332380D01*
X126263582Y-90329758D01*
X126269357Y-90327691D01*
X126275307Y-90326201D01*
X126281374Y-90325301D01*
X126287500Y-90325000D01*
X126412500Y-90325000D01*
X126418626Y-90325301D01*
X126418626Y-90325301D01*
G37*
D18*
G04 #@! TD*
G04 #@! TO.P,U1,27*
G04 #@! TO.N,N/C*
X126350000Y-90762500D03*
D12*
G04 #@! TO.N,N/C*
G04 #@! TO.C,U1*
G36*
X125918626Y-90325301D02*
X125924693Y-90326201D01*
X125930643Y-90327691D01*
X125936418Y-90329758D01*
X125941962Y-90332380D01*
X125947223Y-90335533D01*
X125952150Y-90339187D01*
X125956694Y-90343306D01*
X125960813Y-90347850D01*
X125964467Y-90352777D01*
X125967620Y-90358038D01*
X125970242Y-90363582D01*
X125972309Y-90369357D01*
X125973799Y-90375307D01*
X125974699Y-90381374D01*
X125975000Y-90387500D01*
X125975000Y-91137500D01*
X125974699Y-91143626D01*
X125973799Y-91149693D01*
X125972309Y-91155643D01*
X125970242Y-91161418D01*
X125967620Y-91166962D01*
X125964467Y-91172223D01*
X125960813Y-91177150D01*
X125956694Y-91181694D01*
X125952150Y-91185813D01*
X125947223Y-91189467D01*
X125941962Y-91192620D01*
X125936418Y-91195242D01*
X125930643Y-91197309D01*
X125924693Y-91198799D01*
X125918626Y-91199699D01*
X125912500Y-91200000D01*
X125787500Y-91200000D01*
X125781374Y-91199699D01*
X125775307Y-91198799D01*
X125769357Y-91197309D01*
X125763582Y-91195242D01*
X125758038Y-91192620D01*
X125752777Y-91189467D01*
X125747850Y-91185813D01*
X125743306Y-91181694D01*
X125739187Y-91177150D01*
X125735533Y-91172223D01*
X125732380Y-91166962D01*
X125729758Y-91161418D01*
X125727691Y-91155643D01*
X125726201Y-91149693D01*
X125725301Y-91143626D01*
X125725000Y-91137500D01*
X125725000Y-90387500D01*
X125725301Y-90381374D01*
X125726201Y-90375307D01*
X125727691Y-90369357D01*
X125729758Y-90363582D01*
X125732380Y-90358038D01*
X125735533Y-90352777D01*
X125739187Y-90347850D01*
X125743306Y-90343306D01*
X125747850Y-90339187D01*
X125752777Y-90335533D01*
X125758038Y-90332380D01*
X125763582Y-90329758D01*
X125769357Y-90327691D01*
X125775307Y-90326201D01*
X125781374Y-90325301D01*
X125787500Y-90325000D01*
X125912500Y-90325000D01*
X125918626Y-90325301D01*
X125918626Y-90325301D01*
G37*
D18*
G04 #@! TD*
G04 #@! TO.P,U1,28*
G04 #@! TO.N,N/C*
X125850000Y-90762500D03*
D12*
G04 #@! TO.N,RES*
G04 #@! TO.C,U1*
G36*
X125418626Y-90325301D02*
X125424693Y-90326201D01*
X125430643Y-90327691D01*
X125436418Y-90329758D01*
X125441962Y-90332380D01*
X125447223Y-90335533D01*
X125452150Y-90339187D01*
X125456694Y-90343306D01*
X125460813Y-90347850D01*
X125464467Y-90352777D01*
X125467620Y-90358038D01*
X125470242Y-90363582D01*
X125472309Y-90369357D01*
X125473799Y-90375307D01*
X125474699Y-90381374D01*
X125475000Y-90387500D01*
X125475000Y-91137500D01*
X125474699Y-91143626D01*
X125473799Y-91149693D01*
X125472309Y-91155643D01*
X125470242Y-91161418D01*
X125467620Y-91166962D01*
X125464467Y-91172223D01*
X125460813Y-91177150D01*
X125456694Y-91181694D01*
X125452150Y-91185813D01*
X125447223Y-91189467D01*
X125441962Y-91192620D01*
X125436418Y-91195242D01*
X125430643Y-91197309D01*
X125424693Y-91198799D01*
X125418626Y-91199699D01*
X125412500Y-91200000D01*
X125287500Y-91200000D01*
X125281374Y-91199699D01*
X125275307Y-91198799D01*
X125269357Y-91197309D01*
X125263582Y-91195242D01*
X125258038Y-91192620D01*
X125252777Y-91189467D01*
X125247850Y-91185813D01*
X125243306Y-91181694D01*
X125239187Y-91177150D01*
X125235533Y-91172223D01*
X125232380Y-91166962D01*
X125229758Y-91161418D01*
X125227691Y-91155643D01*
X125226201Y-91149693D01*
X125225301Y-91143626D01*
X125225000Y-91137500D01*
X125225000Y-90387500D01*
X125225301Y-90381374D01*
X125226201Y-90375307D01*
X125227691Y-90369357D01*
X125229758Y-90363582D01*
X125232380Y-90358038D01*
X125235533Y-90352777D01*
X125239187Y-90347850D01*
X125243306Y-90343306D01*
X125247850Y-90339187D01*
X125252777Y-90335533D01*
X125258038Y-90332380D01*
X125263582Y-90329758D01*
X125269357Y-90327691D01*
X125275307Y-90326201D01*
X125281374Y-90325301D01*
X125287500Y-90325000D01*
X125412500Y-90325000D01*
X125418626Y-90325301D01*
X125418626Y-90325301D01*
G37*
D18*
G04 #@! TD*
G04 #@! TO.P,U1,29*
G04 #@! TO.N,RES*
X125350000Y-90762500D03*
D12*
G04 #@! TO.N,RX*
G04 #@! TO.C,U1*
G36*
X124918626Y-90325301D02*
X124924693Y-90326201D01*
X124930643Y-90327691D01*
X124936418Y-90329758D01*
X124941962Y-90332380D01*
X124947223Y-90335533D01*
X124952150Y-90339187D01*
X124956694Y-90343306D01*
X124960813Y-90347850D01*
X124964467Y-90352777D01*
X124967620Y-90358038D01*
X124970242Y-90363582D01*
X124972309Y-90369357D01*
X124973799Y-90375307D01*
X124974699Y-90381374D01*
X124975000Y-90387500D01*
X124975000Y-91137500D01*
X124974699Y-91143626D01*
X124973799Y-91149693D01*
X124972309Y-91155643D01*
X124970242Y-91161418D01*
X124967620Y-91166962D01*
X124964467Y-91172223D01*
X124960813Y-91177150D01*
X124956694Y-91181694D01*
X124952150Y-91185813D01*
X124947223Y-91189467D01*
X124941962Y-91192620D01*
X124936418Y-91195242D01*
X124930643Y-91197309D01*
X124924693Y-91198799D01*
X124918626Y-91199699D01*
X124912500Y-91200000D01*
X124787500Y-91200000D01*
X124781374Y-91199699D01*
X124775307Y-91198799D01*
X124769357Y-91197309D01*
X124763582Y-91195242D01*
X124758038Y-91192620D01*
X124752777Y-91189467D01*
X124747850Y-91185813D01*
X124743306Y-91181694D01*
X124739187Y-91177150D01*
X124735533Y-91172223D01*
X124732380Y-91166962D01*
X124729758Y-91161418D01*
X124727691Y-91155643D01*
X124726201Y-91149693D01*
X124725301Y-91143626D01*
X124725000Y-91137500D01*
X124725000Y-90387500D01*
X124725301Y-90381374D01*
X124726201Y-90375307D01*
X124727691Y-90369357D01*
X124729758Y-90363582D01*
X124732380Y-90358038D01*
X124735533Y-90352777D01*
X124739187Y-90347850D01*
X124743306Y-90343306D01*
X124747850Y-90339187D01*
X124752777Y-90335533D01*
X124758038Y-90332380D01*
X124763582Y-90329758D01*
X124769357Y-90327691D01*
X124775307Y-90326201D01*
X124781374Y-90325301D01*
X124787500Y-90325000D01*
X124912500Y-90325000D01*
X124918626Y-90325301D01*
X124918626Y-90325301D01*
G37*
D18*
G04 #@! TD*
G04 #@! TO.P,U1,30*
G04 #@! TO.N,RX*
X124850000Y-90762500D03*
D12*
G04 #@! TO.N,TX*
G04 #@! TO.C,U1*
G36*
X124418626Y-90325301D02*
X124424693Y-90326201D01*
X124430643Y-90327691D01*
X124436418Y-90329758D01*
X124441962Y-90332380D01*
X124447223Y-90335533D01*
X124452150Y-90339187D01*
X124456694Y-90343306D01*
X124460813Y-90347850D01*
X124464467Y-90352777D01*
X124467620Y-90358038D01*
X124470242Y-90363582D01*
X124472309Y-90369357D01*
X124473799Y-90375307D01*
X124474699Y-90381374D01*
X124475000Y-90387500D01*
X124475000Y-91137500D01*
X124474699Y-91143626D01*
X124473799Y-91149693D01*
X124472309Y-91155643D01*
X124470242Y-91161418D01*
X124467620Y-91166962D01*
X124464467Y-91172223D01*
X124460813Y-91177150D01*
X124456694Y-91181694D01*
X124452150Y-91185813D01*
X124447223Y-91189467D01*
X124441962Y-91192620D01*
X124436418Y-91195242D01*
X124430643Y-91197309D01*
X124424693Y-91198799D01*
X124418626Y-91199699D01*
X124412500Y-91200000D01*
X124287500Y-91200000D01*
X124281374Y-91199699D01*
X124275307Y-91198799D01*
X124269357Y-91197309D01*
X124263582Y-91195242D01*
X124258038Y-91192620D01*
X124252777Y-91189467D01*
X124247850Y-91185813D01*
X124243306Y-91181694D01*
X124239187Y-91177150D01*
X124235533Y-91172223D01*
X124232380Y-91166962D01*
X124229758Y-91161418D01*
X124227691Y-91155643D01*
X124226201Y-91149693D01*
X124225301Y-91143626D01*
X124225000Y-91137500D01*
X124225000Y-90387500D01*
X124225301Y-90381374D01*
X124226201Y-90375307D01*
X124227691Y-90369357D01*
X124229758Y-90363582D01*
X124232380Y-90358038D01*
X124235533Y-90352777D01*
X124239187Y-90347850D01*
X124243306Y-90343306D01*
X124247850Y-90339187D01*
X124252777Y-90335533D01*
X124258038Y-90332380D01*
X124263582Y-90329758D01*
X124269357Y-90327691D01*
X124275307Y-90326201D01*
X124281374Y-90325301D01*
X124287500Y-90325000D01*
X124412500Y-90325000D01*
X124418626Y-90325301D01*
X124418626Y-90325301D01*
G37*
D18*
G04 #@! TD*
G04 #@! TO.P,U1,31*
G04 #@! TO.N,TX*
X124350000Y-90762500D03*
D12*
G04 #@! TO.N,N/C*
G04 #@! TO.C,U1*
G36*
X123918626Y-90325301D02*
X123924693Y-90326201D01*
X123930643Y-90327691D01*
X123936418Y-90329758D01*
X123941962Y-90332380D01*
X123947223Y-90335533D01*
X123952150Y-90339187D01*
X123956694Y-90343306D01*
X123960813Y-90347850D01*
X123964467Y-90352777D01*
X123967620Y-90358038D01*
X123970242Y-90363582D01*
X123972309Y-90369357D01*
X123973799Y-90375307D01*
X123974699Y-90381374D01*
X123975000Y-90387500D01*
X123975000Y-91137500D01*
X123974699Y-91143626D01*
X123973799Y-91149693D01*
X123972309Y-91155643D01*
X123970242Y-91161418D01*
X123967620Y-91166962D01*
X123964467Y-91172223D01*
X123960813Y-91177150D01*
X123956694Y-91181694D01*
X123952150Y-91185813D01*
X123947223Y-91189467D01*
X123941962Y-91192620D01*
X123936418Y-91195242D01*
X123930643Y-91197309D01*
X123924693Y-91198799D01*
X123918626Y-91199699D01*
X123912500Y-91200000D01*
X123787500Y-91200000D01*
X123781374Y-91199699D01*
X123775307Y-91198799D01*
X123769357Y-91197309D01*
X123763582Y-91195242D01*
X123758038Y-91192620D01*
X123752777Y-91189467D01*
X123747850Y-91185813D01*
X123743306Y-91181694D01*
X123739187Y-91177150D01*
X123735533Y-91172223D01*
X123732380Y-91166962D01*
X123729758Y-91161418D01*
X123727691Y-91155643D01*
X123726201Y-91149693D01*
X123725301Y-91143626D01*
X123725000Y-91137500D01*
X123725000Y-90387500D01*
X123725301Y-90381374D01*
X123726201Y-90375307D01*
X123727691Y-90369357D01*
X123729758Y-90363582D01*
X123732380Y-90358038D01*
X123735533Y-90352777D01*
X123739187Y-90347850D01*
X123743306Y-90343306D01*
X123747850Y-90339187D01*
X123752777Y-90335533D01*
X123758038Y-90332380D01*
X123763582Y-90329758D01*
X123769357Y-90327691D01*
X123775307Y-90326201D01*
X123781374Y-90325301D01*
X123787500Y-90325000D01*
X123912500Y-90325000D01*
X123918626Y-90325301D01*
X123918626Y-90325301D01*
G37*
D18*
G04 #@! TD*
G04 #@! TO.P,U1,32*
G04 #@! TO.N,N/C*
X123850000Y-90762500D03*
D19*
G04 #@! TO.N,Earth*
X132500000Y-89800000D03*
X120000000Y-96400000D03*
X119400000Y-91000000D03*
X121400000Y-93900000D03*
X122700000Y-98300000D03*
G04 #@! TO.N,/SCK*
X129300000Y-96200000D03*
X131100000Y-89900000D03*
G04 #@! TO.N,/MOSI*
X129000000Y-97800000D03*
X130100000Y-89400000D03*
G04 #@! TO.N,/MISO*
X130600000Y-97600000D03*
G04 #@! TO.N,/CE_R*
X126200000Y-96800000D03*
G04 #@! TO.N,/CSN*
X129600000Y-94800000D03*
X124000000Y-97600000D03*
X129100000Y-90400000D03*
G04 #@! TO.N,+3V3*
X127500000Y-89600000D03*
X122800000Y-90600000D03*
X133850010Y-87250010D03*
G04 #@! TO.N,/CE_I*
X122600000Y-95800000D03*
X131600000Y-89000000D03*
G04 #@! TO.N,INT*
X123200000Y-96800000D03*
X132200000Y-96500000D03*
G04 #@! TD*
D20*
G04 #@! TO.N,Earth*
X125850000Y-92950000D02*
X125600000Y-93200000D01*
X128037500Y-92950000D02*
X125850000Y-92950000D01*
X124850000Y-92450000D02*
X123162500Y-92450000D01*
X125600000Y-93200000D02*
X124850000Y-92450000D01*
X123700000Y-93450000D02*
X123162500Y-93450000D01*
X123950000Y-93200000D02*
X123700000Y-93450000D01*
X125600000Y-93200000D02*
X123950000Y-93200000D01*
D21*
X118500000Y-89687500D02*
X118612500Y-89800000D01*
X118500000Y-88000000D02*
X118500000Y-89687500D01*
D22*
X132600000Y-92600000D02*
X132600000Y-92200000D01*
X132600000Y-92600000D02*
X132600000Y-91200000D01*
X132600000Y-94400000D02*
X132600000Y-92600000D01*
X132600000Y-88812500D02*
X132612500Y-88800000D01*
X132600000Y-90000000D02*
X132400000Y-90000000D01*
X132600000Y-91200000D02*
X132600000Y-90000000D01*
X132400000Y-90000000D02*
X132400000Y-90000000D01*
D21*
X134400000Y-97787500D02*
X134387500Y-97800000D01*
X134400000Y-96387500D02*
X134400000Y-97787500D01*
X120012500Y-96387500D02*
X120000000Y-96400000D01*
X120000000Y-96400000D02*
X119587500Y-95987500D01*
X119587500Y-95987500D02*
X120000000Y-96400000D01*
X118400000Y-95987500D02*
X119587500Y-95987500D01*
X118650000Y-96237500D02*
X118400000Y-95987500D01*
X118650000Y-98000000D02*
X118650000Y-96237500D01*
X118650000Y-97750000D02*
X120000000Y-96400000D01*
X118650000Y-98000000D02*
X118650000Y-97750000D01*
D23*
X118612500Y-90212500D02*
X119400000Y-91000000D01*
X118612500Y-89800000D02*
X118612500Y-90212500D01*
D24*
X121904953Y-93450000D02*
X121500000Y-93900000D01*
X123162500Y-93450000D02*
X121904953Y-93450000D01*
X121654953Y-93700000D02*
X121654953Y-93745047D01*
X121654953Y-93745047D02*
X121500000Y-93900000D01*
X121500000Y-93900000D02*
X121654953Y-93700000D01*
D21*
X119812500Y-96212500D02*
X120000000Y-96400000D01*
X119812500Y-95100000D02*
X119812500Y-96212500D01*
D24*
X117725000Y-93050000D02*
X117650010Y-92975010D01*
X118500000Y-93050000D02*
X117725000Y-93050000D01*
X117650010Y-90762490D02*
X118612500Y-89800000D01*
X117650010Y-92975010D02*
X117650010Y-90762490D01*
D21*
X132712500Y-89587500D02*
X132500000Y-89800000D01*
X132712500Y-88400000D02*
X132712500Y-89587500D01*
D24*
X133587490Y-90682488D02*
X133587490Y-91749999D01*
X133105001Y-90199999D02*
X133587490Y-90682488D01*
X132899999Y-90199999D02*
X133105001Y-90199999D01*
X132500000Y-89800000D02*
X132899999Y-90199999D01*
X134387500Y-98275000D02*
X134062500Y-98600000D01*
X134387500Y-97700000D02*
X134387500Y-98275000D01*
X123000000Y-98600000D02*
X122700000Y-98300000D01*
X122700000Y-98300000D02*
X123000000Y-98600000D01*
X123000000Y-98600000D02*
X125600000Y-98600000D01*
X134062500Y-98600000D02*
X125600000Y-98600000D01*
X125600000Y-98600000D02*
X125300000Y-98600000D01*
D21*
G04 #@! TO.N,VCC*
X120300000Y-88000000D02*
X122212500Y-88000000D01*
X120300000Y-89687500D02*
X120187500Y-89800000D01*
X120300000Y-88000000D02*
X120300000Y-89687500D01*
D23*
X120700000Y-90312500D02*
X120700000Y-91750000D01*
X120187500Y-89800000D02*
X120700000Y-90312500D01*
D24*
X118500000Y-91750000D02*
X120700000Y-91750000D01*
D22*
G04 #@! TO.N,/SCK*
X128050000Y-94950000D02*
X129300000Y-96200000D01*
X128037500Y-94950000D02*
X128050000Y-94950000D01*
X129300000Y-96200000D02*
X129400000Y-96200000D01*
X129300000Y-96200000D02*
X129300000Y-96200000D01*
X131400000Y-90625000D02*
X131400000Y-91200000D01*
X131100000Y-90325000D02*
X131400000Y-90625000D01*
X131100000Y-89900000D02*
X131100000Y-90325000D01*
G04 #@! TO.N,/MOSI*
X126850000Y-96175000D02*
X127075000Y-96400000D01*
X126850000Y-95637500D02*
X126850000Y-96175000D01*
X129098300Y-97600000D02*
X129098300Y-97600000D01*
X127075000Y-96400000D02*
X127600000Y-96400000D01*
X127600000Y-96400000D02*
X128200000Y-97000000D01*
X128200000Y-97000000D02*
X129000000Y-97800000D01*
X131000000Y-91136002D02*
X131000000Y-91200000D01*
X131000000Y-90925000D02*
X131000000Y-91200000D01*
X130200000Y-90125000D02*
X131000000Y-90925000D01*
X130200000Y-89934301D02*
X130200000Y-90125000D01*
X130100000Y-89834301D02*
X130200000Y-89934301D01*
X130100000Y-89400000D02*
X130100000Y-89834301D01*
G04 #@! TO.N,/MISO*
X129765698Y-97000000D02*
X129800000Y-97000000D01*
X129765698Y-97000000D02*
X130000000Y-97000000D01*
X130600000Y-97600000D02*
X130600000Y-97600000D01*
X127350000Y-95637500D02*
X127545710Y-95833210D01*
X127545710Y-95833210D02*
X127897208Y-95833210D01*
X129734303Y-96900001D02*
X129800000Y-96965698D01*
X128963999Y-96900001D02*
X129734303Y-96900001D01*
X127897208Y-95833210D02*
X128963999Y-96900001D01*
X129765698Y-97000000D02*
X129800000Y-96965698D01*
X130200000Y-95801700D02*
X130200000Y-97200000D01*
X130401700Y-95600000D02*
X130200000Y-95801700D01*
X130000000Y-97000000D02*
X130200000Y-97200000D01*
X131800000Y-94400000D02*
X131800000Y-95300000D01*
X130200000Y-97200000D02*
X130600000Y-97600000D01*
X131800000Y-95300000D02*
X131765699Y-95300000D01*
X131765699Y-95300000D02*
X131465699Y-95600000D01*
X131465699Y-95600000D02*
X130401700Y-95600000D01*
G04 #@! TO.N,/CE_R*
X126200000Y-96800000D02*
X125850000Y-96450000D01*
X125850000Y-96450000D02*
X126200000Y-96800000D01*
X125850000Y-95637500D02*
X125850000Y-96450000D01*
G04 #@! TO.N,/CSN*
X125350000Y-95637500D02*
X125350000Y-96175000D01*
X129600000Y-94800000D02*
X129600000Y-94800000D01*
X125350000Y-96175000D02*
X125350000Y-96250000D01*
X125350000Y-96250000D02*
X124000000Y-97600000D01*
X124000000Y-97600000D02*
X124000000Y-97600000D01*
X129600000Y-94382120D02*
X129600000Y-94800000D01*
X129100000Y-90400000D02*
X129600000Y-90900000D01*
X129600000Y-90900000D02*
X129600000Y-94382120D01*
D24*
G04 #@! TO.N,RX*
X124850000Y-90000000D02*
X124850000Y-90762500D01*
X125700000Y-88100000D02*
X125700000Y-89150000D01*
X125700000Y-89150000D02*
X124850000Y-90000000D01*
G04 #@! TO.N,TX*
X124350000Y-88550000D02*
X123900000Y-88100000D01*
X124350000Y-90762500D02*
X124350000Y-88550000D01*
D20*
G04 #@! TO.N,RES*
X128200000Y-88350000D02*
X128200000Y-88200000D01*
D21*
X129012500Y-88200000D02*
X129412500Y-87800000D01*
X127800000Y-88200000D02*
X129012500Y-88200000D01*
D24*
X127500000Y-88250000D02*
X127500000Y-88100000D01*
X125950000Y-89800000D02*
X127500000Y-88250000D01*
X125350000Y-90225000D02*
X125350000Y-90762500D01*
X125775000Y-89800000D02*
X125350000Y-90225000D01*
X125950000Y-89800000D02*
X125775000Y-89800000D01*
D20*
G04 #@! TO.N,+3V3*
X119975000Y-93050000D02*
X120700000Y-93050000D01*
X119875000Y-93050000D02*
X119975000Y-93050000D01*
X122175000Y-92950000D02*
X123162500Y-92950000D01*
X121350000Y-95037500D02*
X121587500Y-94800000D01*
D22*
X133975000Y-93800000D02*
X134400000Y-94225000D01*
X133500000Y-93800000D02*
X133975000Y-93800000D01*
X128575000Y-94450000D02*
X128037500Y-94450000D01*
D21*
X121587500Y-97762500D02*
X121350000Y-98000000D01*
X120174999Y-93075001D02*
X120700000Y-93075001D01*
X119375010Y-93874990D02*
X120174999Y-93075001D01*
X118937510Y-93874990D02*
X119375010Y-93874990D01*
X118400000Y-94412500D02*
X118937510Y-93874990D01*
D24*
X119925000Y-93050000D02*
X120700000Y-93050000D01*
X119275000Y-92400000D02*
X119925000Y-93050000D01*
X118500000Y-92400000D02*
X119275000Y-92400000D01*
D23*
X122600000Y-90800000D02*
X122200001Y-91199999D01*
X120700000Y-93050000D02*
X120950000Y-93050000D01*
D21*
X130525888Y-88261612D02*
X130987500Y-87800000D01*
D22*
X131400000Y-94800000D02*
X131400000Y-94300000D01*
D24*
X129436032Y-88625010D02*
X129261042Y-88800000D01*
X130525888Y-88261612D02*
X130162490Y-88625010D01*
X130162490Y-88625010D02*
X129436032Y-88625010D01*
X129261042Y-88800000D02*
X129200000Y-88800000D01*
D21*
X133850010Y-87250010D02*
X134187500Y-87587500D01*
X131549990Y-87250010D02*
X133850010Y-87250010D01*
X131461612Y-87338388D02*
X131549990Y-87250010D01*
X130987500Y-87800000D02*
X131449112Y-87338388D01*
X131449112Y-87338388D02*
X131461612Y-87338388D01*
D22*
X128800000Y-94800000D02*
X128800000Y-94675000D01*
X128899999Y-94899999D02*
X128800000Y-94800000D01*
X128899999Y-95099999D02*
X128899999Y-94899999D01*
X131400000Y-94400000D02*
X131400000Y-95100000D01*
X131400000Y-95100000D02*
X131300000Y-95200000D01*
X131300000Y-95200000D02*
X130236002Y-95200000D01*
X130236002Y-95200000D02*
X129936003Y-95499999D01*
X129936003Y-95499999D02*
X129299999Y-95499999D01*
X129299999Y-95499999D02*
X128899999Y-95099999D01*
D24*
X122437500Y-93950000D02*
X121587500Y-94800000D01*
X123162500Y-93950000D02*
X122437500Y-93950000D01*
X121475000Y-93050000D02*
X120700000Y-93050000D01*
X121597833Y-93050000D02*
X121475000Y-93050000D01*
X121697833Y-92950000D02*
X121597833Y-93050000D01*
X122175000Y-92950000D02*
X121697833Y-92950000D01*
X122200001Y-92447832D02*
X121597833Y-93050000D01*
X122200001Y-91199999D02*
X122200001Y-92447832D01*
X120700000Y-93575000D02*
X120700000Y-93050000D01*
X120649999Y-93625001D02*
X120700000Y-93575000D01*
X120649999Y-94699999D02*
X120649999Y-93625001D01*
X120850000Y-94900000D02*
X120649999Y-94699999D01*
X121387500Y-94900000D02*
X120850000Y-94900000D01*
X127899999Y-89200001D02*
X127500000Y-89600000D01*
D23*
X128875010Y-94399990D02*
X128727044Y-94547956D01*
D22*
X128800000Y-94675000D02*
X128727044Y-94547956D01*
X128727044Y-94547956D02*
X128575000Y-94450000D01*
D24*
X128825010Y-94349990D02*
X128825010Y-91216632D01*
X128875010Y-94399990D02*
X128825010Y-94349990D01*
D22*
X128308387Y-90700009D02*
X128300000Y-90691622D01*
D24*
X128825010Y-91216632D02*
X128300000Y-90691622D01*
X128300000Y-90691622D02*
X128100000Y-90491622D01*
X128100000Y-90200000D02*
X128100000Y-90491622D01*
X127500000Y-89600000D02*
X128100000Y-90200000D01*
X129261042Y-88800000D02*
X129261032Y-88800010D01*
X129261032Y-88800010D02*
X128700010Y-88800010D01*
X128700010Y-88800010D02*
X128700000Y-88800000D01*
X128380001Y-89200001D02*
X127899999Y-89200001D01*
X128700010Y-88879992D02*
X128380001Y-89200001D01*
X128700010Y-88800010D02*
X128700010Y-88879992D01*
D22*
X130400000Y-90900000D02*
X130400000Y-91800000D01*
X129799990Y-90299990D02*
X130400000Y-90900000D01*
X129799990Y-90099990D02*
X129799990Y-90299990D01*
X129300000Y-89600000D02*
X129799990Y-90099990D01*
X127500000Y-89600000D02*
X129300000Y-89600000D01*
D21*
X134400000Y-94275000D02*
X134400000Y-94812500D01*
X134500000Y-94175000D02*
X134400000Y-94275000D01*
X134500000Y-91414998D02*
X134500000Y-94175000D01*
X134187500Y-91102498D02*
X134500000Y-91414998D01*
X134187500Y-87587500D02*
X134187500Y-91102498D01*
X133850010Y-87250010D02*
X134187500Y-87587500D01*
X121387500Y-97662500D02*
X121150000Y-97900000D01*
X121387500Y-95100000D02*
X121387500Y-97662500D01*
D23*
G04 #@! TO.N,Net-(IC1-Pad5)*
X121470002Y-92400000D02*
X121600000Y-92270002D01*
X120700000Y-92400000D02*
X121470002Y-92400000D01*
X121575001Y-92295001D02*
X121470002Y-92400000D01*
X121575001Y-90212499D02*
X121575001Y-92295001D01*
D21*
X121538388Y-89849112D02*
X121538388Y-90175886D01*
X122000000Y-89387500D02*
X121538388Y-89849112D01*
D22*
G04 #@! TO.N,Net-(C7-Pad1)*
X131199990Y-96000010D02*
X131631388Y-96000010D01*
X132712500Y-97900000D02*
X131936002Y-97900000D01*
X131936002Y-97900000D02*
X131100000Y-97063998D01*
X131631388Y-96000010D02*
X131931388Y-95700010D01*
X131100000Y-97063998D02*
X131100000Y-96100000D01*
X131100000Y-96100000D02*
X131199990Y-96000010D01*
X132200000Y-94400000D02*
X132200000Y-95465699D01*
X131931387Y-95700010D02*
X131865699Y-95765698D01*
X131965689Y-95700010D02*
X132200010Y-95465689D01*
X131931387Y-95700010D02*
X131965689Y-95700010D01*
X132200010Y-95465689D02*
X132200010Y-95400000D01*
G04 #@! TO.N,/CE_I*
X122762500Y-95637500D02*
X122600000Y-95800000D01*
X122600000Y-95800000D02*
X122762500Y-95637500D01*
X123687500Y-95800000D02*
X123850000Y-95637500D01*
X122600000Y-95800000D02*
X123687500Y-95800000D01*
X131800000Y-91200000D02*
X131800000Y-90436002D01*
X131800000Y-90436002D02*
X131776701Y-90436002D01*
X131800000Y-90436002D02*
X131800000Y-89300000D01*
X131700000Y-89300000D02*
X131400000Y-89000000D01*
X131800000Y-89300000D02*
X131700000Y-89300000D01*
G04 #@! TO.N,INT*
X133000000Y-95700000D02*
X132300000Y-96400000D01*
X133000000Y-94400000D02*
X133000000Y-95700000D01*
X124350000Y-96175000D02*
X124350000Y-95637500D01*
X124124999Y-96400001D02*
X124350000Y-96175000D01*
X123599999Y-96400001D02*
X124124999Y-96400001D01*
X123200000Y-96800000D02*
X123599999Y-96400001D01*
G04 #@! TD*
M02*
