M48
;DRILL file {KiCad (5.0.2)-1} date 01/25/20 18:04:32
;FORMAT={-:-/ absolute / metric / decimal}
FMAT,2
METRIC,TZ
T1C0.400
%
G90
G05
T1
X119.4Y-91.
X120.Y-96.4
X121.4Y-93.9
X122.6Y-95.8
X122.7Y-98.3
X122.8Y-90.6
X123.2Y-96.8
X124.Y-97.6
X126.2Y-96.8
X127.5Y-89.6
X129.Y-97.8
X129.1Y-90.4
X129.3Y-96.2
X129.6Y-94.8
X130.1Y-89.4
X130.6Y-97.6
X131.1Y-89.9
X131.6Y-89.
X132.2Y-96.5
X132.5Y-89.8
X133.85Y-87.25
T0
M30
