G04 #@! TF.GenerationSoftware,KiCad,Pcbnew,(5.0.2)-1*
G04 #@! TF.CreationDate,2020-01-25T18:04:34+01:00*
G04 #@! TF.ProjectId,4.0,342e302e-6b69-4636-9164-5f7063625858,rev?*
G04 #@! TF.SameCoordinates,Original*
G04 #@! TF.FileFunction,Copper,L2,Bot*
G04 #@! TF.FilePolarity,Positive*
%FSLAX46Y46*%
G04 Gerber Fmt 4.6, Leading zero omitted, Abs format (unit mm)*
G04 Created by KiCad (PCBNEW (5.0.2)-1) date 01/25/20 18:04:34*
%MOMM*%
%LPD*%
G01*
G04 APERTURE LIST*
G04 #@! TA.AperFunction,SMDPad,CuDef*
%ADD10R,1.500000X0.800000*%
G04 #@! TD*
G04 #@! TA.AperFunction,ViaPad*
%ADD11C,0.800000*%
G04 #@! TD*
G04 #@! TA.AperFunction,Conductor*
%ADD12C,0.200000*%
G04 #@! TD*
G04 #@! TA.AperFunction,Conductor*
%ADD13C,0.500000*%
G04 #@! TD*
G04 #@! TA.AperFunction,Conductor*
%ADD14C,0.300000*%
G04 #@! TD*
G04 #@! TA.AperFunction,Conductor*
%ADD15C,0.250000*%
G04 #@! TD*
G04 APERTURE END LIST*
D10*
G04 #@! TO.P,NRF24L01,5*
G04 #@! TO.N,/SCK*
X134000000Y-93560000D03*
G04 #@! TO.P,NRF24L01,6*
G04 #@! TO.N,/MOSI*
X134000000Y-94830000D03*
G04 #@! TO.P,NRF24L01,8*
G04 #@! TO.N,N/C*
X134000000Y-97370000D03*
G04 #@! TO.P,NRF24L01,7*
G04 #@! TO.N,/MISO*
X134000000Y-96100000D03*
G04 #@! TO.P,NRF24L01,3*
G04 #@! TO.N,/CE_R*
X134000000Y-91020000D03*
G04 #@! TO.P,NRF24L01,4*
G04 #@! TO.N,/CSN*
X134000000Y-92290000D03*
G04 #@! TO.P,NRF24L01,2*
G04 #@! TO.N,Earth*
X134000000Y-89750000D03*
G04 #@! TO.P,NRF24L01,1*
G04 #@! TO.N,+3V3*
X134000000Y-88480000D03*
G04 #@! TD*
D11*
G04 #@! TO.N,Earth*
X132500000Y-89800000D03*
X120000000Y-96400000D03*
X119400000Y-91000000D03*
X121400000Y-93900000D03*
X122700000Y-98300000D03*
G04 #@! TO.N,/SCK*
X129300000Y-96200000D03*
X131100000Y-89900000D03*
G04 #@! TO.N,/MOSI*
X129000000Y-97800000D03*
X130100000Y-89400000D03*
G04 #@! TO.N,/MISO*
X130600000Y-97600000D03*
G04 #@! TO.N,/CE_R*
X126200000Y-96800000D03*
G04 #@! TO.N,/CSN*
X129600000Y-94800000D03*
X124000000Y-97600000D03*
X129100000Y-90400000D03*
G04 #@! TO.N,+3V3*
X127500000Y-89600000D03*
X122800000Y-90600000D03*
X133850010Y-87250010D03*
G04 #@! TO.N,/CE_I*
X122600000Y-95800000D03*
X131600000Y-89000000D03*
G04 #@! TO.N,INT*
X123200000Y-96800000D03*
X132200000Y-96500000D03*
G04 #@! TD*
D12*
G04 #@! TO.N,Earth*
X132650000Y-89750000D02*
X132400000Y-90000000D01*
X134000000Y-89750000D02*
X132650000Y-89750000D01*
D13*
X121400000Y-93334315D02*
X121400000Y-93900000D01*
X121400000Y-90741998D02*
X121400000Y-93334315D01*
X123991999Y-88149999D02*
X121400000Y-90741998D01*
X121400000Y-93000000D02*
X119400000Y-91000000D01*
X121400000Y-93900000D02*
X121400000Y-93000000D01*
X121400000Y-95000000D02*
X120000000Y-96400000D01*
X121400000Y-93900000D02*
X121400000Y-95000000D01*
D14*
X124242008Y-87899990D02*
X123991999Y-88149999D01*
X131609992Y-87899990D02*
X124242008Y-87899990D01*
X132500000Y-88789998D02*
X131609992Y-87899990D01*
X132500000Y-89800000D02*
X132500000Y-88789998D01*
X120800000Y-96400000D02*
X122700000Y-98300000D01*
X120000000Y-96400000D02*
X120800000Y-96400000D01*
G04 #@! TO.N,/SCK*
X131940000Y-93560000D02*
X129300000Y-96200000D01*
X134000000Y-93560000D02*
X131940000Y-93560000D01*
D15*
X125851999Y-97525001D02*
X125474999Y-97148001D01*
X127974999Y-97525001D02*
X125851999Y-97525001D01*
X129300000Y-96200000D02*
X127974999Y-97525001D01*
X125474999Y-97148001D02*
X125474999Y-96325001D01*
X125474999Y-96325001D02*
X126700000Y-95100000D01*
X126700000Y-95100000D02*
X127300000Y-95100000D01*
X131100000Y-91300000D02*
X131100000Y-89900000D01*
X127300000Y-95100000D02*
X131100000Y-91300000D01*
G04 #@! TO.N,/MOSI*
X133650000Y-94830000D02*
X134000000Y-94830000D01*
D12*
X131970000Y-94830000D02*
X134000000Y-94830000D01*
X131706002Y-94830000D02*
X129200000Y-97336002D01*
X131970000Y-94830000D02*
X131706002Y-94830000D01*
X129200000Y-97336002D02*
X129200000Y-97600000D01*
D15*
X130100000Y-91063590D02*
X130100000Y-89400000D01*
X129000000Y-97800000D02*
X128336410Y-97800000D01*
X128161399Y-97975011D02*
X125665598Y-97975010D01*
X128336410Y-97800000D02*
X128161399Y-97975011D01*
X125665598Y-97975010D02*
X124800000Y-97109412D01*
X124800000Y-97109412D02*
X124800000Y-96363590D01*
X124800000Y-96363590D02*
X130100000Y-91063590D01*
D12*
G04 #@! TO.N,/MISO*
X133650000Y-96100000D02*
X134000000Y-96100000D01*
X134000000Y-96100000D02*
X134000000Y-96200000D01*
D14*
X130600000Y-97600000D02*
X132210002Y-97600000D01*
X132950001Y-96549999D02*
X132950001Y-96639997D01*
X133400000Y-96100000D02*
X132950001Y-96549999D01*
X134000000Y-96100000D02*
X133400000Y-96100000D01*
X132210002Y-97600000D02*
X132300000Y-97600000D01*
X132300000Y-97600000D02*
X132700000Y-97200000D01*
D15*
X132924999Y-96975001D02*
X132700000Y-97200000D01*
X132924999Y-96575001D02*
X132924999Y-96975001D01*
X132950001Y-96549999D02*
X132924999Y-96575001D01*
G04 #@! TO.N,/CE_R*
X126599999Y-96400001D02*
X126200000Y-96800000D01*
X126926997Y-96400001D02*
X126599999Y-96400001D01*
X132306998Y-91020000D02*
X126926997Y-96400001D01*
X134000000Y-91020000D02*
X132306998Y-91020000D01*
D14*
G04 #@! TO.N,/CSN*
X125000000Y-94000000D02*
X128000000Y-91000000D01*
X124000000Y-95634315D02*
X124000000Y-97600000D01*
X132110000Y-92290000D02*
X129600000Y-94800000D01*
X134000000Y-92290000D02*
X132110000Y-92290000D01*
X129100000Y-90400000D02*
X128500000Y-91000000D01*
X128500000Y-91000000D02*
X128000000Y-91000000D01*
D15*
X124000000Y-95000000D02*
X125000000Y-94000000D01*
X124000000Y-95634315D02*
X124000000Y-95000000D01*
D13*
G04 #@! TO.N,+3V3*
X133850010Y-88330010D02*
X134000000Y-88480000D01*
X133850010Y-87250010D02*
X133850010Y-88330010D01*
X123800000Y-89600000D02*
X127500000Y-89600000D01*
X122800000Y-90600000D02*
X123800000Y-89600000D01*
D14*
G04 #@! TO.N,/CE_I*
X131200000Y-88900000D02*
X131200000Y-88900000D01*
X131100000Y-88800000D02*
X131300000Y-89000000D01*
X122999999Y-95400001D02*
X122600000Y-95800000D01*
X122999999Y-94900001D02*
X122999999Y-95400001D01*
X127460001Y-90439999D02*
X122999999Y-94900001D01*
X131400000Y-89100000D02*
X130700000Y-88400000D01*
X130700000Y-88400000D02*
X129090000Y-88400000D01*
X128250001Y-89239999D02*
X128250001Y-89960001D01*
X129090000Y-88400000D02*
X128250001Y-89239999D01*
X128250001Y-89960001D02*
X127770003Y-90439999D01*
X127770003Y-90439999D02*
X127460001Y-90439999D01*
D12*
G04 #@! TO.N,INT*
X130701700Y-96400000D02*
X132300000Y-96400000D01*
X129200000Y-98600000D02*
X129798301Y-98001699D01*
X129798301Y-98001699D02*
X129798301Y-97303399D01*
X129798301Y-97303399D02*
X130701700Y-96400000D01*
X124200000Y-98600000D02*
X123900001Y-98300001D01*
X129200000Y-98600000D02*
X124200000Y-98600000D01*
X123900001Y-98300001D02*
X123700001Y-98300001D01*
X123200000Y-97800000D02*
X123200000Y-96800000D01*
X123700001Y-98300001D02*
X123200000Y-97800000D01*
G04 #@! TD*
G04 #@! TO.N,Earth*
G36*
X133150010Y-87110771D02*
X133150010Y-87389249D01*
X133256578Y-87646528D01*
X133300010Y-87689960D01*
X133300010Y-87774123D01*
X133250000Y-87774123D01*
X133132946Y-87797407D01*
X133033712Y-87863712D01*
X132967407Y-87962946D01*
X132944123Y-88080000D01*
X132944123Y-88818604D01*
X132905595Y-88834563D01*
X132734562Y-89005596D01*
X132642000Y-89229062D01*
X132642000Y-89444000D01*
X132794000Y-89596000D01*
X133846000Y-89596000D01*
X133846000Y-89576000D01*
X134154000Y-89576000D01*
X134154000Y-89596000D01*
X134174000Y-89596000D01*
X134174000Y-89904000D01*
X134154000Y-89904000D01*
X134154000Y-89924000D01*
X133846000Y-89924000D01*
X133846000Y-89904000D01*
X132794000Y-89904000D01*
X132642000Y-90056000D01*
X132642000Y-90270938D01*
X132734562Y-90494404D01*
X132835158Y-90595000D01*
X132348853Y-90595000D01*
X132306997Y-90586674D01*
X132265141Y-90595000D01*
X132265140Y-90595000D01*
X132141171Y-90619659D01*
X132000590Y-90713592D01*
X131976879Y-90749078D01*
X131525000Y-91200957D01*
X131525000Y-90464950D01*
X131693432Y-90296518D01*
X131800000Y-90039239D01*
X131800000Y-89760761D01*
X131769620Y-89687416D01*
X131996518Y-89593432D01*
X132193432Y-89396518D01*
X132300000Y-89139239D01*
X132300000Y-88860761D01*
X132193432Y-88603482D01*
X131996518Y-88406568D01*
X131739239Y-88300000D01*
X131460761Y-88300000D01*
X131302110Y-88365715D01*
X131049540Y-88113145D01*
X131024432Y-88075568D01*
X130875581Y-87976109D01*
X130744321Y-87950000D01*
X130744320Y-87950000D01*
X130700000Y-87941184D01*
X130655680Y-87950000D01*
X129134320Y-87950000D01*
X129090000Y-87941184D01*
X129045680Y-87950000D01*
X129045679Y-87950000D01*
X128914419Y-87976109D01*
X128765568Y-88075568D01*
X128740461Y-88113143D01*
X127963146Y-88890459D01*
X127925569Y-88915567D01*
X127871648Y-88996266D01*
X127639239Y-88900000D01*
X127360761Y-88900000D01*
X127103482Y-89006568D01*
X127060050Y-89050000D01*
X123854169Y-89050000D01*
X123800000Y-89039225D01*
X123745831Y-89050000D01*
X123745830Y-89050000D01*
X123585401Y-89081911D01*
X123507893Y-89133700D01*
X123499604Y-89139239D01*
X123403472Y-89203472D01*
X123372787Y-89249395D01*
X122722183Y-89900000D01*
X122660761Y-89900000D01*
X122403482Y-90006568D01*
X122206568Y-90203482D01*
X122100000Y-90460761D01*
X122100000Y-90739239D01*
X122206568Y-90996518D01*
X122403482Y-91193432D01*
X122660761Y-91300000D01*
X122939239Y-91300000D01*
X123196518Y-91193432D01*
X123393432Y-90996518D01*
X123500000Y-90739239D01*
X123500000Y-90677817D01*
X124027818Y-90150000D01*
X127060050Y-90150000D01*
X127086827Y-90176777D01*
X122713144Y-94550461D01*
X122675567Y-94575569D01*
X122576108Y-94724421D01*
X122562349Y-94793593D01*
X122541183Y-94900001D01*
X122549999Y-94944322D01*
X122549999Y-95100000D01*
X122460761Y-95100000D01*
X122203482Y-95206568D01*
X122006568Y-95403482D01*
X121900000Y-95660761D01*
X121900000Y-95939239D01*
X122006568Y-96196518D01*
X122203482Y-96393432D01*
X122460761Y-96500000D01*
X122566589Y-96500000D01*
X122500000Y-96660761D01*
X122500000Y-96939239D01*
X122606568Y-97196518D01*
X122800000Y-97389950D01*
X122800000Y-97760606D01*
X122792164Y-97800000D01*
X122800000Y-97839393D01*
X122823209Y-97956071D01*
X122911616Y-98088384D01*
X122945018Y-98110702D01*
X123389301Y-98554987D01*
X123411617Y-98588385D01*
X123543929Y-98676792D01*
X123660602Y-98700000D01*
X117550000Y-98700000D01*
X117550000Y-87050000D01*
X133175182Y-87050000D01*
X133150010Y-87110771D01*
X133150010Y-87110771D01*
G37*
X133150010Y-87110771D02*
X133150010Y-87389249D01*
X133256578Y-87646528D01*
X133300010Y-87689960D01*
X133300010Y-87774123D01*
X133250000Y-87774123D01*
X133132946Y-87797407D01*
X133033712Y-87863712D01*
X132967407Y-87962946D01*
X132944123Y-88080000D01*
X132944123Y-88818604D01*
X132905595Y-88834563D01*
X132734562Y-89005596D01*
X132642000Y-89229062D01*
X132642000Y-89444000D01*
X132794000Y-89596000D01*
X133846000Y-89596000D01*
X133846000Y-89576000D01*
X134154000Y-89576000D01*
X134154000Y-89596000D01*
X134174000Y-89596000D01*
X134174000Y-89904000D01*
X134154000Y-89904000D01*
X134154000Y-89924000D01*
X133846000Y-89924000D01*
X133846000Y-89904000D01*
X132794000Y-89904000D01*
X132642000Y-90056000D01*
X132642000Y-90270938D01*
X132734562Y-90494404D01*
X132835158Y-90595000D01*
X132348853Y-90595000D01*
X132306997Y-90586674D01*
X132265141Y-90595000D01*
X132265140Y-90595000D01*
X132141171Y-90619659D01*
X132000590Y-90713592D01*
X131976879Y-90749078D01*
X131525000Y-91200957D01*
X131525000Y-90464950D01*
X131693432Y-90296518D01*
X131800000Y-90039239D01*
X131800000Y-89760761D01*
X131769620Y-89687416D01*
X131996518Y-89593432D01*
X132193432Y-89396518D01*
X132300000Y-89139239D01*
X132300000Y-88860761D01*
X132193432Y-88603482D01*
X131996518Y-88406568D01*
X131739239Y-88300000D01*
X131460761Y-88300000D01*
X131302110Y-88365715D01*
X131049540Y-88113145D01*
X131024432Y-88075568D01*
X130875581Y-87976109D01*
X130744321Y-87950000D01*
X130744320Y-87950000D01*
X130700000Y-87941184D01*
X130655680Y-87950000D01*
X129134320Y-87950000D01*
X129090000Y-87941184D01*
X129045680Y-87950000D01*
X129045679Y-87950000D01*
X128914419Y-87976109D01*
X128765568Y-88075568D01*
X128740461Y-88113143D01*
X127963146Y-88890459D01*
X127925569Y-88915567D01*
X127871648Y-88996266D01*
X127639239Y-88900000D01*
X127360761Y-88900000D01*
X127103482Y-89006568D01*
X127060050Y-89050000D01*
X123854169Y-89050000D01*
X123800000Y-89039225D01*
X123745831Y-89050000D01*
X123745830Y-89050000D01*
X123585401Y-89081911D01*
X123507893Y-89133700D01*
X123499604Y-89139239D01*
X123403472Y-89203472D01*
X123372787Y-89249395D01*
X122722183Y-89900000D01*
X122660761Y-89900000D01*
X122403482Y-90006568D01*
X122206568Y-90203482D01*
X122100000Y-90460761D01*
X122100000Y-90739239D01*
X122206568Y-90996518D01*
X122403482Y-91193432D01*
X122660761Y-91300000D01*
X122939239Y-91300000D01*
X123196518Y-91193432D01*
X123393432Y-90996518D01*
X123500000Y-90739239D01*
X123500000Y-90677817D01*
X124027818Y-90150000D01*
X127060050Y-90150000D01*
X127086827Y-90176777D01*
X122713144Y-94550461D01*
X122675567Y-94575569D01*
X122576108Y-94724421D01*
X122562349Y-94793593D01*
X122541183Y-94900001D01*
X122549999Y-94944322D01*
X122549999Y-95100000D01*
X122460761Y-95100000D01*
X122203482Y-95206568D01*
X122006568Y-95403482D01*
X121900000Y-95660761D01*
X121900000Y-95939239D01*
X122006568Y-96196518D01*
X122203482Y-96393432D01*
X122460761Y-96500000D01*
X122566589Y-96500000D01*
X122500000Y-96660761D01*
X122500000Y-96939239D01*
X122606568Y-97196518D01*
X122800000Y-97389950D01*
X122800000Y-97760606D01*
X122792164Y-97800000D01*
X122800000Y-97839393D01*
X122823209Y-97956071D01*
X122911616Y-98088384D01*
X122945018Y-98110702D01*
X123389301Y-98554987D01*
X123411617Y-98588385D01*
X123543929Y-98676792D01*
X123660602Y-98700000D01*
X117550000Y-98700000D01*
X117550000Y-87050000D01*
X133175182Y-87050000D01*
X133150010Y-87110771D01*
G04 #@! TD*
M02*
