G04 #@! TF.GenerationSoftware,KiCad,Pcbnew,(5.0.2)-1*
G04 #@! TF.CreationDate,2020-01-25T18:04:34+01:00*
G04 #@! TF.ProjectId,4.0,342e302e-6b69-4636-9164-5f7063625858,rev?*
G04 #@! TF.SameCoordinates,Original*
G04 #@! TF.FileFunction,Legend,Bot*
G04 #@! TF.FilePolarity,Positive*
%FSLAX46Y46*%
G04 Gerber Fmt 4.6, Leading zero omitted, Abs format (unit mm)*
G04 Created by KiCad (PCBNEW (5.0.2)-1) date 01/25/20 18:04:34*
%MOMM*%
%LPD*%
G01*
G04 APERTURE LIST*
%ADD10C,0.100000*%
%ADD11C,0.150000*%
G04 APERTURE END LIST*
D10*
X118226190Y-88573809D02*
X117726190Y-88573809D01*
X117726190Y-88764285D01*
X117750000Y-88811904D01*
X117773809Y-88835714D01*
X117821428Y-88859523D01*
X117892857Y-88859523D01*
X117940476Y-88835714D01*
X117964285Y-88811904D01*
X117988095Y-88764285D01*
X117988095Y-88573809D01*
X118226190Y-89288095D02*
X117964285Y-89288095D01*
X117916666Y-89264285D01*
X117892857Y-89216666D01*
X117892857Y-89121428D01*
X117916666Y-89073809D01*
X118202380Y-89288095D02*
X118226190Y-89240476D01*
X118226190Y-89121428D01*
X118202380Y-89073809D01*
X118154761Y-89050000D01*
X118107142Y-89050000D01*
X118059523Y-89073809D01*
X118035714Y-89121428D01*
X118035714Y-89240476D01*
X118011904Y-89288095D01*
X118226190Y-89526190D02*
X117726190Y-89526190D01*
X117916666Y-89526190D02*
X117892857Y-89573809D01*
X117892857Y-89669047D01*
X117916666Y-89716666D01*
X117940476Y-89740476D01*
X117988095Y-89764285D01*
X118130952Y-89764285D01*
X118178571Y-89740476D01*
X118202380Y-89716666D01*
X118226190Y-89669047D01*
X118226190Y-89573809D01*
X118202380Y-89526190D01*
X118226190Y-90050000D02*
X118202380Y-90002380D01*
X118154761Y-89978571D01*
X117726190Y-89978571D01*
X118226190Y-90311904D02*
X118202380Y-90264285D01*
X118178571Y-90240476D01*
X118130952Y-90216666D01*
X117988095Y-90216666D01*
X117940476Y-90240476D01*
X117916666Y-90264285D01*
X117892857Y-90311904D01*
X117892857Y-90383333D01*
X117916666Y-90430952D01*
X117940476Y-90454761D01*
X117988095Y-90478571D01*
X118130952Y-90478571D01*
X118178571Y-90454761D01*
X118202380Y-90430952D01*
X118226190Y-90383333D01*
X118226190Y-90311904D01*
X118083333Y-91050000D02*
X118083333Y-91288095D01*
X118226190Y-91002380D02*
X117726190Y-91169047D01*
X118226190Y-91335714D01*
X117535714Y-91216666D02*
X117607142Y-91145238D01*
X118226190Y-91573809D02*
X118202380Y-91526190D01*
X118154761Y-91502380D01*
X117726190Y-91502380D01*
X117892857Y-91716666D02*
X118226190Y-91835714D01*
X117892857Y-91954761D01*
X118226190Y-92359523D02*
X117964285Y-92359523D01*
X117916666Y-92335714D01*
X117892857Y-92288095D01*
X117892857Y-92192857D01*
X117916666Y-92145238D01*
X118202380Y-92359523D02*
X118226190Y-92311904D01*
X118226190Y-92192857D01*
X118202380Y-92145238D01*
X118154761Y-92121428D01*
X118107142Y-92121428D01*
X118059523Y-92145238D01*
X118035714Y-92192857D01*
X118035714Y-92311904D01*
X118011904Y-92359523D01*
X118226190Y-92597619D02*
X117892857Y-92597619D01*
X117988095Y-92597619D02*
X117940476Y-92621428D01*
X117916666Y-92645238D01*
X117892857Y-92692857D01*
X117892857Y-92740476D01*
X118202380Y-93097619D02*
X118226190Y-93049999D01*
X118226190Y-92954761D01*
X118202380Y-92907142D01*
X118154761Y-92883333D01*
X117964285Y-92883333D01*
X117916666Y-92907142D01*
X117892857Y-92954761D01*
X117892857Y-93049999D01*
X117916666Y-93097619D01*
X117964285Y-93121428D01*
X118011904Y-93121428D01*
X118059523Y-92883333D01*
X117892857Y-93288095D02*
X117892857Y-93550000D01*
X118226190Y-93288095D01*
X118226190Y-93550000D01*
X117773809Y-94097619D02*
X117750000Y-94121428D01*
X117726190Y-94169047D01*
X117726190Y-94288095D01*
X117750000Y-94335714D01*
X117773809Y-94359523D01*
X117821428Y-94383333D01*
X117869047Y-94383333D01*
X117940476Y-94359523D01*
X118226190Y-94073809D01*
X118226190Y-94383333D01*
X117726190Y-94692857D02*
X117726190Y-94740476D01*
X117750000Y-94788095D01*
X117773809Y-94811904D01*
X117821428Y-94835714D01*
X117916666Y-94859523D01*
X118035714Y-94859523D01*
X118130952Y-94835714D01*
X118178571Y-94811904D01*
X118202380Y-94788095D01*
X118226190Y-94740476D01*
X118226190Y-94692857D01*
X118202380Y-94645238D01*
X118178571Y-94621428D01*
X118130952Y-94597619D01*
X118035714Y-94573809D01*
X117916666Y-94573809D01*
X117821428Y-94597619D01*
X117773809Y-94621428D01*
X117750000Y-94645238D01*
X117726190Y-94692857D01*
X117773809Y-95050000D02*
X117750000Y-95073809D01*
X117726190Y-95121428D01*
X117726190Y-95240476D01*
X117750000Y-95288095D01*
X117773809Y-95311904D01*
X117821428Y-95335714D01*
X117869047Y-95335714D01*
X117940476Y-95311904D01*
X118226190Y-95026190D01*
X118226190Y-95335714D01*
X117726190Y-95645238D02*
X117726190Y-95692857D01*
X117750000Y-95740476D01*
X117773809Y-95764285D01*
X117821428Y-95788095D01*
X117916666Y-95811904D01*
X118035714Y-95811904D01*
X118130952Y-95788095D01*
X118178571Y-95764285D01*
X118202380Y-95740476D01*
X118226190Y-95692857D01*
X118226190Y-95645238D01*
X118202380Y-95597619D01*
X118178571Y-95573809D01*
X118130952Y-95550000D01*
X118035714Y-95526190D01*
X117916666Y-95526190D01*
X117821428Y-95550000D01*
X117773809Y-95573809D01*
X117750000Y-95597619D01*
X117726190Y-95645238D01*
X117892857Y-96359523D02*
X118226190Y-96478571D01*
X117892857Y-96597619D01*
X117892857Y-97002380D02*
X118226190Y-97002380D01*
X117702380Y-96883333D02*
X118059523Y-96764285D01*
X118059523Y-97073809D01*
G04 #@! TO.C,NRF24L01*
D11*
X132202380Y-89226190D02*
X131202380Y-89226190D01*
X132202380Y-89797619D01*
X131202380Y-89797619D01*
X132202380Y-90845238D02*
X131726190Y-90511904D01*
X132202380Y-90273809D02*
X131202380Y-90273809D01*
X131202380Y-90654761D01*
X131250000Y-90750000D01*
X131297619Y-90797619D01*
X131392857Y-90845238D01*
X131535714Y-90845238D01*
X131630952Y-90797619D01*
X131678571Y-90750000D01*
X131726190Y-90654761D01*
X131726190Y-90273809D01*
X131678571Y-91607142D02*
X131678571Y-91273809D01*
X132202380Y-91273809D02*
X131202380Y-91273809D01*
X131202380Y-91750000D01*
X131297619Y-92083333D02*
X131250000Y-92130952D01*
X131202380Y-92226190D01*
X131202380Y-92464285D01*
X131250000Y-92559523D01*
X131297619Y-92607142D01*
X131392857Y-92654761D01*
X131488095Y-92654761D01*
X131630952Y-92607142D01*
X132202380Y-92035714D01*
X132202380Y-92654761D01*
X131535714Y-93511904D02*
X132202380Y-93511904D01*
X131154761Y-93273809D02*
X131869047Y-93035714D01*
X131869047Y-93654761D01*
X132202380Y-94511904D02*
X132202380Y-94035714D01*
X131202380Y-94035714D01*
X131202380Y-95035714D02*
X131202380Y-95130952D01*
X131250000Y-95226190D01*
X131297619Y-95273809D01*
X131392857Y-95321428D01*
X131583333Y-95369047D01*
X131821428Y-95369047D01*
X132011904Y-95321428D01*
X132107142Y-95273809D01*
X132154761Y-95226190D01*
X132202380Y-95130952D01*
X132202380Y-95035714D01*
X132154761Y-94940476D01*
X132107142Y-94892857D01*
X132011904Y-94845238D01*
X131821428Y-94797619D01*
X131583333Y-94797619D01*
X131392857Y-94845238D01*
X131297619Y-94892857D01*
X131250000Y-94940476D01*
X131202380Y-95035714D01*
X132202380Y-96321428D02*
X132202380Y-95750000D01*
X132202380Y-96035714D02*
X131202380Y-96035714D01*
X131345238Y-95940476D01*
X131440476Y-95845238D01*
X131488095Y-95750000D01*
G04 #@! TD*
M02*
